<svg width="945" height="271" viewBox="0 0 945 271" fill="none" xmlns="http://www.w3.org/2000/svg">
<g filter="url(#filter0_d_2001_2)">
<path fill-rule="evenodd" clip-rule="evenodd" d="M606 18.3877C606 32.1948 594.807 43.3877 581 43.3877C567.193 43.3877 556 32.1948 556 18.3877C556 16.8908 556.132 15.4245 556.384 14H40.6311C29.2368 14 20 23.2368 20 34.6311V224.716C20 236.11 29.2368 245.347 40.6311 245.347H556.003C556.207 231.716 567.321 220.729 581 220.729C594.679 220.729 605.793 231.716 605.997 245.347H904.412C915.806 245.347 925.043 236.11 925.043 224.716V34.6311C925.043 23.2368 915.806 14 904.412 14H605.616C605.868 15.4245 606 16.8908 606 18.3877Z" fill="#FCFCFC"/>
</g>
<mask id="mask0_2001_2" style="mask-type:alpha" maskUnits="userSpaceOnUse" x="20" y="14" width="906" height="232">
<path fill-rule="evenodd" clip-rule="evenodd" d="M611 20C611 36.5685 597.569 50 581 50C564.431 50 551 36.5685 551 20C551 17.9452 551.207 15.9387 551.6 14H40.6311C29.2368 14 20 23.2368 20 34.6311V224.716C20 236.11 29.2368 245.347 40.6311 245.347H551.002C551.001 245.232 551 245.116 551 245C551 228.431 564.431 215 581 215C597.569 215 611 228.431 611 245C611 245.116 610.999 245.232 610.998 245.347H904.412C915.806 245.347 925.043 236.11 925.043 224.716V34.6311C925.043 23.2368 915.806 14 904.412 14H610.4C610.793 15.9387 611 17.9452 611 20Z" fill="#FCFCFC"/>
</mask>
<g mask="url(#mask0_2001_2)">
<rect x="591.4" y="-5.16895" width="334.621" height="269.685" fill="#FFC338"/>
</g>
<mask id="mask1_2001_2" style="mask-type:alpha" maskUnits="userSpaceOnUse" x="20" y="16" width="906" height="231">
<path fill-rule="evenodd" clip-rule="evenodd" d="M601.043 22.3857C601.043 36.1929 589.85 47.3857 576.043 47.3857C562.236 47.3857 551.043 36.1929 551.043 22.3857C551.043 20.1787 551.329 18.0384 551.866 16H40.6311C29.2368 16 20 25.2369 20 36.6311V226.055C20 237.449 29.2368 246.686 40.6311 246.686H554.174C555.466 234.091 566.107 224.266 579.043 224.266C591.979 224.266 602.62 234.091 603.911 246.686H904.412C915.806 246.686 925.043 237.449 925.043 226.055V36.6311C925.043 25.2368 915.806 16 904.412 16H600.22C600.757 18.0384 601.043 20.1787 601.043 22.3857Z" fill="#FCFCFC"/>
</mask>
<g mask="url(#mask1_2001_2)">
<rect x="581" y="-44" width="361" height="313" fill="#FFC338"/>
</g>
<g style="mix-blend-mode:multiply" filter="url(#filter1_d_2001_2)">
<mask id="path-6-inside-1_2001_2" fill="white">
<path fill-rule="evenodd" clip-rule="evenodd" d="M49.4367 23H550.849C551.729 38.4728 564.875 50.7551 580.963 50.7551C597.051 50.7551 610.198 38.4728 611.077 23H900.369C911.763 23 921 32.2368 921 43.6311V220.089C921 231.483 911.763 240.72 900.369 240.72H611.1C610.457 225.032 597.21 212.506 580.963 212.506C564.716 212.506 551.47 225.032 550.827 240.72H49.4367C38.0425 240.72 28.8057 231.483 28.8057 220.089V43.6311C28.8057 32.2369 38.0425 23 49.4367 23Z"/>
</mask>
<path d="M550.849 23L551.261 22.9766L551.239 22.5874H550.849V23ZM611.077 23V22.5874H610.688L610.665 22.9766L611.077 23ZM611.1 240.72L610.688 240.737L610.704 241.133H611.1V240.72ZM550.827 240.72V241.133H551.223L551.239 240.737L550.827 240.72ZM550.849 22.5874H550.024V23.4126H550.849V22.5874ZM548.375 22.5874H546.726V23.4126H548.375V22.5874ZM545.076 22.5874H543.427V23.4126H545.076V22.5874ZM541.778 22.5874H540.128V23.4126H541.778V22.5874ZM538.479 22.5874H536.829V23.4126H538.479V22.5874ZM535.18 22.5874H533.531V23.4126H535.18V22.5874ZM531.881 22.5874H530.232V23.4126H531.881V22.5874ZM528.583 22.5874H526.933V23.4126H528.583V22.5874ZM525.284 22.5874H523.634V23.4126H525.284V22.5874ZM521.985 22.5874H520.336V23.4126H521.985V22.5874ZM518.686 22.5874H517.037V23.4126H518.686V22.5874ZM515.387 22.5874H513.738V23.4126H515.387V22.5874ZM512.089 22.5874H510.439V23.4126H512.089V22.5874ZM508.79 22.5874H507.141V23.4126H508.79V22.5874ZM505.491 22.5874H503.842V23.4126H505.491V22.5874ZM502.192 22.5874H500.543V23.4126H502.192V22.5874ZM498.894 22.5874H497.244V23.4126H498.894V22.5874ZM495.595 22.5874H493.945V23.4126H495.595V22.5874ZM492.296 22.5874H490.647V23.4126H492.296V22.5874ZM488.997 22.5874H487.348V23.4126H488.997V22.5874ZM485.699 22.5874H484.049V23.4126H485.699V22.5874ZM482.4 22.5874H480.75V23.4126H482.4V22.5874ZM479.101 22.5874H477.452V23.4126H479.101V22.5874ZM475.802 22.5874H474.153V23.4126H475.802V22.5874ZM472.503 22.5874H470.854V23.4126H472.503V22.5874ZM469.205 22.5874H467.555V23.4126H469.205V22.5874ZM465.906 22.5874H464.257V23.4126H465.906V22.5874ZM462.607 22.5874H460.958V23.4126H462.607V22.5874ZM459.308 22.5874H457.659V23.4126H459.308V22.5874ZM456.01 22.5874H454.36V23.4126H456.01V22.5874ZM452.711 22.5874H451.061V23.4126H452.711V22.5874ZM449.412 22.5874H447.763V23.4126H449.412V22.5874ZM446.113 22.5874H444.464V23.4126H446.113V22.5874ZM442.815 22.5874H441.165V23.4126H442.815V22.5874ZM439.516 22.5874H437.866V23.4126H439.516V22.5874ZM436.217 22.5874H434.568V23.4126H436.217V22.5874ZM432.918 22.5874H431.269V23.4126H432.918V22.5874ZM429.62 22.5874H427.97V23.4126H429.62V22.5874ZM426.321 22.5874H424.671V23.4126H426.321V22.5874ZM423.022 22.5874H421.373V23.4126H423.022V22.5874ZM419.723 22.5874H418.074V23.4126H419.723V22.5874ZM416.424 22.5874H414.775V23.4126H416.424V22.5874ZM413.126 22.5874H411.476V23.4126H413.126V22.5874ZM409.827 22.5874H408.178V23.4126H409.827V22.5874ZM406.528 22.5874H404.879V23.4126H406.528V22.5874ZM403.229 22.5874H401.58V23.4126H403.229V22.5874ZM399.931 22.5874H398.281V23.4126H399.931V22.5874ZM396.632 22.5874H394.982V23.4126H396.632V22.5874ZM393.333 22.5874H391.684V23.4126H393.333V22.5874ZM390.034 22.5874H388.385V23.4126H390.034V22.5874ZM386.736 22.5874H385.086V23.4126H386.736V22.5874ZM383.437 22.5874H381.787V23.4126H383.437V22.5874ZM380.138 22.5874H378.489V23.4126H380.138V22.5874ZM376.839 22.5874H375.19V23.4126H376.839V22.5874ZM373.54 22.5874H371.891V23.4126H373.54V22.5874ZM370.242 22.5874H368.592V23.4126H370.242V22.5874ZM366.943 22.5874H365.294V23.4126H366.943V22.5874ZM363.644 22.5874H361.995V23.4126H363.644V22.5874ZM360.345 22.5874H358.696V23.4126H360.345V22.5874ZM357.047 22.5874H355.397V23.4126H357.047V22.5874ZM353.748 22.5874H352.098V23.4126H353.748V22.5874ZM350.449 22.5874H348.8V23.4126H350.449V22.5874ZM347.15 22.5874H345.501V23.4126H347.15V22.5874ZM343.852 22.5874H342.202V23.4126H343.852V22.5874ZM340.553 22.5874H338.903V23.4126H340.553V22.5874ZM337.254 22.5874H335.605V23.4126H337.254V22.5874ZM333.955 22.5874H332.306V23.4126H333.955V22.5874ZM330.656 22.5874H329.007V23.4126H330.656V22.5874ZM327.358 22.5874H325.708V23.4126H327.358V22.5874ZM324.059 22.5874H322.41V23.4126H324.059V22.5874ZM320.76 22.5874H319.111V23.4126H320.76V22.5874ZM317.461 22.5874H315.812V23.4126H317.461V22.5874ZM314.163 22.5874H312.513V23.4126H314.163V22.5874ZM310.864 22.5874H309.215V23.4126H310.864V22.5874ZM307.565 22.5874H305.916V23.4126H307.565V22.5874ZM304.266 22.5874H302.617V23.4126H304.266V22.5874ZM300.968 22.5874H299.318V23.4126H300.968V22.5874ZM297.669 22.5874H296.019V23.4126H297.669V22.5874ZM294.37 22.5874H292.721V23.4126H294.37V22.5874ZM291.071 22.5874H289.422V23.4126H291.071V22.5874ZM287.773 22.5874H286.123V23.4126H287.773V22.5874ZM284.474 22.5874H282.824V23.4126H284.474V22.5874ZM281.175 22.5874H279.526V23.4126H281.175V22.5874ZM277.876 22.5874H276.227V23.4126H277.876V22.5874ZM274.577 22.5874H272.928V23.4126H274.577V22.5874ZM271.279 22.5874H269.629V23.4126H271.279V22.5874ZM267.98 22.5874H266.331V23.4126H267.98V22.5874ZM264.681 22.5874H263.032V23.4126H264.681V22.5874ZM261.382 22.5874H259.733V23.4126H261.382V22.5874ZM258.084 22.5874H256.434V23.4126H258.084V22.5874ZM254.785 22.5874H253.135V23.4126H254.785V22.5874ZM251.486 22.5874H249.837V23.4126H251.486V22.5874ZM248.187 22.5874H246.538V23.4126H248.187V22.5874ZM244.889 22.5874H243.239V23.4126H244.889V22.5874ZM241.59 22.5874H239.94V23.4126H241.59V22.5874ZM238.291 22.5874H236.642V23.4126H238.291V22.5874ZM234.992 22.5874H233.343V23.4126H234.992V22.5874ZM231.693 22.5874H230.044V23.4126H231.693V22.5874ZM228.395 22.5874H226.745V23.4126H228.395V22.5874ZM225.096 22.5874H223.447V23.4126H225.096V22.5874ZM221.797 22.5874H220.148V23.4126H221.797V22.5874ZM218.498 22.5874H216.849V23.4126H218.498V22.5874ZM215.2 22.5874H213.55V23.4126H215.2V22.5874ZM211.901 22.5874H210.252V23.4126H211.901V22.5874ZM208.602 22.5874H206.953V23.4126H208.602V22.5874ZM205.303 22.5874H203.654V23.4126H205.303V22.5874ZM202.005 22.5874H200.355V23.4126H202.005V22.5874ZM198.706 22.5874H197.056V23.4126H198.706V22.5874ZM195.407 22.5874H193.758V23.4126H195.407V22.5874ZM192.108 22.5874H190.459V23.4126H192.108V22.5874ZM188.81 22.5874H187.16V23.4126H188.81V22.5874ZM185.511 22.5874H183.861V23.4126H185.511V22.5874ZM182.212 22.5874H180.563V23.4126H182.212V22.5874ZM178.913 22.5874H177.264V23.4126H178.913V22.5874ZM175.614 22.5874H173.965V23.4126H175.614V22.5874ZM172.316 22.5874H170.666V23.4126H172.316V22.5874ZM169.017 22.5874H167.368V23.4126H169.017V22.5874ZM165.718 22.5874H164.069V23.4126H165.718V22.5874ZM162.419 22.5874H160.77V23.4126H162.419V22.5874ZM159.121 22.5874H157.471V23.4126H159.121V22.5874ZM155.822 22.5874H154.172V23.4126H155.822V22.5874ZM152.523 22.5874H150.874V23.4126H152.523V22.5874ZM149.224 22.5874H147.575V23.4126H149.224V22.5874ZM145.926 22.5874H144.276V23.4126H145.926V22.5874ZM142.627 22.5874H140.977V23.4126H142.627V22.5874ZM139.328 22.5874H137.679V23.4126H139.328V22.5874ZM136.029 22.5874H134.38V23.4126H136.029V22.5874ZM132.73 22.5874H131.081V23.4126H132.73V22.5874ZM129.432 22.5874H127.782V23.4126H129.432V22.5874ZM126.133 22.5874H124.484V23.4126H126.133V22.5874ZM122.834 22.5874H121.185V23.4126H122.834V22.5874ZM119.535 22.5874H117.886V23.4126H119.535V22.5874ZM116.237 22.5874H114.587V23.4126H116.237V22.5874ZM112.938 22.5874H111.288V23.4126H112.938V22.5874ZM109.639 22.5874H107.99V23.4126H109.639V22.5874ZM106.34 22.5874H104.691V23.4126H106.34V22.5874ZM103.042 22.5874H101.392V23.4126H103.042V22.5874ZM99.7428 22.5874H98.0934V23.4126H99.7428V22.5874ZM96.444 22.5874H94.7947V23.4126H96.444V22.5874ZM93.1452 22.5874H91.4959V23.4126H93.1452V22.5874ZM89.8465 22.5874H88.1971V23.4126H89.8465V22.5874ZM86.5477 22.5874H84.8983V23.4126H86.5477V22.5874ZM83.249 22.5874H81.5996V23.4126H83.249V22.5874ZM79.9502 22.5874H78.3008V23.4126H79.9502V22.5874ZM76.6514 22.5874H75.002V23.4126H76.6514V22.5874ZM73.3527 22.5874H71.7033V23.4126H73.3527V22.5874ZM70.0539 22.5874H68.4045V23.4126H70.0539V22.5874ZM66.7551 22.5874H65.1058V23.4126H66.7551V22.5874ZM63.4563 22.5874H61.807V23.4126H63.4563V22.5874ZM60.1576 22.5874H58.5082V23.4126H60.1576V22.5874ZM56.8588 22.5874H55.2094V23.4126H56.8588V22.5874ZM53.5601 22.5874H51.9107V23.4126H53.5601V22.5874ZM50.2613 22.5874H49.4367V23.4126H50.2613V22.5874ZM49.4367 22.5874C49.1598 22.5874 48.884 22.5927 48.6096 22.6033L48.6415 23.428C48.9053 23.4178 49.1704 23.4126 49.4367 23.4126V22.5874ZM46.9623 22.7314C46.4115 22.7959 45.8672 22.8817 45.3303 22.9879L45.4904 23.7975C46.0062 23.6954 46.5291 23.613 47.0583 23.551L46.9623 22.7314ZM43.7225 23.3726C43.1899 23.5225 42.6658 23.6929 42.1511 23.8828L42.4368 24.657C42.9311 24.4746 43.4345 24.311 43.9461 24.1669L43.7225 23.3726ZM40.6241 24.516C40.1225 24.7477 39.6316 24.9985 39.1523 25.2674L39.5562 25.9871C40.0167 25.7287 40.4883 25.4878 40.9701 25.2653L40.6241 24.516ZM37.7442 26.1321C37.2858 26.439 36.8401 26.7635 36.4081 27.1045L36.9194 27.7522C37.3346 27.4245 37.7628 27.1128 38.2033 26.8179L37.7442 26.1321ZM35.1522 28.1782C34.7477 28.5522 34.3579 28.942 33.9838 29.3465L34.5897 29.9068C34.9492 29.5181 35.3238 29.1435 35.7125 28.784L35.1522 28.1782ZM32.9102 30.6024C32.5691 31.0344 32.2447 31.4801 31.9378 31.9386L32.6235 32.3977C32.9184 31.9572 33.2302 31.5289 33.5579 31.1138L32.9102 30.6024ZM31.0731 33.3467C30.8041 33.826 30.5533 34.3169 30.3217 34.8185L31.0709 35.1644C31.2934 34.6826 31.5343 34.211 31.7928 33.7505L31.0731 33.3467ZM29.6885 36.3455C29.4986 36.8601 29.3282 37.3842 29.1782 37.9169L29.9726 38.1405C30.1166 37.6289 30.2803 37.1255 30.4627 36.6312L29.6885 36.3455ZM28.7936 39.5246C28.6873 40.0616 28.6016 40.6059 28.537 41.1566L29.3567 41.2527C29.4187 40.7235 29.5011 40.2006 29.6031 39.6848L28.7936 39.5246ZM28.409 42.804C28.3984 43.0784 28.393 43.3541 28.393 43.6311H29.2183C29.2183 43.3647 29.2234 43.0996 29.2336 42.8358L28.409 42.804ZM28.393 43.6311V44.4634H29.2183V43.6311H28.393ZM28.393 46.1281V47.7928H29.2183V46.1281H28.393ZM28.393 49.4575V51.1222H29.2183V49.4575H28.393ZM28.393 52.7869V54.4516H29.2183V52.7869H28.393ZM28.393 56.1163V57.781H29.2183V56.1163H28.393ZM28.393 59.4457V61.1104H29.2183V59.4457H28.393ZM28.393 62.7751V64.4398H29.2183V62.7751H28.393ZM28.393 66.1045V67.7692H29.2183V66.1045H28.393ZM28.393 69.4339V71.0986H29.2183V69.4339H28.393ZM28.393 72.7633V74.428H29.2183V72.7633H28.393ZM28.393 76.0927V77.7574H29.2183V76.0927H28.393ZM28.393 79.4221V81.0868H29.2183V79.4221H28.393ZM28.393 82.7515V84.4162H29.2183V82.7515H28.393ZM28.393 86.0809V87.7456H29.2183V86.0809H28.393ZM28.393 89.4103V91.075H29.2183V89.4103H28.393ZM28.393 92.7397V94.4044H29.2183V92.7397H28.393ZM28.393 96.0691V97.7338H29.2183V96.0691H28.393ZM28.393 99.3985V101.063H29.2183V99.3985H28.393ZM28.393 102.728V104.393H29.2183V102.728H28.393ZM28.393 106.057V107.722H29.2183V106.057H28.393ZM28.393 109.387V111.051H29.2183V109.387H28.393ZM28.393 112.716V114.381H29.2183V112.716H28.393ZM28.393 116.045V117.71H29.2183V116.045H28.393ZM28.393 119.375V121.04H29.2183V119.375H28.393ZM28.393 122.704V124.369H29.2183V122.704H28.393ZM28.393 126.034V127.698H29.2183V126.034H28.393ZM28.393 129.363V131.028H29.2183V129.363H28.393ZM28.393 132.692V134.357H29.2183V132.692H28.393ZM28.393 136.022V137.687H29.2183V136.022H28.393ZM28.393 139.351V141.016H29.2183V139.351H28.393ZM28.393 142.681V144.345H29.2183V142.681H28.393ZM28.393 146.01V147.675H29.2183V146.01H28.393ZM28.393 149.339V151.004H29.2183V149.339H28.393ZM28.393 152.669V154.333H29.2183V152.669H28.393ZM28.393 155.998V157.663H29.2183V155.998H28.393ZM28.393 159.328V160.992H29.2183V159.328H28.393ZM28.393 162.657V164.322H29.2183V162.657H28.393ZM28.393 165.986V167.651H29.2183V165.986H28.393ZM28.393 169.316V170.98H29.2183V169.316H28.393ZM28.393 172.645V174.31H29.2183V172.645H28.393ZM28.393 175.975V177.639H29.2183V175.975H28.393ZM28.393 179.304V180.969H29.2183V179.304H28.393ZM28.393 182.633V184.298H29.2183V182.633H28.393ZM28.393 185.963V187.627H29.2183V185.963H28.393ZM28.393 189.292V190.957H29.2183V189.292H28.393ZM28.393 192.622V194.286H29.2183V192.622H28.393ZM28.393 195.951V197.616H29.2183V195.951H28.393ZM28.393 199.28V200.945H29.2183V199.28H28.393ZM28.393 202.61V204.275H29.2183V202.61H28.393ZM28.393 205.939V207.604H29.2183V205.939H28.393ZM28.393 209.269V210.933H29.2183V209.269H28.393ZM28.393 212.598V214.263H29.2183V212.598H28.393ZM28.393 215.927V217.592H29.2183V215.927H28.393ZM28.393 219.257V220.089H29.2183V219.257H28.393ZM28.393 220.089C28.393 220.366 28.3984 220.642 28.409 220.916L29.2336 220.884C29.2234 220.621 29.2183 220.356 29.2183 220.089H28.393ZM28.537 222.564C28.6015 223.114 28.6873 223.659 28.7936 224.196L29.6031 224.036C29.5011 223.52 29.4187 222.997 29.3567 222.468L28.537 222.564ZM29.1782 225.803C29.3282 226.336 29.4986 226.86 29.6885 227.375L30.4627 227.089C30.2803 226.595 30.1166 226.091 29.9726 225.58L29.1782 225.803ZM30.3217 228.902C30.5533 229.403 30.8041 229.894 31.0731 230.374L31.7928 229.97C31.5343 229.509 31.2934 229.038 31.0709 228.556L30.3217 228.902ZM31.9378 231.782C32.2447 232.24 32.5692 232.686 32.9102 233.118L33.5579 232.606C33.2302 232.191 32.9184 231.763 32.6235 231.323L31.9378 231.782ZM33.9838 234.374C34.3579 234.778 34.7477 235.168 35.1522 235.542L35.7125 234.936C35.3238 234.577 34.9492 234.202 34.5897 233.813L33.9838 234.374ZM36.4081 236.616C36.8401 236.957 37.2858 237.281 37.7442 237.588L38.2033 236.902C37.7628 236.607 37.3346 236.296 36.9194 235.968L36.4081 236.616ZM39.1523 238.453C39.6316 238.722 40.1225 238.973 40.6241 239.204L40.9701 238.455C40.4883 238.232 40.0167 237.992 39.5562 237.733L39.1523 238.453ZM42.1511 239.837C42.6658 240.027 43.1899 240.198 43.7225 240.348L43.9462 239.553C43.4345 239.409 42.9312 239.246 42.4369 239.063L42.1511 239.837ZM45.3303 240.732C45.8673 240.839 46.4116 240.924 46.9623 240.989L47.0583 240.169C46.5292 240.107 46.0062 240.025 45.4904 239.923L45.3303 240.732ZM48.6096 241.117C48.8841 241.128 49.1598 241.133 49.4367 241.133V240.308C49.1704 240.308 48.9053 240.302 48.6415 240.292L48.6096 241.117ZM49.4367 241.133H50.2614V240.308H49.4367V241.133ZM51.9107 241.133H53.56V240.308H51.9107V241.133ZM55.2093 241.133H56.8586V240.308H55.2093V241.133ZM58.5079 241.133H60.1573V240.308H58.5079V241.133ZM61.8066 241.133H63.4559V240.308H61.8066V241.133ZM65.1052 241.133H66.7545V240.308H65.1052V241.133ZM68.4038 241.133H70.0531V240.308H68.4038V241.133ZM71.7024 241.133H73.3517V240.308H71.7024V241.133ZM75.001 241.133H76.6503V240.308H75.001V241.133ZM78.2997 241.133H79.949V240.308H78.2997V241.133ZM81.5983 241.133H83.2476V240.308H81.5983V241.133ZM84.8969 241.133H86.5462V240.308H84.8969V241.133ZM88.1955 241.133H89.8448V240.308H88.1955V241.133ZM91.4941 241.133H93.1434V240.308H91.4941V241.133ZM94.7927 241.133H96.442V240.308H94.7927V241.133ZM98.0913 241.133H99.7407V240.308H98.0913V241.133ZM101.39 241.133H103.039V240.308H101.39V241.133ZM104.689 241.133H106.338V240.308H104.689V241.133ZM107.987 241.133H109.636V240.308H107.987V241.133ZM111.286 241.133H112.935V240.308H111.286V241.133ZM114.584 241.133H116.234V240.308H114.584V241.133ZM117.883 241.133H119.532V240.308H117.883V241.133ZM121.182 241.133H122.831V240.308H121.182V241.133ZM124.48 241.133H126.13V240.308H124.48V241.133ZM127.779 241.133H129.428V240.308H127.779V241.133ZM131.077 241.133H132.727V240.308H131.077V241.133ZM134.376 241.133H136.025V240.308H134.376V241.133ZM137.675 241.133H139.324V240.308H137.675V241.133ZM140.973 241.133H142.623V240.308H140.973V241.133ZM144.272 241.133H145.921V240.308H144.272V241.133ZM147.571 241.133H149.22V240.308H147.571V241.133ZM150.869 241.133H152.518V240.308H150.869V241.133ZM154.168 241.133H155.817V240.308H154.168V241.133ZM157.466 241.133H159.116V240.308H157.466V241.133ZM160.765 241.133H162.414V240.308H160.765V241.133ZM164.064 241.133H165.713V240.308H164.064V241.133ZM167.362 241.133H169.012V240.308H167.362V241.133ZM170.661 241.133H172.31V240.308H170.661V241.133ZM173.959 241.133H175.609V240.308H173.959V241.133ZM177.258 241.133H178.907V240.308H177.258V241.133ZM180.557 241.133H182.206V240.308H180.557V241.133ZM183.855 241.133H185.505V240.308H183.855V241.133ZM187.154 241.133H188.803V240.308H187.154V241.133ZM190.453 241.133H192.102V240.308H190.453V241.133ZM193.751 241.133H195.4V240.308H193.751V241.133ZM197.05 241.133H198.699V240.308H197.05V241.133ZM200.348 241.133H201.998V240.308H200.348V241.133ZM203.647 241.133H205.296V240.308H203.647V241.133ZM206.946 241.133H208.595V240.308H206.946V241.133ZM210.244 241.133H211.894V240.308H210.244V241.133ZM213.543 241.133H215.192V240.308H213.543V241.133ZM216.841 241.133H218.491V240.308H216.841V241.133ZM220.14 241.133H221.789V240.308H220.14V241.133ZM223.439 241.133H225.088V240.308H223.439V241.133ZM226.737 241.133H228.387V240.308H226.737V241.133ZM230.036 241.133H231.685V240.308H230.036V241.133ZM233.335 241.133H234.984V240.308H233.335V241.133ZM236.633 241.133H238.282V240.308H236.633V241.133ZM239.932 241.133H241.581V240.308H239.932V241.133ZM243.23 241.133H244.88V240.308H243.23V241.133ZM246.529 241.133H248.178V240.308H246.529V241.133ZM249.828 241.133H251.477V240.308H249.828V241.133ZM253.126 241.133H254.776V240.308H253.126V241.133ZM256.425 241.133H258.074V240.308H256.425V241.133ZM259.723 241.133H261.373V240.308H259.723V241.133ZM263.022 241.133H264.671V240.308H263.022V241.133ZM266.321 241.133H267.97V240.308H266.321V241.133ZM269.619 241.133H271.269V240.308H269.619V241.133ZM272.918 241.133H274.567V240.308H272.918V241.133ZM276.217 241.133H277.866V240.308H276.217V241.133ZM279.515 241.133H281.164V240.308H279.515V241.133ZM282.814 241.133H284.463V240.308H282.814V241.133ZM286.112 241.133H287.762V240.308H286.112V241.133ZM289.411 241.133H291.06V240.308H289.411V241.133ZM292.71 241.133H294.359V240.308H292.71V241.133ZM296.008 241.133H297.658V240.308H296.008V241.133ZM299.307 241.133H300.956V240.308H299.307V241.133ZM302.605 241.133H304.255V240.308H302.605V241.133ZM305.904 241.133H307.553V240.308H305.904V241.133ZM309.203 241.133H310.852V240.308H309.203V241.133ZM312.501 241.133H314.151V240.308H312.501V241.133ZM315.8 241.133H317.449V240.308H315.8V241.133ZM319.099 241.133H320.748V240.308H319.099V241.133ZM322.397 241.133H324.047V240.308H322.397V241.133ZM325.696 241.133H327.345V240.308H325.696V241.133ZM328.995 241.133H330.644V240.308H328.995V241.133ZM332.293 241.133H333.943V240.308H332.293V241.133ZM335.592 241.133H337.241V240.308H335.592V241.133ZM338.891 241.133H340.54V240.308H338.891V241.133ZM342.189 241.133H343.838V240.308H342.189V241.133ZM345.488 241.133H347.137V240.308H345.488V241.133ZM348.786 241.133H350.436V240.308H348.786V241.133ZM352.085 241.133H353.734V240.308H352.085V241.133ZM355.384 241.133H357.033V240.308H355.384V241.133ZM358.682 241.133H360.332V240.308H358.682V241.133ZM361.981 241.133H363.63V240.308H361.981V241.133ZM365.28 241.133H366.929V240.308H365.28V241.133ZM368.578 241.133H370.228V240.308H368.578V241.133ZM371.877 241.133H373.526V240.308H371.877V241.133ZM375.176 241.133H376.825V240.308H375.176V241.133ZM378.474 241.133H380.124V240.308H378.474V241.133ZM381.773 241.133H383.422V240.308H381.773V241.133ZM385.072 241.133H386.721V240.308H385.072V241.133ZM388.37 241.133H390.02V240.308H388.37V241.133ZM391.669 241.133H393.318V240.308H391.669V241.133ZM394.967 241.133H396.617V240.308H394.967V241.133ZM398.266 241.133H399.915V240.308H398.266V241.133ZM401.565 241.133H403.214V240.308H401.565V241.133ZM404.863 241.133H406.513V240.308H404.863V241.133ZM408.162 241.133H409.811V240.308H408.162V241.133ZM411.461 241.133H413.11V240.308H411.461V241.133ZM414.759 241.133H416.409V240.308H414.759V241.133ZM418.058 241.133H419.707V240.308H418.058V241.133ZM421.357 241.133H423.006V240.308H421.357V241.133ZM424.655 241.133H426.305V240.308H424.655V241.133ZM427.954 241.133H429.603V240.308H427.954V241.133ZM431.253 241.133H432.902V240.308H431.253V241.133ZM434.551 241.133H436.201V240.308H434.551V241.133ZM437.85 241.133H439.499V240.308H437.85V241.133ZM441.148 241.133H442.798V240.308H441.148V241.133ZM444.447 241.133H446.096V240.308H444.447V241.133ZM447.746 241.133H449.395V240.308H447.746V241.133ZM451.044 241.133H452.694V240.308H451.044V241.133ZM454.343 241.133H455.992V240.308H454.343V241.133ZM457.642 241.133H459.291V240.308H457.642V241.133ZM460.94 241.133H462.59V240.308H460.94V241.133ZM464.239 241.133H465.888V240.308H464.239V241.133ZM467.538 241.133H469.187V240.308H467.538V241.133ZM470.836 241.133H472.486V240.308H470.836V241.133ZM474.135 241.133H475.784V240.308H474.135V241.133ZM477.434 241.133H479.083V240.308H477.434V241.133ZM480.732 241.133H482.382V240.308H480.732V241.133ZM484.031 241.133H485.68V240.308H484.031V241.133ZM487.33 241.133H488.979V240.308H487.33V241.133ZM490.628 241.133H492.277V240.308H490.628V241.133ZM493.927 241.133H495.576V240.308H493.927V241.133ZM497.225 241.133H498.875V240.308H497.225V241.133ZM500.524 241.133H502.173V240.308H500.524V241.133ZM503.823 241.133H505.472V240.308H503.823V241.133ZM507.121 241.133H508.771V240.308H507.121V241.133ZM510.42 241.133H512.069V240.308H510.42V241.133ZM513.719 241.133H515.368V240.308H513.719V241.133ZM517.017 241.133H518.667V240.308H517.017V241.133ZM520.316 241.133H521.965V240.308H520.316V241.133ZM523.615 241.133H525.264V240.308H523.615V241.133ZM526.913 241.133H528.563V240.308H526.913V241.133ZM530.212 241.133H531.861V240.308H530.212V241.133ZM533.511 241.133H535.16V240.308H533.511V241.133ZM536.809 241.133H538.459V240.308H536.809V241.133ZM540.108 241.133H541.757V240.308H540.108V241.133ZM543.406 241.133H545.056V240.308H543.406V241.133ZM546.705 241.133H548.354V240.308H546.705V241.133ZM550.004 241.133H550.827V240.308H550.004V241.133ZM551.239 240.737C551.25 240.468 551.265 240.201 551.283 239.934L550.46 239.877C550.441 240.151 550.426 240.427 550.414 240.703L551.239 240.737ZM551.439 238.337C551.506 237.804 551.589 237.275 551.685 236.751L550.874 236.602C550.774 237.141 550.69 237.685 550.62 238.234L551.439 238.337ZM552.021 235.183C552.148 234.661 552.29 234.145 552.445 233.635L551.656 233.394C551.496 233.919 551.35 234.45 551.219 234.987L552.021 235.183ZM552.957 232.114C553.143 231.611 553.342 231.114 553.555 230.624L552.798 230.295C552.579 230.799 552.374 231.311 552.183 231.828L552.957 232.114ZM554.235 229.17C554.476 228.692 554.73 228.221 554.996 227.757L554.281 227.346C554.007 227.822 553.745 228.307 553.498 228.8L554.235 229.17ZM555.835 226.389C556.127 225.94 556.432 225.5 556.748 225.068L556.083 224.58C555.757 225.024 555.444 225.477 555.143 225.938L555.835 226.389ZM557.733 223.8C558.073 223.387 558.424 222.983 558.786 222.588L558.178 222.03C557.806 222.436 557.445 222.851 557.096 223.276L557.733 223.8ZM559.904 221.435C560.287 221.061 560.68 220.698 561.083 220.345L560.539 219.724C560.125 220.087 559.721 220.461 559.327 220.845L559.904 221.435ZM562.319 219.319C562.74 218.989 563.17 218.67 563.609 218.362L563.135 217.686C562.684 218.003 562.242 218.331 561.809 218.67L562.319 219.319ZM564.948 217.476C565.401 217.193 565.863 216.921 566.333 216.662L565.934 215.94C565.451 216.206 564.977 216.485 564.511 216.775L564.948 217.476ZM567.759 215.925C568.24 215.692 568.728 215.472 569.223 215.264L568.904 214.503C568.396 214.716 567.894 214.943 567.4 215.182L567.759 215.925ZM570.721 214.683C571.224 214.504 571.733 214.337 572.248 214.183L572.012 213.392C571.483 213.55 570.96 213.722 570.443 213.906L570.721 214.683ZM573.799 213.765C574.317 213.64 574.841 213.529 575.369 213.431L575.219 212.619C574.676 212.72 574.138 212.835 573.605 212.963L573.799 213.765ZM576.956 213.18C577.484 213.11 578.017 213.055 578.553 213.013L578.489 212.19C577.938 212.233 577.391 212.29 576.848 212.362L576.956 213.18ZM580.158 212.929C580.425 212.922 580.694 212.919 580.963 212.919V212.094C580.687 212.094 580.411 212.097 580.136 212.104L580.158 212.929ZM580.963 212.919C581.233 212.919 581.501 212.922 581.769 212.929L581.79 212.104C581.515 212.097 581.24 212.094 580.963 212.094V212.919ZM583.373 213.013C583.91 213.055 584.443 213.11 584.971 213.18L585.078 212.362C584.536 212.29 583.989 212.233 583.438 212.19L583.373 213.013ZM586.557 213.431C587.086 213.529 587.609 213.64 588.128 213.765L588.321 212.963C587.789 212.835 587.251 212.72 586.708 212.619L586.557 213.431ZM589.679 214.183C590.194 214.337 590.703 214.504 591.206 214.683L591.483 213.906C590.967 213.722 590.444 213.55 589.915 213.392L589.679 214.183ZM592.703 215.264C593.198 215.472 593.687 215.692 594.167 215.925L594.527 215.182C594.033 214.943 593.531 214.716 593.022 214.503L592.703 215.264ZM595.594 216.662C596.064 216.921 596.525 217.193 596.979 217.476L597.416 216.775C596.95 216.485 596.475 216.206 595.993 215.94L595.594 216.662ZM598.318 218.362C598.757 218.67 599.187 218.989 599.608 219.319L600.117 218.67C599.685 218.331 599.243 218.003 598.792 217.686L598.318 218.362ZM600.844 220.345C601.247 220.698 601.64 221.061 602.023 221.435L602.599 220.845C602.206 220.461 601.802 220.087 601.388 219.724L600.844 220.345ZM603.14 222.588C603.502 222.983 603.853 223.387 604.193 223.8L604.831 223.276C604.481 222.851 604.12 222.436 603.748 222.03L603.14 222.588ZM605.178 225.068C605.495 225.5 605.799 225.94 606.092 226.389L606.783 225.938C606.482 225.477 606.169 225.024 605.844 224.58L605.178 225.068ZM606.93 227.757C607.197 228.221 607.451 228.692 607.691 229.17L608.429 228.8C608.181 228.307 607.92 227.822 607.646 227.346L606.93 227.757ZM608.372 230.624C608.585 231.114 608.784 231.611 608.969 232.114L609.744 231.828C609.553 231.311 609.348 230.799 609.129 230.295L608.372 230.624ZM609.481 233.635C609.637 234.145 609.778 234.661 609.906 235.183L610.707 234.987C610.576 234.45 610.431 233.919 610.27 233.394L609.481 233.635ZM610.241 236.751C610.338 237.275 610.42 237.804 610.487 238.337L611.306 238.234C611.237 237.685 611.152 237.141 611.053 236.602L610.241 236.751ZM610.643 239.934C610.662 240.201 610.677 240.468 610.688 240.737L611.512 240.703C611.501 240.427 611.486 240.151 611.467 239.877L610.643 239.934ZM611.1 241.133H611.922V240.308H611.1V241.133ZM613.565 241.133H615.209V240.308H613.565V241.133ZM616.852 241.133H618.496V240.308H616.852V241.133ZM620.139 241.133H621.783V240.308H620.139V241.133ZM623.427 241.133H625.07V240.308H623.427V241.133ZM626.714 241.133H628.357V240.308H626.714V241.133ZM630.001 241.133H631.644V240.308H630.001V241.133ZM633.288 241.133H634.932V240.308H633.288V241.133ZM636.575 241.133H638.219V240.308H636.575V241.133ZM639.862 241.133H641.506V240.308H639.862V241.133ZM643.149 241.133H644.793V240.308H643.149V241.133ZM646.437 241.133H648.08V240.308H646.437V241.133ZM649.724 241.133H651.367V240.308H649.724V241.133ZM653.011 241.133H654.654V240.308H653.011V241.133ZM656.298 241.133H657.942V240.308H656.298V241.133ZM659.585 241.133H661.229V240.308H659.585V241.133ZM662.872 241.133H664.516V240.308H662.872V241.133ZM666.159 241.133H667.803V240.308H666.159V241.133ZM669.447 241.133H671.09V240.308H669.447V241.133ZM672.734 241.133H674.377V240.308H672.734V241.133ZM676.021 241.133H677.665V240.308H676.021V241.133ZM679.308 241.133H680.952V240.308H679.308V241.133ZM682.595 241.133H684.239V240.308H682.595V241.133ZM685.882 241.133H687.526V240.308H685.882V241.133ZM689.169 241.133H690.813V240.308H689.169V241.133ZM692.457 241.133H694.1V240.308H692.457V241.133ZM695.744 241.133H697.387V240.308H695.744V241.133ZM699.031 241.133H700.674V240.308H699.031V241.133ZM702.318 241.133H703.962V240.308H702.318V241.133ZM705.605 241.133H707.249V240.308H705.605V241.133ZM708.892 241.133H710.536V240.308H708.892V241.133ZM712.18 241.133H713.823V240.308H712.18V241.133ZM715.467 241.133H717.11V240.308H715.467V241.133ZM718.754 241.133H720.397V240.308H718.754V241.133ZM722.041 241.133H723.685V240.308H722.041V241.133ZM725.328 241.133H726.972V240.308H725.328V241.133ZM728.615 241.133H730.259V240.308H728.615V241.133ZM731.902 241.133H733.546V240.308H731.902V241.133ZM735.189 241.133H736.833V240.308H735.189V241.133ZM738.477 241.133H740.12V240.308H738.477V241.133ZM741.764 241.133H743.407V240.308H741.764V241.133ZM745.051 241.133H746.694V240.308H745.051V241.133ZM748.338 241.133H749.982V240.308H748.338V241.133ZM751.625 241.133H753.269V240.308H751.625V241.133ZM754.912 241.133H756.556V240.308H754.912V241.133ZM758.199 241.133H759.843V240.308H758.199V241.133ZM761.487 241.133H763.13V240.308H761.487V241.133ZM764.774 241.133H766.417V240.308H764.774V241.133ZM768.061 241.133H769.704V240.308H768.061V241.133ZM771.348 241.133H772.992V240.308H771.348V241.133ZM774.635 241.133H776.279V240.308H774.635V241.133ZM777.922 241.133H779.566V240.308H777.922V241.133ZM781.209 241.133H782.853V240.308H781.209V241.133ZM784.497 241.133H786.14V240.308H784.497V241.133ZM787.784 241.133H789.427V240.308H787.784V241.133ZM791.071 241.133H792.714V240.308H791.071V241.133ZM794.358 241.133H796.002V240.308H794.358V241.133ZM797.645 241.133H799.289V240.308H797.645V241.133ZM800.932 241.133H802.576V240.308H800.932V241.133ZM804.219 241.133H805.863V240.308H804.219V241.133ZM807.507 241.133H809.15V240.308H807.507V241.133ZM810.794 241.133H812.437V240.308H810.794V241.133ZM814.081 241.133H815.724V240.308H814.081V241.133ZM817.368 241.133H819.012V240.308H817.368V241.133ZM820.655 241.133H822.299V240.308H820.655V241.133ZM823.942 241.133H825.586V240.308H823.942V241.133ZM827.229 241.133H828.873V240.308H827.229V241.133ZM830.517 241.133H832.16V240.308H830.517V241.133ZM833.804 241.133H835.447V240.308H833.804V241.133ZM837.091 241.133H838.734V240.308H837.091V241.133ZM840.378 241.133H842.021V240.308H840.378V241.133ZM843.665 241.133H845.309V240.308H843.665V241.133ZM846.952 241.133H848.596V240.308H846.952V241.133ZM850.239 241.133H851.883V240.308H850.239V241.133ZM853.526 241.133H855.17V240.308H853.526V241.133ZM856.814 241.133H858.457V240.308H856.814V241.133ZM860.101 241.133H861.744V240.308H860.101V241.133ZM863.388 241.133H865.031V240.308H863.388V241.133ZM866.675 241.133H868.319V240.308H866.675V241.133ZM869.962 241.133H871.606V240.308H869.962V241.133ZM873.249 241.133H874.893V240.308H873.249V241.133ZM876.537 241.133H878.18V240.308H876.537V241.133ZM879.824 241.133H881.467V240.308H879.824V241.133ZM883.111 241.133H884.754V240.308H883.111V241.133ZM886.398 241.133H888.042V240.308H886.398V241.133ZM889.685 241.133H891.329V240.308H889.685V241.133ZM892.972 241.133H894.616V240.308H892.972V241.133ZM896.26 241.133H897.903V240.308H896.26V241.133ZM899.547 241.133H900.369V240.308H899.547V241.133ZM900.369 241.133C900.646 241.133 900.921 241.128 901.196 241.117L901.164 240.292C900.9 240.302 900.635 240.308 900.369 240.308V241.133ZM902.843 240.989C903.394 240.924 903.938 240.839 904.475 240.732L904.315 239.923C903.799 240.025 903.276 240.107 902.747 240.169L902.843 240.989ZM906.083 240.348C906.616 240.198 907.14 240.027 907.654 239.837L907.369 239.063C906.874 239.246 906.371 239.409 905.859 239.553L906.083 240.348ZM909.181 239.204C909.683 238.973 910.174 238.722 910.653 238.453L910.249 237.733C909.789 237.992 909.317 238.232 908.835 238.455L909.181 239.204ZM912.061 237.588C912.52 237.281 912.965 236.957 913.397 236.616L912.886 235.968C912.471 236.296 912.043 236.607 911.602 236.902L912.061 237.588ZM914.653 235.542C915.058 235.168 915.448 234.778 915.822 234.374L915.216 233.813C914.856 234.202 914.482 234.577 914.093 234.936L914.653 235.542ZM916.895 233.118C917.236 232.686 917.561 232.24 917.868 231.782L917.182 231.323C916.887 231.763 916.575 232.191 916.247 232.606L916.895 233.118ZM918.732 230.374C919.001 229.894 919.252 229.403 919.484 228.902L918.734 228.556C918.512 229.038 918.271 229.509 918.013 229.97L918.732 230.374ZM920.117 227.375C920.307 226.86 920.477 226.336 920.627 225.803L919.833 225.58C919.689 226.091 919.525 226.595 919.343 227.089L920.117 227.375ZM921.012 224.196C921.118 223.659 921.204 223.114 921.268 222.564L920.449 222.468C920.387 222.997 920.304 223.52 920.202 224.035L921.012 224.196ZM921.396 220.916C921.407 220.642 921.412 220.366 921.412 220.089H920.587C920.587 220.355 920.582 220.621 920.572 220.884L921.396 220.916ZM921.412 220.089V219.257H920.587V220.089H921.412ZM921.412 217.592V215.927H920.587V217.592H921.412ZM921.412 214.263V212.598H920.587V214.263H921.412ZM921.412 210.933V209.269H920.587V210.933H921.412ZM921.412 207.604V205.939H920.587V207.604H921.412ZM921.412 204.275V202.61H920.587V204.275H921.412ZM921.412 200.945V199.28H920.587V200.945H921.412ZM921.412 197.616V195.951H920.587V197.616H921.412ZM921.412 194.286V192.622H920.587V194.286H921.412ZM921.412 190.957V189.292H920.587V190.957H921.412ZM921.412 187.628V185.963H920.587V187.628H921.412ZM921.412 184.298V182.633H920.587V184.298H921.412ZM921.412 180.969V179.304H920.587V180.969H921.412ZM921.412 177.639V175.975H920.587V177.639H921.412ZM921.412 174.31V172.645H920.587V174.31H921.412ZM921.412 170.981V169.316H920.587V170.981H921.412ZM921.412 167.651V165.986H920.587V167.651H921.412ZM921.412 164.322V162.657H920.587V164.322H921.412ZM921.412 160.992V159.328H920.587V160.992H921.412ZM921.412 157.663V155.998H920.587V157.663H921.412ZM921.412 154.334V152.669H920.587V154.334H921.412ZM921.412 151.004V149.339H920.587V151.004H921.412ZM921.412 147.675V146.01H920.587V147.675H921.412ZM921.412 144.345V142.681H920.587V144.345H921.412ZM921.412 141.016V139.351H920.587V141.016H921.412ZM921.412 137.687V136.022H920.587V137.687H921.412ZM921.412 134.357V132.693H920.587V134.357H921.412ZM921.412 131.028V129.363H920.587V131.028H921.412ZM921.412 127.698V126.034H920.587V127.698H921.412ZM921.412 124.369V122.704H920.587V124.369H921.412ZM921.412 121.04V119.375H920.587V121.04H921.412ZM921.412 117.71V116.046H920.587V117.71H921.412ZM921.412 114.381V112.716H920.587V114.381H921.412ZM921.412 111.051V109.387H920.587V111.051H921.412ZM921.412 107.722V106.057H920.587V107.722H921.412ZM921.412 104.393V102.728H920.587V104.393H921.412ZM921.412 101.063V99.3986H920.587V101.063H921.412ZM921.412 97.7339V96.0692H920.587V97.7339H921.412ZM921.412 94.4045V92.7398H920.587V94.4045H921.412ZM921.412 91.0751V89.4104H920.587V91.0751H921.412ZM921.412 87.7457V86.081H920.587V87.7457H921.412ZM921.412 84.4163V82.7516H920.587V84.4163H921.412ZM921.412 81.0869V79.4222H920.587V81.0869H921.412ZM921.412 77.7575V76.0928H920.587V77.7575H921.412ZM921.412 74.4281V72.7634H920.587V74.4281H921.412ZM921.412 71.0987V69.434H920.587V71.0987H921.412ZM921.412 67.7693V66.1045H920.587V67.7693H921.412ZM921.412 64.4398V62.7751H920.587V64.4398H921.412ZM921.412 61.1104V59.4457H920.587V61.1104H921.412ZM921.412 57.781V56.1163H920.587V57.781H921.412ZM921.412 54.4516V52.7869H920.587V54.4516H921.412ZM921.412 51.1222V49.4575H920.587V51.1222H921.412ZM921.412 47.7928V46.1281H920.587V47.7928H921.412ZM921.412 44.4634V43.6311H920.587V44.4634H921.412ZM921.412 43.6311C921.412 43.3541 921.407 43.0784 921.396 42.804L920.572 42.8358C920.582 43.0996 920.587 43.3647 920.587 43.6311H921.412ZM921.268 41.1566C921.204 40.6059 921.118 40.0616 921.012 39.5246L920.202 39.6847C920.304 40.2006 920.387 40.7235 920.449 41.2527L921.268 41.1566ZM920.627 37.9169C920.477 37.3842 920.307 36.8601 920.117 36.3455L919.343 36.6312C919.525 37.1255 919.689 37.6289 919.833 38.1405L920.627 37.9169ZM919.484 34.8185C919.252 34.3169 919.001 33.8259 918.732 33.3466L918.013 33.7505C918.271 34.211 918.512 34.6826 918.734 35.1644L919.484 34.8185ZM917.868 31.9386C917.561 31.4801 917.236 31.0344 916.895 30.6024L916.247 31.1138C916.575 31.5289 916.887 31.9572 917.182 32.3977L917.868 31.9386ZM915.822 29.3465C915.448 28.942 915.058 28.5522 914.653 28.1781L914.093 28.784C914.482 29.1435 914.856 29.5181 915.216 29.9068L915.822 29.3465ZM913.397 27.1045C912.965 26.7635 912.52 26.439 912.061 26.1321L911.602 26.8179C912.043 27.1128 912.471 27.4245 912.886 27.7522L913.397 27.1045ZM910.653 25.2674C910.174 24.9984 909.683 24.7477 909.181 24.516L908.835 25.2653C909.317 25.4878 909.789 25.7287 910.249 25.9871L910.653 25.2674ZM907.654 23.8828C907.14 23.6929 906.616 23.5225 906.083 23.3726L905.859 24.1669C906.371 24.311 906.874 24.4746 907.369 24.657L907.654 23.8828ZM904.475 22.9879C903.938 22.8817 903.394 22.7959 902.843 22.7314L902.747 23.551C903.276 23.613 903.799 23.6954 904.315 23.7975L904.475 22.9879ZM901.196 22.6033C900.921 22.5927 900.646 22.5874 900.369 22.5874V23.4126C900.635 23.4126 900.9 23.4178 901.164 23.428L901.196 22.6033ZM900.369 22.5874H899.547V23.4126H900.369V22.5874ZM897.903 22.5874H896.259V23.4126H897.903V22.5874ZM894.616 22.5874H892.972V23.4126H894.616V22.5874ZM891.328 22.5874H889.685V23.4126H891.328V22.5874ZM888.041 22.5874H886.397V23.4126H888.041V22.5874ZM884.753 22.5874H883.11V23.4126H884.753V22.5874ZM881.466 22.5874H879.822V23.4126H881.466V22.5874ZM878.179 22.5874H876.535V23.4126H878.179V22.5874ZM874.891 22.5874H873.248V23.4126H874.891V22.5874ZM871.604 22.5874H869.96V23.4126H871.604V22.5874ZM868.316 22.5874H866.673V23.4126H868.316V22.5874ZM865.029 22.5874H863.385V23.4126H865.029V22.5874ZM861.742 22.5874H860.098V23.4126H861.742V22.5874ZM858.454 22.5874H856.811V23.4126H858.454V22.5874ZM855.167 22.5874H853.523V23.4126H855.167V22.5874ZM851.879 22.5874H850.236V23.4126H851.879V22.5874ZM848.592 22.5874H846.948V23.4126H848.592V22.5874ZM845.305 22.5874H843.661V23.4126H845.305V22.5874ZM842.017 22.5874H840.374V23.4126H842.017V22.5874ZM838.73 22.5874H837.086V23.4126H838.73V22.5874ZM835.443 22.5874H833.799V23.4126H835.443V22.5874ZM832.155 22.5874H830.511V23.4126H832.155V22.5874ZM828.868 22.5874H827.224V23.4126H828.868V22.5874ZM825.58 22.5874H823.937V23.4126H825.58V22.5874ZM822.293 22.5874H820.649V23.4126H822.293V22.5874ZM819.005 22.5874H817.362V23.4126H819.005V22.5874ZM815.718 22.5874H814.074V23.4126H815.718V22.5874ZM812.431 22.5874H810.787V23.4126H812.431V22.5874ZM809.143 22.5874H807.5V23.4126H809.143V22.5874ZM805.856 22.5874H804.212V23.4126H805.856V22.5874ZM802.568 22.5874H800.925V23.4126H802.568V22.5874ZM799.281 22.5874H797.637V23.4126H799.281V22.5874ZM795.994 22.5874H794.35V23.4126H795.994V22.5874ZM792.706 22.5874H791.063V23.4126H792.706V22.5874ZM789.419 22.5874H787.775V23.4126H789.419V22.5874ZM786.132 22.5874H784.488V23.4126H786.132V22.5874ZM782.844 22.5874H781.2V23.4126H782.844V22.5874ZM779.557 22.5874H777.913V23.4126H779.557V22.5874ZM776.269 22.5874H774.626V23.4126H776.269V22.5874ZM772.982 22.5874H771.338V23.4126H772.982V22.5874ZM769.694 22.5874H768.051V23.4126H769.694V22.5874ZM766.407 22.5874H764.763V23.4126H766.407V22.5874ZM763.12 22.5874H761.476V23.4126H763.12V22.5874ZM759.832 22.5874H758.189V23.4126H759.832V22.5874ZM756.545 22.5874H754.901V23.4126H756.545V22.5874ZM753.257 22.5874H751.614V23.4126H753.257V22.5874ZM749.97 22.5874H748.326V23.4126H749.97V22.5874ZM746.683 22.5874H745.039V23.4126H746.683V22.5874ZM743.395 22.5874H741.751V23.4126H743.395V22.5874ZM740.108 22.5874H738.464V23.4126H740.108V22.5874ZM736.82 22.5874H735.177V23.4126H736.82V22.5874ZM733.533 22.5874H731.889V23.4126H733.533V22.5874ZM730.245 22.5874H728.602V23.4126H730.245V22.5874ZM726.958 22.5874H725.314V23.4126H726.958V22.5874ZM723.671 22.5874H722.027V23.4126H723.671V22.5874ZM720.383 22.5874H718.74V23.4126H720.383V22.5874ZM717.096 22.5874H715.452V23.4126H717.096V22.5874ZM713.808 22.5874H712.165V23.4126H713.808V22.5874ZM710.521 22.5874H708.877V23.4126H710.521V22.5874ZM707.234 22.5874H705.59V23.4126H707.234V22.5874ZM703.946 22.5874H702.302V23.4126H703.946V22.5874ZM700.659 22.5874H699.015V23.4126H700.659V22.5874ZM697.371 22.5874H695.728V23.4126H697.371V22.5874ZM694.084 22.5874H692.44V23.4126H694.084V22.5874ZM690.797 22.5874H689.153V23.4126H690.797V22.5874ZM687.509 22.5874H685.865V23.4126H687.509V22.5874ZM684.222 22.5874H682.578V23.4126H684.222V22.5874ZM680.934 22.5874H679.291V23.4126H680.934V22.5874ZM677.647 22.5874H676.003V23.4126H677.647V22.5874ZM674.359 22.5874H672.716V23.4126H674.359V22.5874ZM671.072 22.5874H669.428V23.4126H671.072V22.5874ZM667.785 22.5874H666.141V23.4126H667.785V22.5874ZM664.497 22.5874H662.854V23.4126H664.497V22.5874ZM661.21 22.5874H659.566V23.4126H661.21V22.5874ZM657.922 22.5874H656.279V23.4126H657.922V22.5874ZM654.635 22.5874H652.991V23.4126H654.635V22.5874ZM651.348 22.5874H649.704V23.4126H651.348V22.5874ZM648.06 22.5874H646.416V23.4126H648.06V22.5874ZM644.773 22.5874H643.129V23.4126H644.773V22.5874ZM641.485 22.5874H639.842V23.4126H641.485V22.5874ZM638.198 22.5874H636.554V23.4126H638.198V22.5874ZM634.911 22.5874H633.267V23.4126H634.911V22.5874ZM631.623 22.5874H629.979V23.4126H631.623V22.5874ZM628.336 22.5874H626.692V23.4126H628.336V22.5874ZM625.048 22.5874H623.405V23.4126H625.048V22.5874ZM621.761 22.5874H620.117V23.4126H621.761V22.5874ZM618.473 22.5874H616.83V23.4126H618.473V22.5874ZM615.186 22.5874H613.542V23.4126H615.186V22.5874ZM611.899 22.5874H611.077V23.4126H611.899V22.5874ZM610.665 22.9766C610.65 23.2423 610.631 23.507 610.609 23.7708L611.431 23.8406C611.454 23.5692 611.474 23.2968 611.489 23.0234L610.665 22.9766ZM610.43 25.3492C610.356 25.8757 610.267 26.3977 610.164 26.9148L610.973 27.0763C611.079 26.5441 611.171 26.0068 611.248 25.4649L610.43 25.3492ZM609.809 28.4628C609.676 28.9772 609.529 29.4861 609.368 29.9891L610.154 30.2405C610.319 29.7228 610.471 29.1991 610.608 28.6697L609.809 28.4628ZM608.841 31.4882C608.651 31.9839 608.448 32.4731 608.231 32.9554L608.984 33.2933C609.207 32.7969 609.416 32.2935 609.612 31.7835L608.841 31.4882ZM607.541 34.3863C607.297 34.8573 607.041 35.3209 606.772 35.7767L607.483 36.1959C607.759 35.727 608.023 35.2501 608.274 34.7656L607.541 34.3863ZM605.927 37.1227C605.633 37.5637 605.327 37.9964 605.01 38.4205L605.67 38.9151C605.997 38.479 606.311 38.034 606.614 37.5804L605.927 37.1227ZM604.023 39.6665C603.683 40.0726 603.332 40.4697 602.97 40.8572L603.573 41.4204C603.945 41.022 604.306 40.6138 604.656 40.1962L604.023 39.6665ZM601.854 41.9894C601.472 42.3564 601.08 42.7135 600.679 43.0602L601.218 43.6848C601.631 43.3285 602.034 42.9615 602.426 42.5842L601.854 41.9894ZM599.448 44.0666C599.029 44.3906 598.602 44.7038 598.165 45.0059L598.635 45.6845C599.083 45.3741 599.523 45.0522 599.953 44.7192L599.448 44.0666ZM596.834 45.8754C596.384 46.1529 595.925 46.4189 595.459 46.673L595.854 47.3976C596.333 47.1365 596.804 46.8632 597.267 46.578L596.834 45.8754ZM594.043 47.3965C593.566 47.6245 593.082 47.8404 592.591 48.0439L592.907 48.8062C593.411 48.5972 593.909 48.3753 594.399 48.141L594.043 47.3965ZM591.106 48.6134C590.608 48.7895 590.104 48.9531 589.593 49.1036L589.827 49.8951C590.351 49.7405 590.869 49.5724 591.381 49.3915L591.106 48.6134ZM588.057 49.5131C587.544 49.6355 587.025 49.7449 586.501 49.841L586.65 50.6527C587.188 50.554 587.721 50.4416 588.248 50.3158L588.057 49.5131ZM584.931 50.0869C584.408 50.1548 583.88 50.2095 583.349 50.2506L583.413 51.0734C583.958 51.0312 584.5 50.9751 585.037 50.9053L584.931 50.0869ZM581.761 50.3323C581.496 50.3391 581.23 50.3425 580.963 50.3425V51.1677C581.237 51.1677 581.51 51.1642 581.782 51.1573L581.761 50.3323ZM580.963 50.3425C580.697 50.3425 580.431 50.3391 580.166 50.3323L580.145 51.1573C580.417 51.1642 580.69 51.1677 580.963 51.1677V50.3425ZM578.578 50.2506C578.046 50.2095 577.519 50.1548 576.996 50.0869L576.89 50.9053C577.427 50.9751 577.968 51.0312 578.514 51.0734L578.578 50.2506ZM575.425 49.841C574.902 49.7449 574.383 49.6355 573.87 49.5131L573.678 50.3158C574.206 50.4416 574.738 50.554 575.276 50.6527L575.425 49.841ZM572.333 49.1036C571.823 48.9531 571.318 48.7895 570.82 48.6134L570.545 49.3915C571.057 49.5724 571.575 49.7405 572.1 49.8951L572.333 49.1036ZM569.335 48.0439C568.844 47.8404 568.36 47.6245 567.883 47.3965L567.527 48.141C568.017 48.3753 568.515 48.5972 569.02 48.8063L569.335 48.0439ZM566.467 46.673C566.001 46.4189 565.542 46.1529 565.092 45.8754L564.659 46.578C565.122 46.8632 565.593 47.1365 566.072 47.3976L566.467 46.673ZM563.761 45.0059C563.325 44.7038 562.897 44.3906 562.478 44.0666L561.973 44.7192C562.404 45.0522 562.843 45.3741 563.292 45.6845L563.761 45.0059ZM561.248 43.0602C560.846 42.7135 560.454 42.3564 560.072 41.9894L559.5 42.5842C559.893 42.9615 560.296 43.3285 560.708 43.6848L561.248 43.0602ZM558.957 40.8572C558.595 40.4697 558.244 40.0726 557.904 39.6665L557.271 40.1962C557.621 40.6139 557.982 41.022 558.354 41.4204L558.957 40.8572ZM556.917 38.4205C556.599 37.9964 556.293 37.5637 555.999 37.1227L555.313 37.5804C555.615 38.034 555.93 38.479 556.256 38.9151L556.917 38.4205ZM555.155 35.7767C554.886 35.3209 554.629 34.8573 554.386 34.3863L553.653 34.7656C553.904 35.2501 554.167 35.7271 554.444 36.196L555.155 35.7767ZM553.695 32.9554C553.479 32.4731 553.275 31.9839 553.085 31.4882L552.315 31.7835C552.51 32.2935 552.719 32.797 552.942 33.2933L553.695 32.9554ZM552.559 29.9891C552.398 29.4861 552.251 28.9772 552.117 28.4628L551.319 28.6697C551.456 29.1991 551.607 29.7228 551.773 30.2405L552.559 29.9891ZM551.763 26.9148C551.66 26.3977 551.571 25.8757 551.496 25.3492L550.679 25.4649C550.756 26.0068 550.847 26.5441 550.954 27.0763L551.763 26.9148ZM551.317 23.7708C551.295 23.507 551.276 23.2423 551.261 22.9766L550.437 23.0234C550.453 23.2968 550.472 23.5692 550.495 23.8406L551.317 23.7708ZM550.849 23L551.673 22.9532L551.629 22.1748H550.849V23ZM611.077 23V22.1748H610.298L610.253 22.9532L611.077 23ZM611.1 240.72L610.275 240.754L610.308 241.546H611.1V240.72ZM550.827 240.72V241.546H551.619L551.651 240.754L550.827 240.72ZM550.849 22.1748H550.024V23.8252H550.849V22.1748ZM548.375 22.1748H546.726V23.8252H548.375V22.1748ZM545.076 22.1748H543.427V23.8252H545.076V22.1748ZM541.778 22.1748H540.128V23.8252H541.778V22.1748ZM538.479 22.1748H536.829V23.8252H538.479V22.1748ZM535.18 22.1748H533.531V23.8252H535.18V22.1748ZM531.881 22.1748H530.232V23.8252H531.881V22.1748ZM528.583 22.1748H526.933V23.8252H528.583V22.1748ZM525.284 22.1748H523.634V23.8252H525.284V22.1748ZM521.985 22.1748H520.336V23.8252H521.985V22.1748ZM518.686 22.1748H517.037V23.8252H518.686V22.1748ZM515.387 22.1748H513.738V23.8252H515.387V22.1748ZM512.089 22.1748H510.439V23.8252H512.089V22.1748ZM508.79 22.1748H507.141V23.8252H508.79V22.1748ZM505.491 22.1748H503.842V23.8252H505.491V22.1748ZM502.192 22.1748H500.543V23.8252H502.192V22.1748ZM498.894 22.1748H497.244V23.8252H498.894V22.1748ZM495.595 22.1748H493.945V23.8252H495.595V22.1748ZM492.296 22.1748H490.647V23.8252H492.296V22.1748ZM488.997 22.1748H487.348V23.8252H488.997V22.1748ZM485.699 22.1748H484.049V23.8252H485.699V22.1748ZM482.4 22.1748H480.75V23.8252H482.4V22.1748ZM479.101 22.1748H477.452V23.8252H479.101V22.1748ZM475.802 22.1748H474.153V23.8252H475.802V22.1748ZM472.503 22.1748H470.854V23.8252H472.503V22.1748ZM469.205 22.1748H467.555V23.8252H469.205V22.1748ZM465.906 22.1748H464.257V23.8252H465.906V22.1748ZM462.607 22.1748H460.958V23.8252H462.607V22.1748ZM459.308 22.1748H457.659V23.8252H459.308V22.1748ZM456.01 22.1748H454.36V23.8252H456.01V22.1748ZM452.711 22.1748H451.061V23.8252H452.711V22.1748ZM449.412 22.1748H447.763V23.8252H449.412V22.1748ZM446.113 22.1748H444.464V23.8252H446.113V22.1748ZM442.815 22.1748H441.165V23.8252H442.815V22.1748ZM439.516 22.1748H437.866V23.8252H439.516V22.1748ZM436.217 22.1748H434.568V23.8252H436.217V22.1748ZM432.918 22.1748H431.269V23.8252H432.918V22.1748ZM429.62 22.1748H427.97V23.8252H429.62V22.1748ZM426.321 22.1748H424.671V23.8252H426.321V22.1748ZM423.022 22.1748H421.373V23.8252H423.022V22.1748ZM419.723 22.1748H418.074V23.8252H419.723V22.1748ZM416.424 22.1748H414.775V23.8252H416.424V22.1748ZM413.126 22.1748H411.476V23.8252H413.126V22.1748ZM409.827 22.1748H408.178V23.8252H409.827V22.1748ZM406.528 22.1748H404.879V23.8252H406.528V22.1748ZM403.229 22.1748H401.58V23.8252H403.229V22.1748ZM399.931 22.1748H398.281V23.8252H399.931V22.1748ZM396.632 22.1748H394.982V23.8252H396.632V22.1748ZM393.333 22.1748H391.684V23.8252H393.333V22.1748ZM390.034 22.1748H388.385V23.8252H390.034V22.1748ZM386.736 22.1748H385.086V23.8252H386.736V22.1748ZM383.437 22.1748H381.787V23.8252H383.437V22.1748ZM380.138 22.1748H378.489V23.8252H380.138V22.1748ZM376.839 22.1748H375.19V23.8252H376.839V22.1748ZM373.54 22.1748H371.891V23.8252H373.54V22.1748ZM370.242 22.1748H368.592V23.8252H370.242V22.1748ZM366.943 22.1748H365.294V23.8252H366.943V22.1748ZM363.644 22.1748H361.995V23.8252H363.644V22.1748ZM360.345 22.1748H358.696V23.8252H360.345V22.1748ZM357.047 22.1748H355.397V23.8252H357.047V22.1748ZM353.748 22.1748H352.098V23.8252H353.748V22.1748ZM350.449 22.1748H348.8V23.8252H350.449V22.1748ZM347.15 22.1748H345.501V23.8252H347.15V22.1748ZM343.852 22.1748H342.202V23.8252H343.852V22.1748ZM340.553 22.1748H338.903V23.8252H340.553V22.1748ZM337.254 22.1748H335.605V23.8252H337.254V22.1748ZM333.955 22.1748H332.306V23.8252H333.955V22.1748ZM330.656 22.1748H329.007V23.8252H330.656V22.1748ZM327.358 22.1748H325.708V23.8252H327.358V22.1748ZM324.059 22.1748H322.41V23.8252H324.059V22.1748ZM320.76 22.1748H319.111V23.8252H320.76V22.1748ZM317.461 22.1748H315.812V23.8252H317.461V22.1748ZM314.163 22.1748H312.513V23.8252H314.163V22.1748ZM310.864 22.1748H309.215V23.8252H310.864V22.1748ZM307.565 22.1748H305.916V23.8252H307.565V22.1748ZM304.266 22.1748H302.617V23.8252H304.266V22.1748ZM300.968 22.1748H299.318V23.8252H300.968V22.1748ZM297.669 22.1748H296.019V23.8252H297.669V22.1748ZM294.37 22.1748H292.721V23.8252H294.37V22.1748ZM291.071 22.1748H289.422V23.8252H291.071V22.1748ZM287.773 22.1748H286.123V23.8252H287.773V22.1748ZM284.474 22.1748H282.824V23.8252H284.474V22.1748ZM281.175 22.1748H279.526V23.8252H281.175V22.1748ZM277.876 22.1748H276.227V23.8252H277.876V22.1748ZM274.577 22.1748H272.928V23.8252H274.577V22.1748ZM271.279 22.1748H269.629V23.8252H271.279V22.1748ZM267.98 22.1748H266.331V23.8252H267.98V22.1748ZM264.681 22.1748H263.032V23.8252H264.681V22.1748ZM261.382 22.1748H259.733V23.8252H261.382V22.1748ZM258.084 22.1748H256.434V23.8252H258.084V22.1748ZM254.785 22.1748H253.135V23.8252H254.785V22.1748ZM251.486 22.1748H249.837V23.8252H251.486V22.1748ZM248.187 22.1748H246.538V23.8252H248.187V22.1748ZM244.889 22.1748H243.239V23.8252H244.889V22.1748ZM241.59 22.1748H239.94V23.8252H241.59V22.1748ZM238.291 22.1748H236.642V23.8252H238.291V22.1748ZM234.992 22.1748H233.343V23.8252H234.992V22.1748ZM231.693 22.1748H230.044V23.8252H231.693V22.1748ZM228.395 22.1748H226.745V23.8252H228.395V22.1748ZM225.096 22.1748H223.447V23.8252H225.096V22.1748ZM221.797 22.1748H220.148V23.8252H221.797V22.1748ZM218.498 22.1748H216.849V23.8252H218.498V22.1748ZM215.2 22.1748H213.55V23.8252H215.2V22.1748ZM211.901 22.1748H210.252V23.8252H211.901V22.1748ZM208.602 22.1748H206.953V23.8252H208.602V22.1748ZM205.303 22.1748H203.654V23.8252H205.303V22.1748ZM202.005 22.1748H200.355V23.8252H202.005V22.1748ZM198.706 22.1748H197.056V23.8252H198.706V22.1748ZM195.407 22.1748H193.758V23.8252H195.407V22.1748ZM192.108 22.1748H190.459V23.8252H192.108V22.1748ZM188.81 22.1748H187.16V23.8252H188.81V22.1748ZM185.511 22.1748H183.861V23.8252H185.511V22.1748ZM182.212 22.1748H180.563V23.8252H182.212V22.1748ZM178.913 22.1748H177.264V23.8252H178.913V22.1748ZM175.614 22.1748H173.965V23.8252H175.614V22.1748ZM172.316 22.1748H170.666V23.8252H172.316V22.1748ZM169.017 22.1748H167.368V23.8252H169.017V22.1748ZM165.718 22.1748H164.069V23.8252H165.718V22.1748ZM162.419 22.1748H160.77V23.8252H162.419V22.1748ZM159.121 22.1748H157.471V23.8252H159.121V22.1748ZM155.822 22.1748H154.172V23.8252H155.822V22.1748ZM152.523 22.1748H150.874V23.8252H152.523V22.1748ZM149.224 22.1748H147.575V23.8252H149.224V22.1748ZM145.926 22.1748H144.276V23.8252H145.926V22.1748ZM142.627 22.1748H140.977V23.8252H142.627V22.1748ZM139.328 22.1748H137.679V23.8252H139.328V22.1748ZM136.029 22.1748H134.38V23.8252H136.029V22.1748ZM132.73 22.1748H131.081V23.8252H132.73V22.1748ZM129.432 22.1748H127.782V23.8252H129.432V22.1748ZM126.133 22.1748H124.484V23.8252H126.133V22.1748ZM122.834 22.1748H121.185V23.8252H122.834V22.1748ZM119.535 22.1748H117.886V23.8252H119.535V22.1748ZM116.237 22.1748H114.587V23.8252H116.237V22.1748ZM112.938 22.1748H111.288V23.8252H112.938V22.1748ZM109.639 22.1748H107.99V23.8252H109.639V22.1748ZM106.34 22.1748H104.691V23.8252H106.34V22.1748ZM103.042 22.1748H101.392V23.8252H103.042V22.1748ZM99.7428 22.1748H98.0934V23.8252H99.7428V22.1748ZM96.444 22.1748H94.7947V23.8252H96.444V22.1748ZM93.1452 22.1748H91.4959V23.8252H93.1452V22.1748ZM89.8465 22.1748H88.1971V23.8252H89.8465V22.1748ZM86.5477 22.1748H84.8983V23.8252H86.5477V22.1748ZM83.249 22.1748H81.5996V23.8252H83.249V22.1748ZM79.9502 22.1748H78.3008V23.8252H79.9502V22.1748ZM76.6514 22.1748H75.002V23.8252H76.6514V22.1748ZM73.3527 22.1748H71.7033V23.8252H73.3527V22.1748ZM70.0539 22.1748H68.4045V23.8252H70.0539V22.1748ZM66.7551 22.1748H65.1058V23.8252H66.7551V22.1748ZM63.4563 22.1748H61.807V23.8252H63.4563V22.1748ZM60.1576 22.1748H58.5082V23.8252H60.1576V22.1748ZM56.8588 22.1748H55.2094V23.8252H56.8588V22.1748ZM53.5601 22.1748H51.9107V23.8252H53.5601V22.1748ZM50.2613 22.1748H49.4367V23.8252H50.2613V22.1748ZM49.4367 22.1748C49.1545 22.1748 48.8734 22.1802 48.5937 22.191L48.6574 23.8403C48.9159 23.8303 49.1757 23.8252 49.4367 23.8252V22.1748ZM46.9143 22.3215C46.3527 22.3873 45.7978 22.4748 45.2502 22.5831L45.5705 24.2022C46.0757 24.1023 46.5879 24.0216 47.1063 23.9608L46.9143 22.3215ZM43.6107 22.9754C43.0675 23.1283 42.5331 23.3021 42.0083 23.4957L42.5797 25.0441C43.0638 24.8655 43.5569 24.7052 44.058 24.5641L43.6107 22.9754ZM40.4511 24.1414C39.9397 24.3776 39.4391 24.6333 38.9504 24.9076L39.7581 26.3469C40.2092 26.0938 40.6711 25.8578 41.1431 25.6399L40.4511 24.1414ZM37.5147 25.7892C37.0473 26.1022 36.5929 26.433 36.1524 26.7806L37.1751 28.0761C37.5818 27.7551 38.0014 27.4496 38.4329 27.1607L37.5147 25.7892ZM34.872 27.8752C34.4596 28.2566 34.0623 28.654 33.6809 29.0664L34.8926 30.187C35.2448 29.8062 35.6118 29.4392 35.9927 29.0869L34.872 27.8752ZM32.5863 30.3468C32.2386 30.7872 31.9078 31.2416 31.5949 31.709L32.9664 32.6272C33.2553 32.1957 33.5607 31.7761 33.8818 31.3694L32.5863 30.3468ZM30.7133 33.1447C30.439 33.6334 30.1833 34.134 29.9471 34.6455L31.4455 35.3374C31.6635 34.8655 31.8994 34.4035 32.1526 33.9525L30.7133 33.1447ZM29.3014 36.2026C29.1077 36.7274 28.934 37.2619 28.7811 37.8051L30.3698 38.2523C30.5108 37.7512 30.6711 37.2582 30.8498 36.7741L29.3014 36.2026ZM28.3888 39.4445C28.2805 39.9921 28.193 40.5471 28.1272 41.1086L29.7665 41.3007C29.8272 40.7823 29.908 40.2701 30.0079 39.7648L28.3888 39.4445ZM27.9967 42.788C27.9859 43.0677 27.9804 43.3488 27.9804 43.6311H29.6309C29.6309 43.3701 29.636 43.1103 29.6459 42.8518L27.9967 42.788ZM27.9804 43.6311V44.4634H29.6309V43.6311H27.9804ZM27.9804 46.1281V47.7928H29.6309V46.1281H27.9804ZM27.9804 49.4575V51.1222H29.6309V49.4575H27.9804ZM27.9804 52.7869V54.4516H29.6309V52.7869H27.9804ZM27.9804 56.1163V57.781H29.6309V56.1163H27.9804ZM27.9804 59.4457V61.1104H29.6309V59.4457H27.9804ZM27.9804 62.7751V64.4398H29.6309V62.7751H27.9804ZM27.9804 66.1045V67.7692H29.6309V66.1045H27.9804ZM27.9804 69.4339V71.0986H29.6309V69.4339H27.9804ZM27.9804 72.7633V74.428H29.6309V72.7633H27.9804ZM27.9804 76.0927V77.7574H29.6309V76.0927H27.9804ZM27.9804 79.4221V81.0868H29.6309V79.4221H27.9804ZM27.9804 82.7515V84.4162H29.6309V82.7515H27.9804ZM27.9804 86.0809V87.7456H29.6309V86.0809H27.9804ZM27.9804 89.4103V91.075H29.6309V89.4103H27.9804ZM27.9804 92.7397V94.4044H29.6309V92.7397H27.9804ZM27.9804 96.0691V97.7338H29.6309V96.0691H27.9804ZM27.9804 99.3985V101.063H29.6309V99.3985H27.9804ZM27.9804 102.728V104.393H29.6309V102.728H27.9804ZM27.9804 106.057V107.722H29.6309V106.057H27.9804ZM27.9804 109.387V111.051H29.6309V109.387H27.9804ZM27.9804 112.716V114.381H29.6309V112.716H27.9804ZM27.9804 116.045V117.71H29.6309V116.045H27.9804ZM27.9804 119.375V121.04H29.6309V119.375H27.9804ZM27.9804 122.704V124.369H29.6309V122.704H27.9804ZM27.9804 126.034V127.698H29.6309V126.034H27.9804ZM27.9804 129.363V131.028H29.6309V129.363H27.9804ZM27.9804 132.692V134.357H29.6309V132.692H27.9804ZM27.9804 136.022V137.687H29.6309V136.022H27.9804ZM27.9804 139.351V141.016H29.6309V139.351H27.9804ZM27.9804 142.681V144.345H29.6309V142.681H27.9804ZM27.9804 146.01V147.675H29.6309V146.01H27.9804ZM27.9804 149.339V151.004H29.6309V149.339H27.9804ZM27.9804 152.669V154.333H29.6309V152.669H27.9804ZM27.9804 155.998V157.663H29.6309V155.998H27.9804ZM27.9804 159.328V160.992H29.6309V159.328H27.9804ZM27.9804 162.657V164.322H29.6309V162.657H27.9804ZM27.9804 165.986V167.651H29.6309V165.986H27.9804ZM27.9804 169.316V170.98H29.6309V169.316H27.9804ZM27.9804 172.645V174.31H29.6309V172.645H27.9804ZM27.9804 175.975V177.639H29.6309V175.975H27.9804ZM27.9804 179.304V180.969H29.6309V179.304H27.9804ZM27.9804 182.633V184.298H29.6309V182.633H27.9804ZM27.9804 185.963V187.627H29.6309V185.963H27.9804ZM27.9804 189.292V190.957H29.6309V189.292H27.9804ZM27.9804 192.622V194.286H29.6309V192.622H27.9804ZM27.9804 195.951V197.616H29.6309V195.951H27.9804ZM27.9804 199.28V200.945H29.6309V199.28H27.9804ZM27.9804 202.61V204.275H29.6309V202.61H27.9804ZM27.9804 205.939V207.604H29.6309V205.939H27.9804ZM27.9804 209.269V210.933H29.6309V209.269H27.9804ZM27.9804 212.598V214.263H29.6309V212.598H27.9804ZM27.9804 215.927V217.592H29.6309V215.927H27.9804ZM27.9804 219.257V220.089H29.6309V219.257H27.9804ZM27.9804 220.089C27.9804 220.371 27.9859 220.653 27.9967 220.932L29.6459 220.868C29.636 220.61 29.6309 220.35 29.6309 220.089H27.9804ZM28.1272 222.612C28.193 223.173 28.2805 223.728 28.3888 224.276L30.0079 223.955C29.908 223.45 29.8272 222.938 29.7665 222.42L28.1272 222.612ZM28.7811 225.915C28.934 226.458 29.1077 226.993 29.3014 227.518L30.8498 226.946C30.6711 226.462 30.5108 225.969 30.3698 225.468L28.7811 225.915ZM29.9471 229.075C30.1833 229.586 30.439 230.087 30.7133 230.576L32.1526 229.768C31.8994 229.317 31.6635 228.855 31.4455 228.383L29.9471 229.075ZM31.5949 232.011C31.9078 232.479 32.2386 232.933 32.5863 233.373L33.8818 232.351C33.5607 231.944 33.2553 231.525 32.9664 231.093L31.5949 232.011ZM33.6809 234.654C34.0623 235.066 34.4596 235.464 34.872 235.845L35.9927 234.633C35.6118 234.281 35.2448 233.914 34.8926 233.533L33.6809 234.654ZM36.1524 236.94C36.5929 237.287 37.0473 237.618 37.5147 237.931L38.4329 236.56C38.0014 236.271 37.5818 235.965 37.1751 235.644L36.1524 236.94ZM38.9504 238.813C39.4391 239.087 39.9397 239.343 40.4511 239.579L41.1431 238.08C40.6712 237.862 40.2092 237.626 39.7582 237.373L38.9504 238.813ZM42.0083 240.225C42.5331 240.418 43.0675 240.592 43.6107 240.745L44.058 239.156C43.5569 239.015 43.0639 238.855 42.5797 238.676L42.0083 240.225ZM45.2502 241.137C45.7978 241.245 46.3528 241.333 46.9143 241.399L47.1064 239.759C46.5879 239.699 46.0757 239.618 45.5705 239.518L45.2502 241.137ZM48.5937 241.529C48.8734 241.54 49.1545 241.546 49.4367 241.546V239.895C49.1757 239.895 48.9159 239.89 48.6575 239.88L48.5937 241.529ZM49.4367 241.546H50.2614V239.895H49.4367V241.546ZM51.9107 241.546H53.56V239.895H51.9107V241.546ZM55.2093 241.546H56.8586V239.895H55.2093V241.546ZM58.5079 241.546H60.1573V239.895H58.5079V241.546ZM61.8066 241.546H63.4559V239.895H61.8066V241.546ZM65.1052 241.546H66.7545V239.895H65.1052V241.546ZM68.4038 241.546H70.0531V239.895H68.4038V241.546ZM71.7024 241.546H73.3517V239.895H71.7024V241.546ZM75.001 241.546H76.6503V239.895H75.001V241.546ZM78.2997 241.546H79.949V239.895H78.2997V241.546ZM81.5983 241.546H83.2476V239.895H81.5983V241.546ZM84.8969 241.546H86.5462V239.895H84.8969V241.546ZM88.1955 241.546H89.8448V239.895H88.1955V241.546ZM91.4941 241.546H93.1434V239.895H91.4941V241.546ZM94.7927 241.546H96.442V239.895H94.7927V241.546ZM98.0913 241.546H99.7407V239.895H98.0913V241.546ZM101.39 241.546H103.039V239.895H101.39V241.546ZM104.689 241.546H106.338V239.895H104.689V241.546ZM107.987 241.546H109.636V239.895H107.987V241.546ZM111.286 241.546H112.935V239.895H111.286V241.546ZM114.584 241.546H116.234V239.895H114.584V241.546ZM117.883 241.546H119.532V239.895H117.883V241.546ZM121.182 241.546H122.831V239.895H121.182V241.546ZM124.48 241.546H126.13V239.895H124.48V241.546ZM127.779 241.546H129.428V239.895H127.779V241.546ZM131.077 241.546H132.727V239.895H131.077V241.546ZM134.376 241.546H136.025V239.895H134.376V241.546ZM137.675 241.546H139.324V239.895H137.675V241.546ZM140.973 241.546H142.623V239.895H140.973V241.546ZM144.272 241.546H145.921V239.895H144.272V241.546ZM147.571 241.546H149.22V239.895H147.571V241.546ZM150.869 241.546H152.518V239.895H150.869V241.546ZM154.168 241.546H155.817V239.895H154.168V241.546ZM157.466 241.546H159.116V239.895H157.466V241.546ZM160.765 241.546H162.414V239.895H160.765V241.546ZM164.064 241.546H165.713V239.895H164.064V241.546ZM167.362 241.546H169.012V239.895H167.362V241.546ZM170.661 241.546H172.31V239.895H170.661V241.546ZM173.959 241.546H175.609V239.895H173.959V241.546ZM177.258 241.546H178.907V239.895H177.258V241.546ZM180.557 241.546H182.206V239.895H180.557V241.546ZM183.855 241.546H185.505V239.895H183.855V241.546ZM187.154 241.546H188.803V239.895H187.154V241.546ZM190.453 241.546H192.102V239.895H190.453V241.546ZM193.751 241.546H195.4V239.895H193.751V241.546ZM197.05 241.546H198.699V239.895H197.05V241.546ZM200.348 241.546H201.998V239.895H200.348V241.546ZM203.647 241.546H205.296V239.895H203.647V241.546ZM206.946 241.546H208.595V239.895H206.946V241.546ZM210.244 241.546H211.894V239.895H210.244V241.546ZM213.543 241.546H215.192V239.895H213.543V241.546ZM216.841 241.546H218.491V239.895H216.841V241.546ZM220.14 241.546H221.789V239.895H220.14V241.546ZM223.439 241.546H225.088V239.895H223.439V241.546ZM226.737 241.546H228.387V239.895H226.737V241.546ZM230.036 241.546H231.685V239.895H230.036V241.546ZM233.335 241.546H234.984V239.895H233.335V241.546ZM236.633 241.546H238.282V239.895H236.633V241.546ZM239.932 241.546H241.581V239.895H239.932V241.546ZM243.23 241.546H244.88V239.895H243.23V241.546ZM246.529 241.546H248.178V239.895H246.529V241.546ZM249.828 241.546H251.477V239.895H249.828V241.546ZM253.126 241.546H254.776V239.895H253.126V241.546ZM256.425 241.546H258.074V239.895H256.425V241.546ZM259.723 241.546H261.373V239.895H259.723V241.546ZM263.022 241.546H264.671V239.895H263.022V241.546ZM266.321 241.546H267.97V239.895H266.321V241.546ZM269.619 241.546H271.269V239.895H269.619V241.546ZM272.918 241.546H274.567V239.895H272.918V241.546ZM276.217 241.546H277.866V239.895H276.217V241.546ZM279.515 241.546H281.164V239.895H279.515V241.546ZM282.814 241.546H284.463V239.895H282.814V241.546ZM286.112 241.546H287.762V239.895H286.112V241.546ZM289.411 241.546H291.06V239.895H289.411V241.546ZM292.71 241.546H294.359V239.895H292.71V241.546ZM296.008 241.546H297.658V239.895H296.008V241.546ZM299.307 241.546H300.956V239.895H299.307V241.546ZM302.605 241.546H304.255V239.895H302.605V241.546ZM305.904 241.546H307.553V239.895H305.904V241.546ZM309.203 241.546H310.852V239.895H309.203V241.546ZM312.501 241.546H314.151V239.895H312.501V241.546ZM315.8 241.546H317.449V239.895H315.8V241.546ZM319.099 241.546H320.748V239.895H319.099V241.546ZM322.397 241.546H324.047V239.895H322.397V241.546ZM325.696 241.546H327.345V239.895H325.696V241.546ZM328.995 241.546H330.644V239.895H328.995V241.546ZM332.293 241.546H333.943V239.895H332.293V241.546ZM335.592 241.546H337.241V239.895H335.592V241.546ZM338.891 241.546H340.54V239.895H338.891V241.546ZM342.189 241.546H343.838V239.895H342.189V241.546ZM345.488 241.546H347.137V239.895H345.488V241.546ZM348.786 241.546H350.436V239.895H348.786V241.546ZM352.085 241.546H353.734V239.895H352.085V241.546ZM355.384 241.546H357.033V239.895H355.384V241.546ZM358.682 241.546H360.332V239.895H358.682V241.546ZM361.981 241.546H363.63V239.895H361.981V241.546ZM365.28 241.546H366.929V239.895H365.28V241.546ZM368.578 241.546H370.228V239.895H368.578V241.546ZM371.877 241.546H373.526V239.895H371.877V241.546ZM375.176 241.546H376.825V239.895H375.176V241.546ZM378.474 241.546H380.124V239.895H378.474V241.546ZM381.773 241.546H383.422V239.895H381.773V241.546ZM385.072 241.546H386.721V239.895H385.072V241.546ZM388.37 241.546H390.02V239.895H388.37V241.546ZM391.669 241.546H393.318V239.895H391.669V241.546ZM394.967 241.546H396.617V239.895H394.967V241.546ZM398.266 241.546H399.915V239.895H398.266V241.546ZM401.565 241.546H403.214V239.895H401.565V241.546ZM404.863 241.546H406.513V239.895H404.863V241.546ZM408.162 241.546H409.811V239.895H408.162V241.546ZM411.461 241.546H413.11V239.895H411.461V241.546ZM414.759 241.546H416.409V239.895H414.759V241.546ZM418.058 241.546H419.707V239.895H418.058V241.546ZM421.357 241.546H423.006V239.895H421.357V241.546ZM424.655 241.546H426.305V239.895H424.655V241.546ZM427.954 241.546H429.603V239.895H427.954V241.546ZM431.253 241.546H432.902V239.895H431.253V241.546ZM434.551 241.546H436.201V239.895H434.551V241.546ZM437.85 241.546H439.499V239.895H437.85V241.546ZM441.148 241.546H442.798V239.895H441.148V241.546ZM444.447 241.546H446.096V239.895H444.447V241.546ZM447.746 241.546H449.395V239.895H447.746V241.546ZM451.044 241.546H452.694V239.895H451.044V241.546ZM454.343 241.546H455.992V239.895H454.343V241.546ZM457.642 241.546H459.291V239.895H457.642V241.546ZM460.94 241.546H462.59V239.895H460.94V241.546ZM464.239 241.546H465.888V239.895H464.239V241.546ZM467.538 241.546H469.187V239.895H467.538V241.546ZM470.836 241.546H472.486V239.895H470.836V241.546ZM474.135 241.546H475.784V239.895H474.135V241.546ZM477.434 241.546H479.083V239.895H477.434V241.546ZM480.732 241.546H482.382V239.895H480.732V241.546ZM484.031 241.546H485.68V239.895H484.031V241.546ZM487.33 241.546H488.979V239.895H487.33V241.546ZM490.628 241.546H492.277V239.895H490.628V241.546ZM493.927 241.546H495.576V239.895H493.927V241.546ZM497.225 241.546H498.875V239.895H497.225V241.546ZM500.524 241.546H502.173V239.895H500.524V241.546ZM503.823 241.546H505.472V239.895H503.823V241.546ZM507.121 241.546H508.771V239.895H507.121V241.546ZM510.42 241.546H512.069V239.895H510.42V241.546ZM513.719 241.546H515.368V239.895H513.719V241.546ZM517.017 241.546H518.667V239.895H517.017V241.546ZM520.316 241.546H521.965V239.895H520.316V241.546ZM523.615 241.546H525.264V239.895H523.615V241.546ZM526.913 241.546H528.563V239.895H526.913V241.546ZM530.212 241.546H531.861V239.895H530.212V241.546ZM533.511 241.546H535.16V239.895H533.511V241.546ZM536.809 241.546H538.459V239.895H536.809V241.546ZM540.108 241.546H541.757V239.895H540.108V241.546ZM543.406 241.546H545.056V239.895H543.406V241.546ZM546.705 241.546H548.354V239.895H546.705V241.546ZM550.004 241.546H550.827V239.895H550.004V241.546ZM551.651 240.754C551.662 240.489 551.677 240.225 551.695 239.962L550.048 239.848C550.029 240.127 550.014 240.406 550.002 240.686L551.651 240.754ZM551.849 238.389C551.915 237.863 551.996 237.342 552.091 236.826L550.468 236.527C550.367 237.074 550.281 237.625 550.211 238.182L551.849 238.389ZM552.422 235.281C552.547 234.767 552.687 234.258 552.84 233.755L551.261 233.274C551.099 233.806 550.951 234.345 550.818 234.889L552.422 235.281ZM553.345 232.256C553.527 231.761 553.724 231.271 553.933 230.788L552.419 230.131C552.197 230.642 551.989 231.161 551.796 231.686L553.345 232.256ZM554.604 229.356C554.841 228.884 555.091 228.42 555.354 227.963L553.923 227.14C553.645 227.623 553.38 228.115 553.129 228.614L554.604 229.356ZM556.18 226.614C556.469 226.172 556.769 225.738 557.081 225.312L555.75 224.336C555.42 224.786 555.103 225.245 554.798 225.713L556.18 226.614ZM558.052 224.062C558.387 223.655 558.733 223.256 559.09 222.867L557.874 221.751C557.497 222.162 557.131 222.584 556.777 223.014L558.052 224.062ZM560.192 221.73C560.57 221.362 560.957 221.003 561.355 220.655L560.267 219.414C559.847 219.781 559.438 220.16 559.039 220.55L560.192 221.73ZM562.574 219.644C562.989 219.318 563.413 219.003 563.846 218.7L562.898 217.348C562.441 217.669 561.993 218.002 561.555 218.345L562.574 219.644ZM565.166 217.826C565.613 217.547 566.069 217.279 566.532 217.024L565.735 215.578C565.245 215.848 564.765 216.131 564.292 216.425L565.166 217.826ZM567.939 216.296C568.413 216.067 568.894 215.85 569.383 215.645L568.745 214.123C568.229 214.339 567.721 214.568 567.22 214.81L567.939 216.296ZM570.86 215.072C571.356 214.895 571.858 214.73 572.366 214.579L571.894 212.997C571.358 213.157 570.828 213.331 570.304 213.518L570.86 215.072ZM573.895 214.167C574.407 214.043 574.923 213.933 575.445 213.836L575.144 212.214C574.593 212.316 574.048 212.432 573.509 212.562L573.895 214.167ZM577.009 213.589C577.53 213.521 578.056 213.465 578.585 213.424L578.457 211.779C577.898 211.822 577.344 211.88 576.795 211.952L577.009 213.589ZM580.168 213.342C580.432 213.335 580.697 213.332 580.963 213.332V211.681C580.683 211.681 580.404 211.685 580.126 211.692L580.168 213.342ZM580.963 213.332C581.229 213.332 581.494 213.335 581.758 213.342L581.801 211.692C581.523 211.685 581.243 211.681 580.963 211.681V213.332ZM583.341 213.424C583.871 213.465 584.396 213.521 584.917 213.589L585.132 211.952C584.582 211.88 584.028 211.822 583.47 211.779L583.341 213.424ZM586.482 213.836C587.003 213.933 587.52 214.043 588.031 214.167L588.418 212.562C587.878 212.432 587.333 212.316 586.783 212.214L586.482 213.836ZM589.561 214.579C590.069 214.73 590.571 214.895 591.067 215.072L591.622 213.518C591.099 213.331 590.569 213.157 590.032 212.997L589.561 214.579ZM592.544 215.645C593.032 215.85 593.513 216.067 593.988 216.296L594.706 214.81C594.206 214.568 593.697 214.339 593.182 214.123L592.544 215.645ZM595.395 217.024C595.858 217.279 596.313 217.547 596.76 217.826L597.634 216.425C597.162 216.131 596.681 215.848 596.192 215.578L595.395 217.024ZM598.081 218.7C598.514 219.003 598.938 219.318 599.353 219.644L600.372 218.345C599.934 218.002 599.486 217.669 599.029 217.348L598.081 218.7ZM600.572 220.655C600.969 221.003 601.357 221.362 601.734 221.73L602.888 220.55C602.489 220.16 602.079 219.781 601.66 219.414L600.572 220.655ZM602.836 222.867C603.193 223.256 603.539 223.655 603.875 224.062L605.15 223.014C604.795 222.584 604.429 222.162 604.052 221.751L602.836 222.867ZM604.846 225.312C605.158 225.738 605.458 226.172 605.746 226.614L607.129 225.713C606.824 225.245 606.506 224.786 606.176 224.336L604.846 225.312ZM606.573 227.963C606.835 228.42 607.086 228.884 607.323 229.356L608.797 228.614C608.546 228.115 608.281 227.623 608.004 227.14L606.573 227.963ZM607.993 230.788C608.203 231.271 608.399 231.761 608.582 232.256L610.131 231.686C609.937 231.161 609.729 230.642 609.507 230.131L607.993 230.788ZM609.086 233.755C609.24 234.258 609.379 234.767 609.505 235.281L611.108 234.889C610.975 234.345 610.828 233.806 610.665 233.274L609.086 233.755ZM609.836 236.826C609.931 237.342 610.012 237.863 610.078 238.389L611.715 238.182C611.645 237.625 611.559 237.074 611.459 236.527L609.836 236.826ZM610.232 239.962C610.25 240.225 610.264 240.489 610.275 240.754L611.924 240.686C611.913 240.406 611.897 240.127 611.878 239.848L610.232 239.962ZM611.1 241.546H611.922V239.895H611.1V241.546ZM613.565 241.546H615.209V239.895H613.565V241.546ZM616.852 241.546H618.496V239.895H616.852V241.546ZM620.139 241.546H621.783V239.895H620.139V241.546ZM623.427 241.546H625.07V239.895H623.427V241.546ZM626.714 241.546H628.357V239.895H626.714V241.546ZM630.001 241.546H631.644V239.895H630.001V241.546ZM633.288 241.546H634.932V239.895H633.288V241.546ZM636.575 241.546H638.219V239.895H636.575V241.546ZM639.862 241.546H641.506V239.895H639.862V241.546ZM643.149 241.546H644.793V239.895H643.149V241.546ZM646.437 241.546H648.08V239.895H646.437V241.546ZM649.724 241.546H651.367V239.895H649.724V241.546ZM653.011 241.546H654.654V239.895H653.011V241.546ZM656.298 241.546H657.942V239.895H656.298V241.546ZM659.585 241.546H661.229V239.895H659.585V241.546ZM662.872 241.546H664.516V239.895H662.872V241.546ZM666.159 241.546H667.803V239.895H666.159V241.546ZM669.447 241.546H671.09V239.895H669.447V241.546ZM672.734 241.546H674.377V239.895H672.734V241.546ZM676.021 241.546H677.665V239.895H676.021V241.546ZM679.308 241.546H680.952V239.895H679.308V241.546ZM682.595 241.546H684.239V239.895H682.595V241.546ZM685.882 241.546H687.526V239.895H685.882V241.546ZM689.169 241.546H690.813V239.895H689.169V241.546ZM692.457 241.546H694.1V239.895H692.457V241.546ZM695.744 241.546H697.387V239.895H695.744V241.546ZM699.031 241.546H700.674V239.895H699.031V241.546ZM702.318 241.546H703.962V239.895H702.318V241.546ZM705.605 241.546H707.249V239.895H705.605V241.546ZM708.892 241.546H710.536V239.895H708.892V241.546ZM712.18 241.546H713.823V239.895H712.18V241.546ZM715.467 241.546H717.11V239.895H715.467V241.546ZM718.754 241.546H720.397V239.895H718.754V241.546ZM722.041 241.546H723.685V239.895H722.041V241.546ZM725.328 241.546H726.972V239.895H725.328V241.546ZM728.615 241.546H730.259V239.895H728.615V241.546ZM731.902 241.546H733.546V239.895H731.902V241.546ZM735.189 241.546H736.833V239.895H735.189V241.546ZM738.477 241.546H740.12V239.895H738.477V241.546ZM741.764 241.546H743.407V239.895H741.764V241.546ZM745.051 241.546H746.694V239.895H745.051V241.546ZM748.338 241.546H749.982V239.895H748.338V241.546ZM751.625 241.546H753.269V239.895H751.625V241.546ZM754.912 241.546H756.556V239.895H754.912V241.546ZM758.199 241.546H759.843V239.895H758.199V241.546ZM761.487 241.546H763.13V239.895H761.487V241.546ZM764.774 241.546H766.417V239.895H764.774V241.546ZM768.061 241.546H769.704V239.895H768.061V241.546ZM771.348 241.546H772.992V239.895H771.348V241.546ZM774.635 241.546H776.279V239.895H774.635V241.546ZM777.922 241.546H779.566V239.895H777.922V241.546ZM781.209 241.546H782.853V239.895H781.209V241.546ZM784.497 241.546H786.14V239.895H784.497V241.546ZM787.784 241.546H789.427V239.895H787.784V241.546ZM791.071 241.546H792.714V239.895H791.071V241.546ZM794.358 241.546H796.002V239.895H794.358V241.546ZM797.645 241.546H799.289V239.895H797.645V241.546ZM800.932 241.546H802.576V239.895H800.932V241.546ZM804.219 241.546H805.863V239.895H804.219V241.546ZM807.507 241.546H809.15V239.895H807.507V241.546ZM810.794 241.546H812.437V239.895H810.794V241.546ZM814.081 241.546H815.724V239.895H814.081V241.546ZM817.368 241.546H819.012V239.895H817.368V241.546ZM820.655 241.546H822.299V239.895H820.655V241.546ZM823.942 241.546H825.586V239.895H823.942V241.546ZM827.229 241.546H828.873V239.895H827.229V241.546ZM830.517 241.546H832.16V239.895H830.517V241.546ZM833.804 241.546H835.447V239.895H833.804V241.546ZM837.091 241.546H838.734V239.895H837.091V241.546ZM840.378 241.546H842.021V239.895H840.378V241.546ZM843.665 241.546H845.309V239.895H843.665V241.546ZM846.952 241.546H848.596V239.895H846.952V241.546ZM850.239 241.546H851.883V239.895H850.239V241.546ZM853.526 241.546H855.17V239.895H853.526V241.546ZM856.814 241.546H858.457V239.895H856.814V241.546ZM860.101 241.546H861.744V239.895H860.101V241.546ZM863.388 241.546H865.031V239.895H863.388V241.546ZM866.675 241.546H868.319V239.895H866.675V241.546ZM869.962 241.546H871.606V239.895H869.962V241.546ZM873.249 241.546H874.893V239.895H873.249V241.546ZM876.537 241.546H878.18V239.895H876.537V241.546ZM879.824 241.546H881.467V239.895H879.824V241.546ZM883.111 241.546H884.754V239.895H883.111V241.546ZM886.398 241.546H888.042V239.895H886.398V241.546ZM889.685 241.546H891.329V239.895H889.685V241.546ZM892.972 241.546H894.616V239.895H892.972V241.546ZM896.26 241.546H897.903V239.895H896.26V241.546ZM899.547 241.546H900.369V239.895H899.547V241.546ZM900.369 241.546C900.651 241.546 900.932 241.54 901.212 241.529L901.148 239.88C900.89 239.89 900.63 239.895 900.369 239.895V241.546ZM902.891 241.399C903.453 241.333 904.008 241.245 904.555 241.137L904.235 239.518C903.73 239.618 903.218 239.699 902.699 239.759L902.891 241.399ZM906.195 240.745C906.738 240.592 907.272 240.418 907.797 240.225L907.226 238.676C906.742 238.855 906.249 239.015 905.747 239.156L906.195 240.745ZM909.354 239.579C909.866 239.343 910.366 239.087 910.855 238.813L910.047 237.373C909.596 237.626 909.134 237.862 908.662 238.08L909.354 239.579ZM912.291 237.931C912.758 237.618 913.213 237.287 913.653 236.94L912.63 235.644C912.224 235.965 911.804 236.271 911.373 236.56L912.291 237.931ZM914.933 235.845C915.346 235.464 915.743 235.066 916.125 234.654L914.913 233.533C914.561 233.914 914.194 234.281 913.813 234.633L914.933 235.845ZM917.219 233.373C917.567 232.933 917.898 232.479 918.211 232.011L916.839 231.093C916.55 231.525 916.245 231.944 915.924 232.351L917.219 233.373ZM919.092 230.576C919.366 230.087 919.622 229.586 919.858 229.075L918.36 228.383C918.142 228.855 917.906 229.317 917.653 229.768L919.092 230.576ZM920.504 227.518C920.698 226.993 920.871 226.458 921.024 225.915L919.436 225.468C919.295 225.969 919.134 226.462 918.956 226.946L920.504 227.518ZM921.417 224.276C921.525 223.728 921.612 223.173 921.678 222.612L920.039 222.42C919.978 222.938 919.897 223.45 919.797 223.955L921.417 224.276ZM921.809 220.932C921.82 220.653 921.825 220.371 921.825 220.089H920.174C920.174 220.35 920.169 220.61 920.159 220.868L921.809 220.932ZM921.825 220.089V219.257H920.174V220.089H921.825ZM921.825 217.592V215.927H920.174V217.592H921.825ZM921.825 214.263V212.598H920.174V214.263H921.825ZM921.825 210.933V209.269H920.174V210.933H921.825ZM921.825 207.604V205.939H920.174V207.604H921.825ZM921.825 204.275V202.61H920.174V204.275H921.825ZM921.825 200.945V199.28H920.174V200.945H921.825ZM921.825 197.616V195.951H920.174V197.616H921.825ZM921.825 194.286V192.622H920.174V194.286H921.825ZM921.825 190.957V189.292H920.174V190.957H921.825ZM921.825 187.628V185.963H920.174V187.628H921.825ZM921.825 184.298V182.633H920.174V184.298H921.825ZM921.825 180.969V179.304H920.174V180.969H921.825ZM921.825 177.639V175.975H920.174V177.639H921.825ZM921.825 174.31V172.645H920.174V174.31H921.825ZM921.825 170.981V169.316H920.174V170.981H921.825ZM921.825 167.651V165.986H920.174V167.651H921.825ZM921.825 164.322V162.657H920.174V164.322H921.825ZM921.825 160.992V159.328H920.174V160.992H921.825ZM921.825 157.663V155.998H920.174V157.663H921.825ZM921.825 154.334V152.669H920.174V154.334H921.825ZM921.825 151.004V149.339H920.174V151.004H921.825ZM921.825 147.675V146.01H920.174V147.675H921.825ZM921.825 144.345V142.681H920.174V144.345H921.825ZM921.825 141.016V139.351H920.174V141.016H921.825ZM921.825 137.687V136.022H920.174V137.687H921.825ZM921.825 134.357V132.693H920.174V134.357H921.825ZM921.825 131.028V129.363H920.174V131.028H921.825ZM921.825 127.698V126.034H920.174V127.698H921.825ZM921.825 124.369V122.704H920.174V124.369H921.825ZM921.825 121.04V119.375H920.174V121.04H921.825ZM921.825 117.71V116.046H920.174V117.71H921.825ZM921.825 114.381V112.716H920.174V114.381H921.825ZM921.825 111.051V109.387H920.174V111.051H921.825ZM921.825 107.722V106.057H920.174V107.722H921.825ZM921.825 104.393V102.728H920.174V104.393H921.825ZM921.825 101.063V99.3986H920.174V101.063H921.825ZM921.825 97.7339V96.0692H920.174V97.7339H921.825ZM921.825 94.4045V92.7398H920.174V94.4045H921.825ZM921.825 91.0751V89.4104H920.174V91.0751H921.825ZM921.825 87.7457V86.081H920.174V87.7457H921.825ZM921.825 84.4163V82.7516H920.174V84.4163H921.825ZM921.825 81.0869V79.4222H920.174V81.0869H921.825ZM921.825 77.7575V76.0928H920.174V77.7575H921.825ZM921.825 74.4281V72.7634H920.174V74.4281H921.825ZM921.825 71.0987V69.434H920.174V71.0987H921.825ZM921.825 67.7693V66.1045H920.174V67.7693H921.825ZM921.825 64.4398V62.7751H920.174V64.4398H921.825ZM921.825 61.1104V59.4457H920.174V61.1104H921.825ZM921.825 57.781V56.1163H920.174V57.781H921.825ZM921.825 54.4516V52.7869H920.174V54.4516H921.825ZM921.825 51.1222V49.4575H920.174V51.1222H921.825ZM921.825 47.7928V46.1281H920.174V47.7928H921.825ZM921.825 44.4634V43.6311H920.174V44.4634H921.825ZM921.825 43.6311C921.825 43.3488 921.82 43.0677 921.809 42.788L920.159 42.8518C920.169 43.1103 920.174 43.3701 920.174 43.6311H921.825ZM921.678 41.1086C921.612 40.5471 921.525 39.9921 921.417 39.4445L919.797 39.7648C919.897 40.2701 919.978 40.7823 920.039 41.3007L921.678 41.1086ZM921.024 37.805C920.871 37.2619 920.698 36.7274 920.504 36.2026L918.956 36.774C919.134 37.2582 919.295 37.7512 919.436 38.2523L921.024 37.805ZM919.858 34.6455C919.622 34.134 919.366 33.6334 919.092 33.1447L917.653 33.9525C917.906 34.4035 918.142 34.8655 918.36 35.3374L919.858 34.6455ZM918.211 31.709C917.898 31.2416 917.567 30.7872 917.219 30.3468L915.924 31.3694C916.245 31.7761 916.55 32.1957 916.839 32.6272L918.211 31.709ZM916.125 29.0664C915.743 28.654 915.346 28.2566 914.933 27.8752L913.813 29.0869C914.194 29.4392 914.561 29.8061 914.913 30.187L916.125 29.0664ZM913.653 26.7806C913.213 26.433 912.758 26.1022 912.291 25.7892L911.372 27.1607C911.804 27.4496 912.224 27.7551 912.63 28.0761L913.653 26.7806ZM910.855 24.9076C910.366 24.6333 909.866 24.3776 909.354 24.1414L908.662 25.6399C909.134 25.8578 909.596 26.0938 910.047 26.3469L910.855 24.9076ZM907.797 23.4957C907.272 23.3021 906.738 23.1283 906.195 22.9754L905.747 24.5641C906.249 24.7052 906.742 24.8655 907.226 25.0441L907.797 23.4957ZM904.555 22.5831C904.008 22.4748 903.453 22.3873 902.891 22.3215L902.699 23.9608C903.217 24.0216 903.73 24.1023 904.235 24.2022L904.555 22.5831ZM901.212 22.191C900.932 22.1802 900.651 22.1748 900.369 22.1748V23.8252C900.63 23.8252 900.889 23.8303 901.148 23.8403L901.212 22.191ZM900.369 22.1748H899.547V23.8252H900.369V22.1748ZM897.903 22.1748H896.259V23.8252H897.903V22.1748ZM894.616 22.1748H892.972V23.8252H894.616V22.1748ZM891.328 22.1748H889.685V23.8252H891.328V22.1748ZM888.041 22.1748H886.397V23.8252H888.041V22.1748ZM884.753 22.1748H883.11V23.8252H884.753V22.1748ZM881.466 22.1748H879.822V23.8252H881.466V22.1748ZM878.179 22.1748H876.535V23.8252H878.179V22.1748ZM874.891 22.1748H873.248V23.8252H874.891V22.1748ZM871.604 22.1748H869.96V23.8252H871.604V22.1748ZM868.316 22.1748H866.673V23.8252H868.316V22.1748ZM865.029 22.1748H863.385V23.8252H865.029V22.1748ZM861.742 22.1748H860.098V23.8252H861.742V22.1748ZM858.454 22.1748H856.811V23.8252H858.454V22.1748ZM855.167 22.1748H853.523V23.8252H855.167V22.1748ZM851.879 22.1748H850.236V23.8252H851.879V22.1748ZM848.592 22.1748H846.948V23.8252H848.592V22.1748ZM845.305 22.1748H843.661V23.8252H845.305V22.1748ZM842.017 22.1748H840.374V23.8252H842.017V22.1748ZM838.73 22.1748H837.086V23.8252H838.73V22.1748ZM835.443 22.1748H833.799V23.8252H835.443V22.1748ZM832.155 22.1748H830.511V23.8252H832.155V22.1748ZM828.868 22.1748H827.224V23.8252H828.868V22.1748ZM825.58 22.1748H823.937V23.8252H825.58V22.1748ZM822.293 22.1748H820.649V23.8252H822.293V22.1748ZM819.005 22.1748H817.362V23.8252H819.005V22.1748ZM815.718 22.1748H814.074V23.8252H815.718V22.1748ZM812.431 22.1748H810.787V23.8252H812.431V22.1748ZM809.143 22.1748H807.5V23.8252H809.143V22.1748ZM805.856 22.1748H804.212V23.8252H805.856V22.1748ZM802.568 22.1748H800.925V23.8252H802.568V22.1748ZM799.281 22.1748H797.637V23.8252H799.281V22.1748ZM795.994 22.1748H794.35V23.8252H795.994V22.1748ZM792.706 22.1748H791.063V23.8252H792.706V22.1748ZM789.419 22.1748H787.775V23.8252H789.419V22.1748ZM786.132 22.1748H784.488V23.8252H786.132V22.1748ZM782.844 22.1748H781.2V23.8252H782.844V22.1748ZM779.557 22.1748H777.913V23.8252H779.557V22.1748ZM776.269 22.1748H774.626V23.8252H776.269V22.1748ZM772.982 22.1748H771.338V23.8252H772.982V22.1748ZM769.694 22.1748H768.051V23.8252H769.694V22.1748ZM766.407 22.1748H764.763V23.8252H766.407V22.1748ZM763.12 22.1748H761.476V23.8252H763.12V22.1748ZM759.832 22.1748H758.189V23.8252H759.832V22.1748ZM756.545 22.1748H754.901V23.8252H756.545V22.1748ZM753.257 22.1748H751.614V23.8252H753.257V22.1748ZM749.97 22.1748H748.326V23.8252H749.97V22.1748ZM746.683 22.1748H745.039V23.8252H746.683V22.1748ZM743.395 22.1748H741.751V23.8252H743.395V22.1748ZM740.108 22.1748H738.464V23.8252H740.108V22.1748ZM736.82 22.1748H735.177V23.8252H736.82V22.1748ZM733.533 22.1748H731.889V23.8252H733.533V22.1748ZM730.245 22.1748H728.602V23.8252H730.245V22.1748ZM726.958 22.1748H725.314V23.8252H726.958V22.1748ZM723.671 22.1748H722.027V23.8252H723.671V22.1748ZM720.383 22.1748H718.74V23.8252H720.383V22.1748ZM717.096 22.1748H715.452V23.8252H717.096V22.1748ZM713.808 22.1748H712.165V23.8252H713.808V22.1748ZM710.521 22.1748H708.877V23.8252H710.521V22.1748ZM707.234 22.1748H705.59V23.8252H707.234V22.1748ZM703.946 22.1748H702.302V23.8252H703.946V22.1748ZM700.659 22.1748H699.015V23.8252H700.659V22.1748ZM697.371 22.1748H695.728V23.8252H697.371V22.1748ZM694.084 22.1748H692.44V23.8252H694.084V22.1748ZM690.797 22.1748H689.153V23.8252H690.797V22.1748ZM687.509 22.1748H685.865V23.8252H687.509V22.1748ZM684.222 22.1748H682.578V23.8252H684.222V22.1748ZM680.934 22.1748H679.291V23.8252H680.934V22.1748ZM677.647 22.1748H676.003V23.8252H677.647V22.1748ZM674.359 22.1748H672.716V23.8252H674.359V22.1748ZM671.072 22.1748H669.428V23.8252H671.072V22.1748ZM667.785 22.1748H666.141V23.8252H667.785V22.1748ZM664.497 22.1748H662.854V23.8252H664.497V22.1748ZM661.21 22.1748H659.566V23.8252H661.21V22.1748ZM657.922 22.1748H656.279V23.8252H657.922V22.1748ZM654.635 22.1748H652.991V23.8252H654.635V22.1748ZM651.348 22.1748H649.704V23.8252H651.348V22.1748ZM648.06 22.1748H646.416V23.8252H648.06V22.1748ZM644.773 22.1748H643.129V23.8252H644.773V22.1748ZM641.485 22.1748H639.842V23.8252H641.485V22.1748ZM638.198 22.1748H636.554V23.8252H638.198V22.1748ZM634.911 22.1748H633.267V23.8252H634.911V22.1748ZM631.623 22.1748H629.979V23.8252H631.623V22.1748ZM628.336 22.1748H626.692V23.8252H628.336V22.1748ZM625.048 22.1748H623.405V23.8252H625.048V22.1748ZM621.761 22.1748H620.117V23.8252H621.761V22.1748ZM618.473 22.1748H616.83V23.8252H618.473V22.1748ZM615.186 22.1748H613.542V23.8252H615.186V22.1748ZM611.899 22.1748H611.077V23.8252H611.899V22.1748ZM610.253 22.9532C610.239 23.215 610.22 23.476 610.198 23.7359L611.843 23.8755C611.866 23.6003 611.885 23.3241 611.901 23.0468L610.253 22.9532ZM610.022 25.2913C609.948 25.8101 609.861 26.3245 609.759 26.8341L611.378 27.157C611.485 26.6173 611.578 26.0724 611.656 25.5228L610.022 25.2913ZM609.41 28.3594C609.278 28.8663 609.133 29.3677 608.975 29.8633L610.547 30.3663C610.715 29.8412 610.868 29.31 611.007 28.7731L609.41 28.3594ZM608.456 31.3406C608.269 31.829 608.068 32.3111 607.855 32.7865L609.361 33.4622C609.587 32.9589 609.799 32.4484 609.997 31.9311L608.456 31.3406ZM607.174 34.1967C606.934 34.6608 606.681 35.1178 606.416 35.5671L607.838 36.4056C608.118 35.9301 608.386 35.4465 608.64 34.9552L607.174 34.1967ZM605.584 36.8938C605.294 37.3286 604.992 37.7552 604.679 38.1732L606.001 39.1624C606.332 38.7203 606.651 38.2691 606.957 37.8092L605.584 36.8938ZM603.706 39.4016C603.371 39.802 603.025 40.1935 602.668 40.5755L603.875 41.702C604.252 41.2982 604.618 40.8844 604.972 40.4611L603.706 39.4016ZM601.568 41.692C601.192 42.0539 600.805 42.406 600.409 42.7478L601.488 43.9972C601.906 43.6361 602.314 43.2641 602.712 42.8817L601.568 41.692ZM599.195 43.7403C598.783 44.0598 598.361 44.3687 597.93 44.6666L598.87 46.0238C599.324 45.7092 599.77 45.383 600.206 45.0455L599.195 43.7403ZM596.618 45.5241C596.174 45.7977 595.722 46.0601 595.262 46.3107L596.052 47.7599C596.537 47.4953 597.015 47.2183 597.484 46.9293L596.618 45.5241ZM593.865 47.0242C593.395 47.2491 592.917 47.462 592.433 47.6627L593.065 49.1874C593.576 48.9756 594.08 48.7508 594.577 48.5133L593.865 47.0242ZM590.969 48.2244C590.477 48.3981 589.98 48.5594 589.477 48.7079L589.944 50.2909C590.475 50.1342 591 49.9639 591.519 49.7805L590.969 48.2244ZM587.961 49.1117C587.455 49.2325 586.943 49.3404 586.427 49.4351L586.725 51.0585C587.27 50.9585 587.81 50.8446 588.344 50.7172L587.961 49.1117ZM584.878 49.6777C584.362 49.7447 583.841 49.7987 583.317 49.8392L583.444 51.4848C583.997 51.4421 584.546 51.3852 585.09 51.3145L584.878 49.6777ZM581.75 49.9198C581.489 49.9265 581.226 49.9299 580.963 49.9299V51.5804C581.24 51.5804 581.517 51.5768 581.792 51.5697L581.75 49.9198ZM580.963 49.9299C580.7 49.9299 580.438 49.9265 580.176 49.9198L580.134 51.5697C580.41 51.5768 580.686 51.5804 580.963 51.5804V49.9299ZM578.609 49.8392C578.085 49.7987 577.565 49.7447 577.049 49.6777L576.836 51.3145C577.381 51.3852 577.929 51.4421 578.482 51.4848L578.609 49.8392ZM575.5 49.4351C574.983 49.3404 574.472 49.2325 573.965 49.1117L573.582 50.7172C574.117 50.8446 574.657 50.9585 575.202 51.0585L575.5 49.4351ZM572.45 48.7079C571.947 48.5594 571.449 48.3981 570.958 48.2244L570.408 49.7805C570.926 49.9639 571.452 50.1342 571.983 50.2909L572.45 48.7079ZM569.493 47.6627C569.009 47.462 568.531 47.2491 568.061 47.0242L567.349 48.5133C567.846 48.7508 568.35 48.9756 568.862 49.1874L569.493 47.6627ZM566.665 46.3107C566.205 46.0601 565.753 45.7977 565.309 45.5241L564.443 46.9294C564.912 47.2183 565.389 47.4953 565.875 47.7599L566.665 46.3107ZM563.996 44.6666C563.566 44.3687 563.144 44.0598 562.731 43.7403L561.721 45.0455C562.157 45.383 562.602 45.7092 563.057 46.0238L563.996 44.6666ZM561.517 42.7478C561.121 42.406 560.735 42.0539 560.358 41.692L559.214 42.8817C559.612 43.2641 560.02 43.6361 560.439 43.9972L561.517 42.7478ZM559.258 40.5756C558.902 40.1935 558.555 39.802 558.22 39.4016L556.955 40.4611C557.309 40.8845 557.675 41.2982 558.052 41.702L559.258 40.5756ZM557.247 38.1732C556.934 37.7552 556.633 37.3286 556.343 36.8938L554.969 37.8093C555.276 38.2691 555.595 38.7203 555.926 39.1624L557.247 38.1732ZM555.51 35.5671C555.245 35.1178 554.992 34.6608 554.752 34.1967L553.286 34.9552C553.541 35.4465 553.808 35.9301 554.089 36.4056L555.51 35.5671ZM554.071 32.7865C553.858 32.3111 553.658 31.829 553.471 31.3406L551.929 31.9311C552.128 32.4484 552.34 32.9589 552.566 33.4623L554.071 32.7865ZM552.952 29.8633C552.793 29.3677 552.648 28.8663 552.517 28.3594L550.919 28.7731C551.058 29.31 551.212 29.8412 551.38 30.3663L552.952 29.8633ZM552.168 26.8341C552.066 26.3245 551.978 25.8101 551.905 25.2913L550.27 25.5228C550.348 26.0724 550.441 26.6173 550.549 27.157L552.168 26.8341ZM551.729 23.7359C551.706 23.476 551.688 23.215 551.673 22.9532L550.025 23.0468C550.041 23.3241 550.061 23.6003 550.084 23.8755L551.729 23.7359Z" fill="#E1A676" mask="url(#path-6-inside-1_2001_2)"/>
</g>
<path d="M581 45V215" stroke="#FFFEFD" stroke-width="2.47573" stroke-dasharray="16.5 16.5"/>
<path d="M57.9398 240.266C161.809 201.338 264.753 159.922 373.281 125.553C392.987 119.312 424.5 105.5 433 112C441.5 118.5 441.542 124.798 437 131.424C432.637 137.791 420.5 135.231 416 131.424C411.5 127.618 411 121.5 412.366 118.588C425.367 90.8723 457.169 88.666 483.42 85.1529C529.183 79.0287 546.768 79.3795 592.655 73.7744" stroke="#E1A676" stroke-opacity="0.2" stroke-width="2.47573" stroke-linecap="round"/>
<defs>
<filter id="filter0_d_2001_2" x="0.854368" y="0.631067" width="943.334" height="269.639" filterUnits="userSpaceOnUse" color-interpolation-filters="sRGB">
<feFlood flood-opacity="0" result="BackgroundImageFix"/>
<feColorMatrix in="SourceAlpha" type="matrix" values="0 0 0 0 0 0 0 0 0 0 0 0 0 0 0 0 0 0 127 0" result="hardAlpha"/>
<feMorphology radius="1.65049" operator="erode" in="SourceAlpha" result="effect1_dropShadow_2001_2"/>
<feOffset dy="5.7767"/>
<feGaussianBlur stdDeviation="10.3981"/>
<feComposite in2="hardAlpha" operator="out"/>
<feColorMatrix type="matrix" values="0 0 0 0 0.430933 0 0 0 0 0.39037 0 0 0 0 0.268679 0 0 0 0.25 0"/>
<feBlend mode="normal" in2="BackgroundImageFix" result="effect1_dropShadow_2001_2"/>
<feBlend mode="normal" in="SourceGraphic" in2="effect1_dropShadow_2001_2" result="shape"/>
</filter>
<filter id="filter1_d_2001_2" x="9.66003" y="9.63107" width="930.485" height="256.012" filterUnits="userSpaceOnUse" color-interpolation-filters="sRGB">
<feFlood flood-opacity="0" result="BackgroundImageFix"/>
<feColorMatrix in="SourceAlpha" type="matrix" values="0 0 0 0 0 0 0 0 0 0 0 0 0 0 0 0 0 0 127 0" result="hardAlpha"/>
<feMorphology radius="1.65049" operator="erode" in="SourceAlpha" result="effect1_dropShadow_2001_2"/>
<feOffset dy="5.7767"/>
<feGaussianBlur stdDeviation="10.3981"/>
<feComposite in2="hardAlpha" operator="out"/>
<feColorMatrix type="matrix" values="0 0 0 0 0.430933 0 0 0 0 0.39037 0 0 0 0 0.268679 0 0 0 0.25 0"/>
<feBlend mode="normal" in2="BackgroundImageFix" result="effect1_dropShadow_2001_2"/>
<feBlend mode="normal" in="SourceGraphic" in2="effect1_dropShadow_2001_2" result="shape"/>
</filter>
</defs>
</svg>
