<svg width="933" height="269" viewBox="0 0 933 269" fill="none" xmlns="http://www.w3.org/2000/svg">
<mask id="mask0_2001_2" style="mask-type:alpha" maskUnits="userSpaceOnUse" x="11" y="14" width="906" height="232">
<path fill-rule="evenodd" clip-rule="evenodd" d="M602 20C602 36.5685 588.569 50 572 50C555.431 50 542 36.5685 542 20C542 17.9452 542.207 15.9387 542.6 14H31.6311C20.2368 14 11 23.2368 11 34.6311V224.716C11 236.11 20.2368 245.347 31.6311 245.347H542.002C542.001 245.232 542 245.116 542 245C542 228.431 555.431 215 572 215C588.569 215 602 228.431 602 245C602 245.116 601.999 245.232 601.998 245.347H895.412C906.806 245.347 916.043 236.11 916.043 224.716V34.6311C916.043 23.2368 906.806 14 895.412 14H601.4C601.793 15.9387 602 17.9452 602 20Z" fill="#FCFCFC"/>
</mask>
<g mask="url(#mask0_2001_2)">
<rect x="582.4" y="-5.16895" width="334.621" height="269.685" fill="#FFC338"/>
</g>
<mask id="mask1_2001_2" style="mask-type:alpha" maskUnits="userSpaceOnUse" x="11" y="16" width="906" height="231">
<path fill-rule="evenodd" clip-rule="evenodd" d="M592.043 22.3857C592.043 36.1929 580.85 47.3857 567.043 47.3857C553.236 47.3857 542.043 36.1929 542.043 22.3857C542.043 20.1787 542.329 18.0384 542.866 16H31.6311C20.2368 16 11 25.2369 11 36.6311V226.055C11 237.449 20.2368 246.686 31.6311 246.686H545.174C546.466 234.091 557.107 224.266 570.043 224.266C582.979 224.266 593.62 234.091 594.911 246.686H895.412C906.806 246.686 916.043 237.449 916.043 226.055V36.6311C916.043 25.2368 906.806 16 895.412 16H591.22C591.757 18.0384 592.043 20.1787 592.043 22.3857Z" fill="#FCFCFC"/>
</mask>
<g mask="url(#mask1_2001_2)">
<rect x="572" y="-44" width="361" height="313" fill="#FFC338"/>
</g>
<g style="mix-blend-mode:multiply" filter="url(#filter0_d_2001_2)">
<mask id="path-5-inside-1_2001_2" fill="white">
<path fill-rule="evenodd" clip-rule="evenodd" d="M40.4367 23H541.849C542.729 38.4728 555.875 50.7551 571.963 50.7551C588.051 50.7551 601.198 38.4728 602.077 23H891.369C902.763 23 912 32.2368 912 43.6311V220.089C912 231.483 902.763 240.72 891.369 240.72H602.1C601.457 225.032 588.21 212.506 571.963 212.506C555.716 212.506 542.47 225.032 541.827 240.72H40.4367C29.0425 240.72 19.8057 231.483 19.8057 220.089V43.6311C19.8057 32.2369 29.0425 23 40.4367 23Z"/>
</mask>
<path d="M541.849 23L542.261 22.9766L542.239 22.5874H541.849V23ZM602.077 23V22.5874H601.688L601.665 22.9766L602.077 23ZM602.1 240.72L601.688 240.737L601.704 241.133H602.1V240.72ZM541.827 240.72V241.133H542.223L542.239 240.737L541.827 240.72ZM541.849 22.5874H541.024V23.4126H541.849V22.5874ZM539.375 22.5874H537.726V23.4126H539.375V22.5874ZM536.076 22.5874H534.427V23.4126H536.076V22.5874ZM532.778 22.5874H531.128V23.4126H532.778V22.5874ZM529.479 22.5874H527.829V23.4126H529.479V22.5874ZM526.18 22.5874H524.531V23.4126H526.18V22.5874ZM522.881 22.5874H521.232V23.4126H522.881V22.5874ZM519.583 22.5874H517.933V23.4126H519.583V22.5874ZM516.284 22.5874H514.634V23.4126H516.284V22.5874ZM512.985 22.5874H511.336V23.4126H512.985V22.5874ZM509.686 22.5874H508.037V23.4126H509.686V22.5874ZM506.387 22.5874H504.738V23.4126H506.387V22.5874ZM503.089 22.5874H501.439V23.4126H503.089V22.5874ZM499.79 22.5874H498.141V23.4126H499.79V22.5874ZM496.491 22.5874H494.842V23.4126H496.491V22.5874ZM493.192 22.5874H491.543V23.4126H493.192V22.5874ZM489.894 22.5874H488.244V23.4126H489.894V22.5874ZM486.595 22.5874H484.945V23.4126H486.595V22.5874ZM483.296 22.5874H481.647V23.4126H483.296V22.5874ZM479.997 22.5874H478.348V23.4126H479.997V22.5874ZM476.699 22.5874H475.049V23.4126H476.699V22.5874ZM473.4 22.5874H471.75V23.4126H473.4V22.5874ZM470.101 22.5874H468.452V23.4126H470.101V22.5874ZM466.802 22.5874H465.153V23.4126H466.802V22.5874ZM463.503 22.5874H461.854V23.4126H463.503V22.5874ZM460.205 22.5874H458.555V23.4126H460.205V22.5874ZM456.906 22.5874H455.257V23.4126H456.906V22.5874ZM453.607 22.5874H451.958V23.4126H453.607V22.5874ZM450.308 22.5874H448.659V23.4126H450.308V22.5874ZM447.01 22.5874H445.36V23.4126H447.01V22.5874ZM443.711 22.5874H442.061V23.4126H443.711V22.5874ZM440.412 22.5874H438.763V23.4126H440.412V22.5874ZM437.113 22.5874H435.464V23.4126H437.113V22.5874ZM433.815 22.5874H432.165V23.4126H433.815V22.5874ZM430.516 22.5874H428.866V23.4126H430.516V22.5874ZM427.217 22.5874H425.568V23.4126H427.217V22.5874ZM423.918 22.5874H422.269V23.4126H423.918V22.5874ZM420.62 22.5874H418.97V23.4126H420.62V22.5874ZM417.321 22.5874H415.671V23.4126H417.321V22.5874ZM414.022 22.5874H412.373V23.4126H414.022V22.5874ZM410.723 22.5874H409.074V23.4126H410.723V22.5874ZM407.424 22.5874H405.775V23.4126H407.424V22.5874ZM404.126 22.5874H402.476V23.4126H404.126V22.5874ZM400.827 22.5874H399.178V23.4126H400.827V22.5874ZM397.528 22.5874H395.879V23.4126H397.528V22.5874ZM394.229 22.5874H392.58V23.4126H394.229V22.5874ZM390.931 22.5874H389.281V23.4126H390.931V22.5874ZM387.632 22.5874H385.982V23.4126H387.632V22.5874ZM384.333 22.5874H382.684V23.4126H384.333V22.5874ZM381.034 22.5874H379.385V23.4126H381.034V22.5874ZM377.736 22.5874H376.086V23.4126H377.736V22.5874ZM374.437 22.5874H372.787V23.4126H374.437V22.5874ZM371.138 22.5874H369.489V23.4126H371.138V22.5874ZM367.839 22.5874H366.19V23.4126H367.839V22.5874ZM364.54 22.5874H362.891V23.4126H364.54V22.5874ZM361.242 22.5874H359.592V23.4126H361.242V22.5874ZM357.943 22.5874H356.294V23.4126H357.943V22.5874ZM354.644 22.5874H352.995V23.4126H354.644V22.5874ZM351.345 22.5874H349.696V23.4126H351.345V22.5874ZM348.047 22.5874H346.397V23.4126H348.047V22.5874ZM344.748 22.5874H343.098V23.4126H344.748V22.5874ZM341.449 22.5874H339.8V23.4126H341.449V22.5874ZM338.15 22.5874H336.501V23.4126H338.15V22.5874ZM334.852 22.5874H333.202V23.4126H334.852V22.5874ZM331.553 22.5874H329.903V23.4126H331.553V22.5874ZM328.254 22.5874H326.605V23.4126H328.254V22.5874ZM324.955 22.5874H323.306V23.4126H324.955V22.5874ZM321.656 22.5874H320.007V23.4126H321.656V22.5874ZM318.358 22.5874H316.708V23.4126H318.358V22.5874ZM315.059 22.5874H313.41V23.4126H315.059V22.5874ZM311.76 22.5874H310.111V23.4126H311.76V22.5874ZM308.461 22.5874H306.812V23.4126H308.461V22.5874ZM305.163 22.5874H303.513V23.4126H305.163V22.5874ZM301.864 22.5874H300.215V23.4126H301.864V22.5874ZM298.565 22.5874H296.916V23.4126H298.565V22.5874ZM295.266 22.5874H293.617V23.4126H295.266V22.5874ZM291.968 22.5874H290.318V23.4126H291.968V22.5874ZM288.669 22.5874H287.019V23.4126H288.669V22.5874ZM285.37 22.5874H283.721V23.4126H285.37V22.5874ZM282.071 22.5874H280.422V23.4126H282.071V22.5874ZM278.773 22.5874H277.123V23.4126H278.773V22.5874ZM275.474 22.5874H273.824V23.4126H275.474V22.5874ZM272.175 22.5874H270.526V23.4126H272.175V22.5874ZM268.876 22.5874H267.227V23.4126H268.876V22.5874ZM265.577 22.5874H263.928V23.4126H265.577V22.5874ZM262.279 22.5874H260.629V23.4126H262.279V22.5874ZM258.98 22.5874H257.331V23.4126H258.98V22.5874ZM255.681 22.5874H254.032V23.4126H255.681V22.5874ZM252.382 22.5874H250.733V23.4126H252.382V22.5874ZM249.084 22.5874H247.434V23.4126H249.084V22.5874ZM245.785 22.5874H244.135V23.4126H245.785V22.5874ZM242.486 22.5874H240.837V23.4126H242.486V22.5874ZM239.187 22.5874H237.538V23.4126H239.187V22.5874ZM235.889 22.5874H234.239V23.4126H235.889V22.5874ZM232.59 22.5874H230.94V23.4126H232.59V22.5874ZM229.291 22.5874H227.642V23.4126H229.291V22.5874ZM225.992 22.5874H224.343V23.4126H225.992V22.5874ZM222.693 22.5874H221.044V23.4126H222.693V22.5874ZM219.395 22.5874H217.745V23.4126H219.395V22.5874ZM216.096 22.5874H214.447V23.4126H216.096V22.5874ZM212.797 22.5874H211.148V23.4126H212.797V22.5874ZM209.498 22.5874H207.849V23.4126H209.498V22.5874ZM206.2 22.5874H204.55V23.4126H206.2V22.5874ZM202.901 22.5874H201.252V23.4126H202.901V22.5874ZM199.602 22.5874H197.953V23.4126H199.602V22.5874ZM196.303 22.5874H194.654V23.4126H196.303V22.5874ZM193.005 22.5874H191.355V23.4126H193.005V22.5874ZM189.706 22.5874H188.056V23.4126H189.706V22.5874ZM186.407 22.5874H184.758V23.4126H186.407V22.5874ZM183.108 22.5874H181.459V23.4126H183.108V22.5874ZM179.81 22.5874H178.16V23.4126H179.81V22.5874ZM176.511 22.5874H174.861V23.4126H176.511V22.5874ZM173.212 22.5874H171.563V23.4126H173.212V22.5874ZM169.913 22.5874H168.264V23.4126H169.913V22.5874ZM166.614 22.5874H164.965V23.4126H166.614V22.5874ZM163.316 22.5874H161.666V23.4126H163.316V22.5874ZM160.017 22.5874H158.368V23.4126H160.017V22.5874ZM156.718 22.5874H155.069V23.4126H156.718V22.5874ZM153.419 22.5874H151.77V23.4126H153.419V22.5874ZM150.121 22.5874H148.471V23.4126H150.121V22.5874ZM146.822 22.5874H145.172V23.4126H146.822V22.5874ZM143.523 22.5874H141.874V23.4126H143.523V22.5874ZM140.224 22.5874H138.575V23.4126H140.224V22.5874ZM136.926 22.5874H135.276V23.4126H136.926V22.5874ZM133.627 22.5874H131.977V23.4126H133.627V22.5874ZM130.328 22.5874H128.679V23.4126H130.328V22.5874ZM127.029 22.5874H125.38V23.4126H127.029V22.5874ZM123.73 22.5874H122.081V23.4126H123.73V22.5874ZM120.432 22.5874H118.782V23.4126H120.432V22.5874ZM117.133 22.5874H115.484V23.4126H117.133V22.5874ZM113.834 22.5874H112.185V23.4126H113.834V22.5874ZM110.535 22.5874H108.886V23.4126H110.535V22.5874ZM107.237 22.5874H105.587V23.4126H107.237V22.5874ZM103.938 22.5874H102.288V23.4126H103.938V22.5874ZM100.639 22.5874H98.9897V23.4126H100.639V22.5874ZM97.3403 22.5874H95.6909V23.4126H97.3403V22.5874ZM94.0416 22.5874H92.3922V23.4126H94.0416V22.5874ZM90.7428 22.5874H89.0934V23.4126H90.7428V22.5874ZM87.444 22.5874H85.7947V23.4126H87.444V22.5874ZM84.1452 22.5874H82.4959V23.4126H84.1452V22.5874ZM80.8465 22.5874H79.1971V23.4126H80.8465V22.5874ZM77.5477 22.5874H75.8983V23.4126H77.5477V22.5874ZM74.249 22.5874H72.5996V23.4126H74.249V22.5874ZM70.9502 22.5874H69.3008V23.4126H70.9502V22.5874ZM67.6514 22.5874H66.002V23.4126H67.6514V22.5874ZM64.3527 22.5874H62.7033V23.4126H64.3527V22.5874ZM61.0539 22.5874H59.4045V23.4126H61.0539V22.5874ZM57.7551 22.5874H56.1058V23.4126H57.7551V22.5874ZM54.4563 22.5874H52.807V23.4126H54.4563V22.5874ZM51.1576 22.5874H49.5082V23.4126H51.1576V22.5874ZM47.8588 22.5874H46.2094V23.4126H47.8588V22.5874ZM44.5601 22.5874H42.9107V23.4126H44.5601V22.5874ZM41.2613 22.5874H40.4367V23.4126H41.2613V22.5874ZM40.4367 22.5874C40.1598 22.5874 39.884 22.5927 39.6096 22.6033L39.6415 23.428C39.9053 23.4178 40.1704 23.4126 40.4367 23.4126V22.5874ZM37.9623 22.7314C37.4115 22.7959 36.8672 22.8817 36.3303 22.9879L36.4904 23.7975C37.0062 23.6954 37.5291 23.613 38.0583 23.551L37.9623 22.7314ZM34.7225 23.3726C34.1899 23.5225 33.6658 23.6929 33.1511 23.8828L33.4368 24.657C33.9311 24.4746 34.4345 24.311 34.9461 24.1669L34.7225 23.3726ZM31.6241 24.516C31.1225 24.7477 30.6316 24.9985 30.1523 25.2674L30.5562 25.9871C31.0167 25.7287 31.4883 25.4878 31.9701 25.2653L31.6241 24.516ZM28.7442 26.1321C28.2858 26.439 27.8401 26.7635 27.4081 27.1045L27.9194 27.7522C28.3346 27.4245 28.7628 27.1128 29.2033 26.8179L28.7442 26.1321ZM26.1522 28.1782C25.7477 28.5522 25.3579 28.942 24.9838 29.3465L25.5897 29.9068C25.9492 29.5181 26.3238 29.1435 26.7125 28.784L26.1522 28.1782ZM23.9102 30.6024C23.5691 31.0344 23.2447 31.4801 22.9378 31.9386L23.6235 32.3977C23.9184 31.9572 24.2302 31.5289 24.5579 31.1138L23.9102 30.6024ZM22.0731 33.3467C21.8041 33.826 21.5533 34.3169 21.3217 34.8185L22.0709 35.1644C22.2934 34.6826 22.5343 34.211 22.7928 33.7505L22.0731 33.3467ZM20.6885 36.3455C20.4986 36.8601 20.3282 37.3842 20.1782 37.9169L20.9726 38.1405C21.1166 37.6289 21.2803 37.1255 21.4627 36.6312L20.6885 36.3455ZM19.7936 39.5246C19.6873 40.0616 19.6016 40.6059 19.537 41.1566L20.3567 41.2527C20.4187 40.7235 20.5011 40.2006 20.6031 39.6848L19.7936 39.5246ZM19.409 42.804C19.3984 43.0784 19.393 43.3541 19.393 43.6311H20.2183C20.2183 43.3647 20.2234 43.0996 20.2336 42.8358L19.409 42.804ZM19.393 43.6311V44.4634H20.2183V43.6311H19.393ZM19.393 46.1281V47.7928H20.2183V46.1281H19.393ZM19.393 49.4575V51.1222H20.2183V49.4575H19.393ZM19.393 52.7869V54.4516H20.2183V52.7869H19.393ZM19.393 56.1163V57.781H20.2183V56.1163H19.393ZM19.393 59.4457V61.1104H20.2183V59.4457H19.393ZM19.393 62.7751V64.4398H20.2183V62.7751H19.393ZM19.393 66.1045V67.7692H20.2183V66.1045H19.393ZM19.393 69.4339V71.0986H20.2183V69.4339H19.393ZM19.393 72.7633V74.428H20.2183V72.7633H19.393ZM19.393 76.0927V77.7574H20.2183V76.0927H19.393ZM19.393 79.4221V81.0868H20.2183V79.4221H19.393ZM19.393 82.7515V84.4162H20.2183V82.7515H19.393ZM19.393 86.0809V87.7456H20.2183V86.0809H19.393ZM19.393 89.4103V91.075H20.2183V89.4103H19.393ZM19.393 92.7397V94.4044H20.2183V92.7397H19.393ZM19.393 96.0691V97.7338H20.2183V96.0691H19.393ZM19.393 99.3985V101.063H20.2183V99.3985H19.393ZM19.393 102.728V104.393H20.2183V102.728H19.393ZM19.393 106.057V107.722H20.2183V106.057H19.393ZM19.393 109.387V111.051H20.2183V109.387H19.393ZM19.393 112.716V114.381H20.2183V112.716H19.393ZM19.393 116.045V117.71H20.2183V116.045H19.393ZM19.393 119.375V121.04H20.2183V119.375H19.393ZM19.393 122.704V124.369H20.2183V122.704H19.393ZM19.393 126.034V127.698H20.2183V126.034H19.393ZM19.393 129.363V131.028H20.2183V129.363H19.393ZM19.393 132.692V134.357H20.2183V132.692H19.393ZM19.393 136.022V137.687H20.2183V136.022H19.393ZM19.393 139.351V141.016H20.2183V139.351H19.393ZM19.393 142.681V144.345H20.2183V142.681H19.393ZM19.393 146.01V147.675H20.2183V146.01H19.393ZM19.393 149.339V151.004H20.2183V149.339H19.393ZM19.393 152.669V154.333H20.2183V152.669H19.393ZM19.393 155.998V157.663H20.2183V155.998H19.393ZM19.393 159.328V160.992H20.2183V159.328H19.393ZM19.393 162.657V164.322H20.2183V162.657H19.393ZM19.393 165.986V167.651H20.2183V165.986H19.393ZM19.393 169.316V170.98H20.2183V169.316H19.393ZM19.393 172.645V174.31H20.2183V172.645H19.393ZM19.393 175.975V177.639H20.2183V175.975H19.393ZM19.393 179.304V180.969H20.2183V179.304H19.393ZM19.393 182.633V184.298H20.2183V182.633H19.393ZM19.393 185.963V187.627H20.2183V185.963H19.393ZM19.393 189.292V190.957H20.2183V189.292H19.393ZM19.393 192.622V194.286H20.2183V192.622H19.393ZM19.393 195.951V197.616H20.2183V195.951H19.393ZM19.393 199.28V200.945H20.2183V199.28H19.393ZM19.393 202.61V204.275H20.2183V202.61H19.393ZM19.393 205.939V207.604H20.2183V205.939H19.393ZM19.393 209.269V210.933H20.2183V209.269H19.393ZM19.393 212.598V214.263H20.2183V212.598H19.393ZM19.393 215.927V217.592H20.2183V215.927H19.393ZM19.393 219.257V220.089H20.2183V219.257H19.393ZM19.393 220.089C19.393 220.366 19.3984 220.642 19.409 220.916L20.2336 220.884C20.2234 220.621 20.2183 220.356 20.2183 220.089H19.393ZM19.537 222.564C19.6015 223.114 19.6873 223.659 19.7936 224.196L20.6031 224.036C20.5011 223.52 20.4187 222.997 20.3567 222.468L19.537 222.564ZM20.1782 225.803C20.3282 226.336 20.4986 226.86 20.6885 227.375L21.4627 227.089C21.2803 226.595 21.1166 226.091 20.9726 225.58L20.1782 225.803ZM21.3217 228.902C21.5533 229.403 21.8041 229.894 22.0731 230.374L22.7928 229.97C22.5343 229.509 22.2934 229.038 22.0709 228.556L21.3217 228.902ZM22.9378 231.782C23.2447 232.24 23.5692 232.686 23.9102 233.118L24.5579 232.606C24.2302 232.191 23.9184 231.763 23.6235 231.323L22.9378 231.782ZM24.9838 234.374C25.3579 234.778 25.7477 235.168 26.1522 235.542L26.7125 234.936C26.3238 234.577 25.9492 234.202 25.5897 233.813L24.9838 234.374ZM27.4081 236.616C27.8401 236.957 28.2858 237.281 28.7442 237.588L29.2033 236.902C28.7628 236.607 28.3346 236.296 27.9194 235.968L27.4081 236.616ZM30.1523 238.453C30.6316 238.722 31.1225 238.973 31.6241 239.204L31.9701 238.455C31.4883 238.232 31.0167 237.992 30.5562 237.733L30.1523 238.453ZM33.1511 239.837C33.6658 240.027 34.1899 240.198 34.7225 240.348L34.9462 239.553C34.4345 239.409 33.9312 239.246 33.4369 239.063L33.1511 239.837ZM36.3303 240.732C36.8673 240.839 37.4116 240.924 37.9623 240.989L38.0583 240.169C37.5292 240.107 37.0062 240.025 36.4904 239.923L36.3303 240.732ZM39.6096 241.117C39.8841 241.128 40.1598 241.133 40.4367 241.133V240.308C40.1704 240.308 39.9053 240.302 39.6415 240.292L39.6096 241.117ZM40.4367 241.133H41.2614V240.308H40.4367V241.133ZM42.9107 241.133H44.56V240.308H42.9107V241.133ZM46.2093 241.133H47.8586V240.308H46.2093V241.133ZM49.5079 241.133H51.1573V240.308H49.5079V241.133ZM52.8066 241.133H54.4559V240.308H52.8066V241.133ZM56.1052 241.133H57.7545V240.308H56.1052V241.133ZM59.4038 241.133H61.0531V240.308H59.4038V241.133ZM62.7024 241.133H64.3517V240.308H62.7024V241.133ZM66.001 241.133H67.6503V240.308H66.001V241.133ZM69.2997 241.133H70.949V240.308H69.2997V241.133ZM72.5983 241.133H74.2476V240.308H72.5983V241.133ZM75.8969 241.133H77.5462V240.308H75.8969V241.133ZM79.1955 241.133H80.8448V240.308H79.1955V241.133ZM82.4941 241.133H84.1434V240.308H82.4941V241.133ZM85.7927 241.133H87.442V240.308H85.7927V241.133ZM89.0913 241.133H90.7407V240.308H89.0913V241.133ZM92.39 241.133H94.0393V240.308H92.39V241.133ZM95.6886 241.133H97.3379V240.308H95.6886V241.133ZM98.9872 241.133H100.636V240.308H98.9872V241.133ZM102.286 241.133H103.935V240.308H102.286V241.133ZM105.584 241.133H107.234V240.308H105.584V241.133ZM108.883 241.133H110.532V240.308H108.883V241.133ZM112.182 241.133H113.831V240.308H112.182V241.133ZM115.48 241.133H117.13V240.308H115.48V241.133ZM118.779 241.133H120.428V240.308H118.779V241.133ZM122.077 241.133H123.727V240.308H122.077V241.133ZM125.376 241.133H127.025V240.308H125.376V241.133ZM128.675 241.133H130.324V240.308H128.675V241.133ZM131.973 241.133H133.623V240.308H131.973V241.133ZM135.272 241.133H136.921V240.308H135.272V241.133ZM138.571 241.133H140.22V240.308H138.571V241.133ZM141.869 241.133H143.518V240.308H141.869V241.133ZM145.168 241.133H146.817V240.308H145.168V241.133ZM148.466 241.133H150.116V240.308H148.466V241.133ZM151.765 241.133H153.414V240.308H151.765V241.133ZM155.064 241.133H156.713V240.308H155.064V241.133ZM158.362 241.133H160.012V240.308H158.362V241.133ZM161.661 241.133H163.31V240.308H161.661V241.133ZM164.959 241.133H166.609V240.308H164.959V241.133ZM168.258 241.133H169.907V240.308H168.258V241.133ZM171.557 241.133H173.206V240.308H171.557V241.133ZM174.855 241.133H176.505V240.308H174.855V241.133ZM178.154 241.133H179.803V240.308H178.154V241.133ZM181.453 241.133H183.102V240.308H181.453V241.133ZM184.751 241.133H186.4V240.308H184.751V241.133ZM188.05 241.133H189.699V240.308H188.05V241.133ZM191.348 241.133H192.998V240.308H191.348V241.133ZM194.647 241.133H196.296V240.308H194.647V241.133ZM197.946 241.133H199.595V240.308H197.946V241.133ZM201.244 241.133H202.894V240.308H201.244V241.133ZM204.543 241.133H206.192V240.308H204.543V241.133ZM207.841 241.133H209.491V240.308H207.841V241.133ZM211.14 241.133H212.789V240.308H211.14V241.133ZM214.439 241.133H216.088V240.308H214.439V241.133ZM217.737 241.133H219.387V240.308H217.737V241.133ZM221.036 241.133H222.685V240.308H221.036V241.133ZM224.335 241.133H225.984V240.308H224.335V241.133ZM227.633 241.133H229.282V240.308H227.633V241.133ZM230.932 241.133H232.581V240.308H230.932V241.133ZM234.23 241.133H235.88V240.308H234.23V241.133ZM237.529 241.133H239.178V240.308H237.529V241.133ZM240.828 241.133H242.477V240.308H240.828V241.133ZM244.126 241.133H245.776V240.308H244.126V241.133ZM247.425 241.133H249.074V240.308H247.425V241.133ZM250.723 241.133H252.373V240.308H250.723V241.133ZM254.022 241.133H255.671V240.308H254.022V241.133ZM257.321 241.133H258.97V240.308H257.321V241.133ZM260.619 241.133H262.269V240.308H260.619V241.133ZM263.918 241.133H265.567V240.308H263.918V241.133ZM267.217 241.133H268.866V240.308H267.217V241.133ZM270.515 241.133H272.164V240.308H270.515V241.133ZM273.814 241.133H275.463V240.308H273.814V241.133ZM277.112 241.133H278.762V240.308H277.112V241.133ZM280.411 241.133H282.06V240.308H280.411V241.133ZM283.71 241.133H285.359V240.308H283.71V241.133ZM287.008 241.133H288.658V240.308H287.008V241.133ZM290.307 241.133H291.956V240.308H290.307V241.133ZM293.605 241.133H295.255V240.308H293.605V241.133ZM296.904 241.133H298.553V240.308H296.904V241.133ZM300.203 241.133H301.852V240.308H300.203V241.133ZM303.501 241.133H305.151V240.308H303.501V241.133ZM306.8 241.133H308.449V240.308H306.8V241.133ZM310.099 241.133H311.748V240.308H310.099V241.133ZM313.397 241.133H315.047V240.308H313.397V241.133ZM316.696 241.133H318.345V240.308H316.696V241.133ZM319.995 241.133H321.644V240.308H319.995V241.133ZM323.293 241.133H324.943V240.308H323.293V241.133ZM326.592 241.133H328.241V240.308H326.592V241.133ZM329.891 241.133H331.54V240.308H329.891V241.133ZM333.189 241.133H334.838V240.308H333.189V241.133ZM336.488 241.133H338.137V240.308H336.488V241.133ZM339.786 241.133H341.436V240.308H339.786V241.133ZM343.085 241.133H344.734V240.308H343.085V241.133ZM346.384 241.133H348.033V240.308H346.384V241.133ZM349.682 241.133H351.332V240.308H349.682V241.133ZM352.981 241.133H354.63V240.308H352.981V241.133ZM356.28 241.133H357.929V240.308H356.28V241.133ZM359.578 241.133H361.228V240.308H359.578V241.133ZM362.877 241.133H364.526V240.308H362.877V241.133ZM366.176 241.133H367.825V240.308H366.176V241.133ZM369.474 241.133H371.124V240.308H369.474V241.133ZM372.773 241.133H374.422V240.308H372.773V241.133ZM376.072 241.133H377.721V240.308H376.072V241.133ZM379.37 241.133H381.02V240.308H379.37V241.133ZM382.669 241.133H384.318V240.308H382.669V241.133ZM385.967 241.133H387.617V240.308H385.967V241.133ZM389.266 241.133H390.915V240.308H389.266V241.133ZM392.565 241.133H394.214V240.308H392.565V241.133ZM395.863 241.133H397.513V240.308H395.863V241.133ZM399.162 241.133H400.811V240.308H399.162V241.133ZM402.461 241.133H404.11V240.308H402.461V241.133ZM405.759 241.133H407.409V240.308H405.759V241.133ZM409.058 241.133H410.707V240.308H409.058V241.133ZM412.357 241.133H414.006V240.308H412.357V241.133ZM415.655 241.133H417.305V240.308H415.655V241.133ZM418.954 241.133H420.603V240.308H418.954V241.133ZM422.253 241.133H423.902V240.308H422.253V241.133ZM425.551 241.133H427.201V240.308H425.551V241.133ZM428.85 241.133H430.499V240.308H428.85V241.133ZM432.148 241.133H433.798V240.308H432.148V241.133ZM435.447 241.133H437.096V240.308H435.447V241.133ZM438.746 241.133H440.395V240.308H438.746V241.133ZM442.044 241.133H443.694V240.308H442.044V241.133ZM445.343 241.133H446.992V240.308H445.343V241.133ZM448.642 241.133H450.291V240.308H448.642V241.133ZM451.94 241.133H453.59V240.308H451.94V241.133ZM455.239 241.133H456.888V240.308H455.239V241.133ZM458.538 241.133H460.187V240.308H458.538V241.133ZM461.836 241.133H463.486V240.308H461.836V241.133ZM465.135 241.133H466.784V240.308H465.135V241.133ZM468.434 241.133H470.083V240.308H468.434V241.133ZM471.732 241.133H473.382V240.308H471.732V241.133ZM475.031 241.133H476.68V240.308H475.031V241.133ZM478.33 241.133H479.979V240.308H478.33V241.133ZM481.628 241.133H483.277V240.308H481.628V241.133ZM484.927 241.133H486.576V240.308H484.927V241.133ZM488.225 241.133H489.875V240.308H488.225V241.133ZM491.524 241.133H493.173V240.308H491.524V241.133ZM494.823 241.133H496.472V240.308H494.823V241.133ZM498.121 241.133H499.771V240.308H498.121V241.133ZM501.42 241.133H503.069V240.308H501.42V241.133ZM504.719 241.133H506.368V240.308H504.719V241.133ZM508.017 241.133H509.667V240.308H508.017V241.133ZM511.316 241.133H512.965V240.308H511.316V241.133ZM514.615 241.133H516.264V240.308H514.615V241.133ZM517.913 241.133H519.563V240.308H517.913V241.133ZM521.212 241.133H522.861V240.308H521.212V241.133ZM524.511 241.133H526.16V240.308H524.511V241.133ZM527.809 241.133H529.459V240.308H527.809V241.133ZM531.108 241.133H532.757V240.308H531.108V241.133ZM534.406 241.133H536.056V240.308H534.406V241.133ZM537.705 241.133H539.354V240.308H537.705V241.133ZM541.004 241.133H541.827V240.308H541.004V241.133ZM542.239 240.737C542.25 240.468 542.265 240.201 542.283 239.934L541.46 239.877C541.441 240.151 541.426 240.427 541.414 240.703L542.239 240.737ZM542.439 238.337C542.506 237.804 542.589 237.275 542.685 236.751L541.874 236.602C541.774 237.141 541.69 237.685 541.62 238.234L542.439 238.337ZM543.021 235.183C543.148 234.661 543.29 234.145 543.445 233.635L542.656 233.394C542.496 233.919 542.35 234.45 542.219 234.987L543.021 235.183ZM543.957 232.114C544.143 231.611 544.342 231.114 544.555 230.624L543.798 230.295C543.579 230.799 543.374 231.311 543.183 231.828L543.957 232.114ZM545.235 229.17C545.476 228.692 545.73 228.221 545.996 227.757L545.281 227.346C545.007 227.822 544.745 228.307 544.498 228.8L545.235 229.17ZM546.835 226.389C547.127 225.94 547.432 225.5 547.748 225.068L547.083 224.58C546.757 225.024 546.444 225.477 546.143 225.938L546.835 226.389ZM548.733 223.8C549.073 223.387 549.424 222.983 549.786 222.588L549.178 222.03C548.806 222.436 548.445 222.851 548.096 223.276L548.733 223.8ZM550.904 221.435C551.287 221.061 551.68 220.698 552.083 220.345L551.539 219.724C551.125 220.087 550.721 220.461 550.327 220.845L550.904 221.435ZM553.319 219.319C553.74 218.989 554.17 218.67 554.609 218.362L554.135 217.686C553.684 218.003 553.242 218.331 552.809 218.67L553.319 219.319ZM555.948 217.476C556.401 217.193 556.863 216.921 557.333 216.662L556.934 215.94C556.451 216.206 555.977 216.485 555.511 216.775L555.948 217.476ZM558.759 215.925C559.24 215.692 559.728 215.472 560.223 215.264L559.904 214.503C559.396 214.716 558.894 214.943 558.4 215.182L558.759 215.925ZM561.721 214.683C562.224 214.504 562.733 214.337 563.248 214.183L563.012 213.392C562.483 213.55 561.96 213.722 561.443 213.906L561.721 214.683ZM564.799 213.765C565.317 213.64 565.841 213.529 566.369 213.431L566.219 212.619C565.676 212.72 565.138 212.835 564.605 212.963L564.799 213.765ZM567.956 213.18C568.484 213.11 569.017 213.055 569.553 213.013L569.489 212.19C568.938 212.233 568.391 212.29 567.848 212.362L567.956 213.18ZM571.158 212.929C571.425 212.922 571.694 212.919 571.963 212.919V212.094C571.687 212.094 571.411 212.097 571.136 212.104L571.158 212.929ZM571.963 212.919C572.233 212.919 572.501 212.922 572.769 212.929L572.79 212.104C572.515 212.097 572.24 212.094 571.963 212.094V212.919ZM574.373 213.013C574.91 213.055 575.443 213.11 575.971 213.18L576.078 212.362C575.536 212.29 574.989 212.233 574.438 212.19L574.373 213.013ZM577.557 213.431C578.086 213.529 578.609 213.64 579.128 213.765L579.321 212.963C578.789 212.835 578.251 212.72 577.708 212.619L577.557 213.431ZM580.679 214.183C581.194 214.337 581.703 214.504 582.206 214.683L582.483 213.906C581.967 213.722 581.444 213.55 580.915 213.392L580.679 214.183ZM583.703 215.264C584.198 215.472 584.687 215.692 585.167 215.925L585.527 215.182C585.033 214.943 584.531 214.716 584.022 214.503L583.703 215.264ZM586.594 216.662C587.064 216.921 587.525 217.193 587.979 217.476L588.416 216.775C587.95 216.485 587.475 216.206 586.993 215.94L586.594 216.662ZM589.318 218.362C589.757 218.67 590.187 218.989 590.608 219.319L591.117 218.67C590.685 218.331 590.243 218.003 589.792 217.686L589.318 218.362ZM591.844 220.345C592.247 220.698 592.64 221.061 593.023 221.435L593.599 220.845C593.206 220.461 592.802 220.087 592.388 219.724L591.844 220.345ZM594.14 222.588C594.502 222.983 594.853 223.387 595.193 223.8L595.831 223.276C595.481 222.851 595.12 222.436 594.748 222.03L594.14 222.588ZM596.178 225.068C596.495 225.5 596.799 225.94 597.092 226.389L597.783 225.938C597.482 225.477 597.169 225.024 596.844 224.58L596.178 225.068ZM597.93 227.757C598.197 228.221 598.451 228.692 598.691 229.17L599.429 228.8C599.181 228.307 598.92 227.822 598.646 227.346L597.93 227.757ZM599.372 230.624C599.585 231.114 599.784 231.611 599.969 232.114L600.744 231.828C600.553 231.311 600.348 230.799 600.129 230.295L599.372 230.624ZM600.481 233.635C600.637 234.145 600.778 234.661 600.906 235.183L601.707 234.987C601.576 234.45 601.431 233.919 601.27 233.394L600.481 233.635ZM601.241 236.751C601.338 237.275 601.42 237.804 601.487 238.337L602.306 238.234C602.237 237.685 602.152 237.141 602.053 236.602L601.241 236.751ZM601.643 239.934C601.662 240.201 601.677 240.468 601.688 240.737L602.512 240.703C602.501 240.427 602.486 240.151 602.467 239.877L601.643 239.934ZM602.1 241.133H602.922V240.308H602.1V241.133ZM604.565 241.133H606.209V240.308H604.565V241.133ZM607.852 241.133H609.496V240.308H607.852V241.133ZM611.139 241.133H612.783V240.308H611.139V241.133ZM614.427 241.133H616.07V240.308H614.427V241.133ZM617.714 241.133H619.357V240.308H617.714V241.133ZM621.001 241.133H622.644V240.308H621.001V241.133ZM624.288 241.133H625.932V240.308H624.288V241.133ZM627.575 241.133H629.219V240.308H627.575V241.133ZM630.862 241.133H632.506V240.308H630.862V241.133ZM634.149 241.133H635.793V240.308H634.149V241.133ZM637.437 241.133H639.08V240.308H637.437V241.133ZM640.724 241.133H642.367V240.308H640.724V241.133ZM644.011 241.133H645.654V240.308H644.011V241.133ZM647.298 241.133H648.942V240.308H647.298V241.133ZM650.585 241.133H652.229V240.308H650.585V241.133ZM653.872 241.133H655.516V240.308H653.872V241.133ZM657.159 241.133H658.803V240.308H657.159V241.133ZM660.447 241.133H662.09V240.308H660.447V241.133ZM663.734 241.133H665.377V240.308H663.734V241.133ZM667.021 241.133H668.665V240.308H667.021V241.133ZM670.308 241.133H671.952V240.308H670.308V241.133ZM673.595 241.133H675.239V240.308H673.595V241.133ZM676.882 241.133H678.526V240.308H676.882V241.133ZM680.169 241.133H681.813V240.308H680.169V241.133ZM683.457 241.133H685.1V240.308H683.457V241.133ZM686.744 241.133H688.387V240.308H686.744V241.133ZM690.031 241.133H691.674V240.308H690.031V241.133ZM693.318 241.133H694.962V240.308H693.318V241.133ZM696.605 241.133H698.249V240.308H696.605V241.133ZM699.892 241.133H701.536V240.308H699.892V241.133ZM703.18 241.133H704.823V240.308H703.18V241.133ZM706.467 241.133H708.11V240.308H706.467V241.133ZM709.754 241.133H711.397V240.308H709.754V241.133ZM713.041 241.133H714.685V240.308H713.041V241.133ZM716.328 241.133H717.972V240.308H716.328V241.133ZM719.615 241.133H721.259V240.308H719.615V241.133ZM722.902 241.133H724.546V240.308H722.902V241.133ZM726.189 241.133H727.833V240.308H726.189V241.133ZM729.477 241.133H731.12V240.308H729.477V241.133ZM732.764 241.133H734.407V240.308H732.764V241.133ZM736.051 241.133H737.694V240.308H736.051V241.133ZM739.338 241.133H740.982V240.308H739.338V241.133ZM742.625 241.133H744.269V240.308H742.625V241.133ZM745.912 241.133H747.556V240.308H745.912V241.133ZM749.199 241.133H750.843V240.308H749.199V241.133ZM752.487 241.133H754.13V240.308H752.487V241.133ZM755.774 241.133H757.417V240.308H755.774V241.133ZM759.061 241.133H760.704V240.308H759.061V241.133ZM762.348 241.133H763.992V240.308H762.348V241.133ZM765.635 241.133H767.279V240.308H765.635V241.133ZM768.922 241.133H770.566V240.308H768.922V241.133ZM772.209 241.133H773.853V240.308H772.209V241.133ZM775.497 241.133H777.14V240.308H775.497V241.133ZM778.784 241.133H780.427V240.308H778.784V241.133ZM782.071 241.133H783.714V240.308H782.071V241.133ZM785.358 241.133H787.002V240.308H785.358V241.133ZM788.645 241.133H790.289V240.308H788.645V241.133ZM791.932 241.133H793.576V240.308H791.932V241.133ZM795.219 241.133H796.863V240.308H795.219V241.133ZM798.507 241.133H800.15V240.308H798.507V241.133ZM801.794 241.133H803.437V240.308H801.794V241.133ZM805.081 241.133H806.724V240.308H805.081V241.133ZM808.368 241.133H810.012V240.308H808.368V241.133ZM811.655 241.133H813.299V240.308H811.655V241.133ZM814.942 241.133H816.586V240.308H814.942V241.133ZM818.229 241.133H819.873V240.308H818.229V241.133ZM821.517 241.133H823.16V240.308H821.517V241.133ZM824.804 241.133H826.447V240.308H824.804V241.133ZM828.091 241.133H829.734V240.308H828.091V241.133ZM831.378 241.133H833.021V240.308H831.378V241.133ZM834.665 241.133H836.309V240.308H834.665V241.133ZM837.952 241.133H839.596V240.308H837.952V241.133ZM841.239 241.133H842.883V240.308H841.239V241.133ZM844.526 241.133H846.17V240.308H844.526V241.133ZM847.814 241.133H849.457V240.308H847.814V241.133ZM851.101 241.133H852.744V240.308H851.101V241.133ZM854.388 241.133H856.031V240.308H854.388V241.133ZM857.675 241.133H859.319V240.308H857.675V241.133ZM860.962 241.133H862.606V240.308H860.962V241.133ZM864.249 241.133H865.893V240.308H864.249V241.133ZM867.537 241.133H869.18V240.308H867.537V241.133ZM870.824 241.133H872.467V240.308H870.824V241.133ZM874.111 241.133H875.754V240.308H874.111V241.133ZM877.398 241.133H879.042V240.308H877.398V241.133ZM880.685 241.133H882.329V240.308H880.685V241.133ZM883.972 241.133H885.616V240.308H883.972V241.133ZM887.26 241.133H888.903V240.308H887.26V241.133ZM890.547 241.133H891.369V240.308H890.547V241.133ZM891.369 241.133C891.646 241.133 891.921 241.128 892.196 241.117L892.164 240.292C891.9 240.302 891.635 240.308 891.369 240.308V241.133ZM893.843 240.989C894.394 240.924 894.938 240.839 895.475 240.732L895.315 239.923C894.799 240.025 894.276 240.107 893.747 240.169L893.843 240.989ZM897.083 240.348C897.616 240.198 898.14 240.027 898.654 239.837L898.369 239.063C897.874 239.246 897.371 239.409 896.859 239.553L897.083 240.348ZM900.181 239.204C900.683 238.973 901.174 238.722 901.653 238.453L901.249 237.733C900.789 237.992 900.317 238.232 899.835 238.455L900.181 239.204ZM903.061 237.588C903.52 237.281 903.965 236.957 904.397 236.616L903.886 235.968C903.471 236.296 903.043 236.607 902.602 236.902L903.061 237.588ZM905.653 235.542C906.058 235.168 906.448 234.778 906.822 234.374L906.216 233.813C905.856 234.202 905.482 234.577 905.093 234.936L905.653 235.542ZM907.895 233.118C908.236 232.686 908.561 232.24 908.868 231.782L908.182 231.323C907.887 231.763 907.575 232.191 907.247 232.606L907.895 233.118ZM909.732 230.374C910.001 229.894 910.252 229.403 910.484 228.902L909.734 228.556C909.512 229.038 909.271 229.509 909.013 229.97L909.732 230.374ZM911.117 227.375C911.307 226.86 911.477 226.336 911.627 225.803L910.833 225.58C910.689 226.091 910.525 226.595 910.343 227.089L911.117 227.375ZM912.012 224.196C912.118 223.659 912.204 223.114 912.268 222.564L911.449 222.468C911.387 222.997 911.304 223.52 911.202 224.035L912.012 224.196ZM912.396 220.916C912.407 220.642 912.412 220.366 912.412 220.089H911.587C911.587 220.355 911.582 220.621 911.572 220.884L912.396 220.916ZM912.412 220.089V219.257H911.587V220.089H912.412ZM912.412 217.592V215.927H911.587V217.592H912.412ZM912.412 214.263V212.598H911.587V214.263H912.412ZM912.412 210.933V209.269H911.587V210.933H912.412ZM912.412 207.604V205.939H911.587V207.604H912.412ZM912.412 204.275V202.61H911.587V204.275H912.412ZM912.412 200.945V199.28H911.587V200.945H912.412ZM912.412 197.616V195.951H911.587V197.616H912.412ZM912.412 194.286V192.622H911.587V194.286H912.412ZM912.412 190.957V189.292H911.587V190.957H912.412ZM912.412 187.628V185.963H911.587V187.628H912.412ZM912.412 184.298V182.633H911.587V184.298H912.412ZM912.412 180.969V179.304H911.587V180.969H912.412ZM912.412 177.639V175.975H911.587V177.639H912.412ZM912.412 174.31V172.645H911.587V174.31H912.412ZM912.412 170.981V169.316H911.587V170.981H912.412ZM912.412 167.651V165.986H911.587V167.651H912.412ZM912.412 164.322V162.657H911.587V164.322H912.412ZM912.412 160.992V159.328H911.587V160.992H912.412ZM912.412 157.663V155.998H911.587V157.663H912.412ZM912.412 154.334V152.669H911.587V154.334H912.412ZM912.412 151.004V149.339H911.587V151.004H912.412ZM912.412 147.675V146.01H911.587V147.675H912.412ZM912.412 144.345V142.681H911.587V144.345H912.412ZM912.412 141.016V139.351H911.587V141.016H912.412ZM912.412 137.687V136.022H911.587V137.687H912.412ZM912.412 134.357V132.693H911.587V134.357H912.412ZM912.412 131.028V129.363H911.587V131.028H912.412ZM912.412 127.698V126.034H911.587V127.698H912.412ZM912.412 124.369V122.704H911.587V124.369H912.412ZM912.412 121.04V119.375H911.587V121.04H912.412ZM912.412 117.71V116.046H911.587V117.71H912.412ZM912.412 114.381V112.716H911.587V114.381H912.412ZM912.412 111.051V109.387H911.587V111.051H912.412ZM912.412 107.722V106.057H911.587V107.722H912.412ZM912.412 104.393V102.728H911.587V104.393H912.412ZM912.412 101.063V99.3986H911.587V101.063H912.412ZM912.412 97.7339V96.0692H911.587V97.7339H912.412ZM912.412 94.4045V92.7398H911.587V94.4045H912.412ZM912.412 91.0751V89.4104H911.587V91.0751H912.412ZM912.412 87.7457V86.081H911.587V87.7457H912.412ZM912.412 84.4163V82.7516H911.587V84.4163H912.412ZM912.412 81.0869V79.4222H911.587V81.0869H912.412ZM912.412 77.7575V76.0928H911.587V77.7575H912.412ZM912.412 74.4281V72.7634H911.587V74.4281H912.412ZM912.412 71.0987V69.434H911.587V71.0987H912.412ZM912.412 67.7693V66.1045H911.587V67.7693H912.412ZM912.412 64.4398V62.7751H911.587V64.4398H912.412ZM912.412 61.1104V59.4457H911.587V61.1104H912.412ZM912.412 57.781V56.1163H911.587V57.781H912.412ZM912.412 54.4516V52.7869H911.587V54.4516H912.412ZM912.412 51.1222V49.4575H911.587V51.1222H912.412ZM912.412 47.7928V46.1281H911.587V47.7928H912.412ZM912.412 44.4634V43.6311H911.587V44.4634H912.412ZM912.412 43.6311C912.412 43.3541 912.407 43.0784 912.396 42.804L911.572 42.8358C911.582 43.0996 911.587 43.3647 911.587 43.6311H912.412ZM912.268 41.1566C912.204 40.6059 912.118 40.0616 912.012 39.5246L911.202 39.6847C911.304 40.2006 911.387 40.7235 911.449 41.2527L912.268 41.1566ZM911.627 37.9169C911.477 37.3842 911.307 36.8601 911.117 36.3455L910.343 36.6312C910.525 37.1255 910.689 37.6289 910.833 38.1405L911.627 37.9169ZM910.484 34.8185C910.252 34.3169 910.001 33.8259 909.732 33.3466L909.013 33.7505C909.271 34.211 909.512 34.6826 909.734 35.1644L910.484 34.8185ZM908.868 31.9386C908.561 31.4801 908.236 31.0344 907.895 30.6024L907.247 31.1138C907.575 31.5289 907.887 31.9572 908.182 32.3977L908.868 31.9386ZM906.822 29.3465C906.448 28.942 906.058 28.5522 905.653 28.1781L905.093 28.784C905.482 29.1435 905.856 29.5181 906.216 29.9068L906.822 29.3465ZM904.397 27.1045C903.965 26.7635 903.52 26.439 903.061 26.1321L902.602 26.8179C903.043 27.1128 903.471 27.4245 903.886 27.7522L904.397 27.1045ZM901.653 25.2674C901.174 24.9984 900.683 24.7477 900.181 24.516L899.835 25.2653C900.317 25.4878 900.789 25.7287 901.249 25.9871L901.653 25.2674ZM898.654 23.8828C898.14 23.6929 897.616 23.5225 897.083 23.3726L896.859 24.1669C897.371 24.311 897.874 24.4746 898.369 24.657L898.654 23.8828ZM895.475 22.9879C894.938 22.8817 894.394 22.7959 893.843 22.7314L893.747 23.551C894.276 23.613 894.799 23.6954 895.315 23.7975L895.475 22.9879ZM892.196 22.6033C891.921 22.5927 891.646 22.5874 891.369 22.5874V23.4126C891.635 23.4126 891.9 23.4178 892.164 23.428L892.196 22.6033ZM891.369 22.5874H890.547V23.4126H891.369V22.5874ZM888.903 22.5874H887.259V23.4126H888.903V22.5874ZM885.616 22.5874H883.972V23.4126H885.616V22.5874ZM882.328 22.5874H880.685V23.4126H882.328V22.5874ZM879.041 22.5874H877.397V23.4126H879.041V22.5874ZM875.753 22.5874H874.11V23.4126H875.753V22.5874ZM872.466 22.5874H870.822V23.4126H872.466V22.5874ZM869.179 22.5874H867.535V23.4126H869.179V22.5874ZM865.891 22.5874H864.248V23.4126H865.891V22.5874ZM862.604 22.5874H860.96V23.4126H862.604V22.5874ZM859.316 22.5874H857.673V23.4126H859.316V22.5874ZM856.029 22.5874H854.385V23.4126H856.029V22.5874ZM852.742 22.5874H851.098V23.4126H852.742V22.5874ZM849.454 22.5874H847.811V23.4126H849.454V22.5874ZM846.167 22.5874H844.523V23.4126H846.167V22.5874ZM842.879 22.5874H841.236V23.4126H842.879V22.5874ZM839.592 22.5874H837.948V23.4126H839.592V22.5874ZM836.305 22.5874H834.661V23.4126H836.305V22.5874ZM833.017 22.5874H831.374V23.4126H833.017V22.5874ZM829.73 22.5874H828.086V23.4126H829.73V22.5874ZM826.443 22.5874H824.799V23.4126H826.443V22.5874ZM823.155 22.5874H821.511V23.4126H823.155V22.5874ZM819.868 22.5874H818.224V23.4126H819.868V22.5874ZM816.58 22.5874H814.937V23.4126H816.58V22.5874ZM813.293 22.5874H811.649V23.4126H813.293V22.5874ZM810.005 22.5874H808.362V23.4126H810.005V22.5874ZM806.718 22.5874H805.074V23.4126H806.718V22.5874ZM803.431 22.5874H801.787V23.4126H803.431V22.5874ZM800.143 22.5874H798.5V23.4126H800.143V22.5874ZM796.856 22.5874H795.212V23.4126H796.856V22.5874ZM793.568 22.5874H791.925V23.4126H793.568V22.5874ZM790.281 22.5874H788.637V23.4126H790.281V22.5874ZM786.994 22.5874H785.35V23.4126H786.994V22.5874ZM783.706 22.5874H782.063V23.4126H783.706V22.5874ZM780.419 22.5874H778.775V23.4126H780.419V22.5874ZM777.132 22.5874H775.488V23.4126H777.132V22.5874ZM773.844 22.5874H772.2V23.4126H773.844V22.5874ZM770.557 22.5874H768.913V23.4126H770.557V22.5874ZM767.269 22.5874H765.626V23.4126H767.269V22.5874ZM763.982 22.5874H762.338V23.4126H763.982V22.5874ZM760.694 22.5874H759.051V23.4126H760.694V22.5874ZM757.407 22.5874H755.763V23.4126H757.407V22.5874ZM754.12 22.5874H752.476V23.4126H754.12V22.5874ZM750.832 22.5874H749.189V23.4126H750.832V22.5874ZM747.545 22.5874H745.901V23.4126H747.545V22.5874ZM744.257 22.5874H742.614V23.4126H744.257V22.5874ZM740.97 22.5874H739.326V23.4126H740.97V22.5874ZM737.683 22.5874H736.039V23.4126H737.683V22.5874ZM734.395 22.5874H732.751V23.4126H734.395V22.5874ZM731.108 22.5874H729.464V23.4126H731.108V22.5874ZM727.82 22.5874H726.177V23.4126H727.82V22.5874ZM724.533 22.5874H722.889V23.4126H724.533V22.5874ZM721.245 22.5874H719.602V23.4126H721.245V22.5874ZM717.958 22.5874H716.314V23.4126H717.958V22.5874ZM714.671 22.5874H713.027V23.4126H714.671V22.5874ZM711.383 22.5874H709.74V23.4126H711.383V22.5874ZM708.096 22.5874H706.452V23.4126H708.096V22.5874ZM704.808 22.5874H703.165V23.4126H704.808V22.5874ZM701.521 22.5874H699.877V23.4126H701.521V22.5874ZM698.234 22.5874H696.59V23.4126H698.234V22.5874ZM694.946 22.5874H693.302V23.4126H694.946V22.5874ZM691.659 22.5874H690.015V23.4126H691.659V22.5874ZM688.371 22.5874H686.728V23.4126H688.371V22.5874ZM685.084 22.5874H683.44V23.4126H685.084V22.5874ZM681.797 22.5874H680.153V23.4126H681.797V22.5874ZM678.509 22.5874H676.865V23.4126H678.509V22.5874ZM675.222 22.5874H673.578V23.4126H675.222V22.5874ZM671.934 22.5874H670.291V23.4126H671.934V22.5874ZM668.647 22.5874H667.003V23.4126H668.647V22.5874ZM665.359 22.5874H663.716V23.4126H665.359V22.5874ZM662.072 22.5874H660.428V23.4126H662.072V22.5874ZM658.785 22.5874H657.141V23.4126H658.785V22.5874ZM655.497 22.5874H653.854V23.4126H655.497V22.5874ZM652.21 22.5874H650.566V23.4126H652.21V22.5874ZM648.922 22.5874H647.279V23.4126H648.922V22.5874ZM645.635 22.5874H643.991V23.4126H645.635V22.5874ZM642.348 22.5874H640.704V23.4126H642.348V22.5874ZM639.06 22.5874H637.416V23.4126H639.06V22.5874ZM635.773 22.5874H634.129V23.4126H635.773V22.5874ZM632.485 22.5874H630.842V23.4126H632.485V22.5874ZM629.198 22.5874H627.554V23.4126H629.198V22.5874ZM625.911 22.5874H624.267V23.4126H625.911V22.5874ZM622.623 22.5874H620.979V23.4126H622.623V22.5874ZM619.336 22.5874H617.692V23.4126H619.336V22.5874ZM616.048 22.5874H614.405V23.4126H616.048V22.5874ZM612.761 22.5874H611.117V23.4126H612.761V22.5874ZM609.473 22.5874H607.83V23.4126H609.473V22.5874ZM606.186 22.5874H604.542V23.4126H606.186V22.5874ZM602.899 22.5874H602.077V23.4126H602.899V22.5874ZM601.665 22.9766C601.65 23.2423 601.631 23.507 601.609 23.7708L602.431 23.8406C602.454 23.5692 602.474 23.2968 602.489 23.0234L601.665 22.9766ZM601.43 25.3492C601.356 25.8757 601.267 26.3977 601.164 26.9148L601.973 27.0763C602.079 26.5441 602.171 26.0068 602.248 25.4649L601.43 25.3492ZM600.809 28.4628C600.676 28.9772 600.529 29.4861 600.368 29.9891L601.154 30.2405C601.319 29.7228 601.471 29.1991 601.608 28.6697L600.809 28.4628ZM599.841 31.4882C599.651 31.9839 599.448 32.4731 599.231 32.9554L599.984 33.2933C600.207 32.7969 600.416 32.2935 600.612 31.7835L599.841 31.4882ZM598.541 34.3863C598.297 34.8573 598.041 35.3209 597.772 35.7767L598.483 36.1959C598.759 35.727 599.023 35.2501 599.274 34.7656L598.541 34.3863ZM596.927 37.1227C596.633 37.5637 596.327 37.9964 596.01 38.4205L596.67 38.9151C596.997 38.479 597.311 38.034 597.614 37.5804L596.927 37.1227ZM595.023 39.6665C594.683 40.0726 594.332 40.4697 593.97 40.8572L594.573 41.4204C594.945 41.022 595.306 40.6138 595.656 40.1962L595.023 39.6665ZM592.854 41.9894C592.472 42.3564 592.08 42.7135 591.679 43.0602L592.218 43.6848C592.631 43.3285 593.034 42.9615 593.426 42.5842L592.854 41.9894ZM590.448 44.0666C590.029 44.3906 589.602 44.7038 589.165 45.0059L589.635 45.6845C590.083 45.3741 590.523 45.0522 590.953 44.7192L590.448 44.0666ZM587.834 45.8754C587.384 46.1529 586.925 46.4189 586.459 46.673L586.854 47.3976C587.333 47.1365 587.804 46.8632 588.267 46.578L587.834 45.8754ZM585.043 47.3965C584.566 47.6245 584.082 47.8404 583.591 48.0439L583.907 48.8062C584.411 48.5972 584.909 48.3753 585.399 48.141L585.043 47.3965ZM582.106 48.6134C581.608 48.7895 581.104 48.9531 580.593 49.1036L580.827 49.8951C581.351 49.7405 581.869 49.5724 582.381 49.3915L582.106 48.6134ZM579.057 49.5131C578.544 49.6355 578.025 49.7449 577.501 49.841L577.65 50.6527C578.188 50.554 578.721 50.4416 579.248 50.3158L579.057 49.5131ZM575.931 50.0869C575.408 50.1548 574.88 50.2095 574.349 50.2506L574.413 51.0734C574.958 51.0312 575.5 50.9751 576.037 50.9053L575.931 50.0869ZM572.761 50.3323C572.496 50.3391 572.23 50.3425 571.963 50.3425V51.1677C572.237 51.1677 572.51 51.1642 572.782 51.1573L572.761 50.3323ZM571.963 50.3425C571.697 50.3425 571.431 50.3391 571.166 50.3323L571.145 51.1573C571.417 51.1642 571.69 51.1677 571.963 51.1677V50.3425ZM569.578 50.2506C569.046 50.2095 568.519 50.1548 567.996 50.0869L567.89 50.9053C568.427 50.9751 568.968 51.0312 569.514 51.0734L569.578 50.2506ZM566.425 49.841C565.902 49.7449 565.383 49.6355 564.87 49.5131L564.678 50.3158C565.206 50.4416 565.738 50.554 566.276 50.6527L566.425 49.841ZM563.333 49.1036C562.823 48.9531 562.318 48.7895 561.82 48.6134L561.545 49.3915C562.057 49.5724 562.575 49.7405 563.1 49.8951L563.333 49.1036ZM560.335 48.0439C559.844 47.8404 559.36 47.6245 558.883 47.3965L558.527 48.141C559.017 48.3753 559.515 48.5972 560.02 48.8063L560.335 48.0439ZM557.467 46.673C557.001 46.4189 556.542 46.1529 556.092 45.8754L555.659 46.578C556.122 46.8632 556.593 47.1365 557.072 47.3976L557.467 46.673ZM554.761 45.0059C554.325 44.7038 553.897 44.3906 553.478 44.0666L552.973 44.7192C553.404 45.0522 553.843 45.3741 554.292 45.6845L554.761 45.0059ZM552.248 43.0602C551.846 42.7135 551.454 42.3564 551.072 41.9894L550.5 42.5842C550.893 42.9615 551.296 43.3285 551.708 43.6848L552.248 43.0602ZM549.957 40.8572C549.595 40.4697 549.244 40.0726 548.904 39.6665L548.271 40.1962C548.621 40.6139 548.982 41.022 549.354 41.4204L549.957 40.8572ZM547.917 38.4205C547.599 37.9964 547.293 37.5637 546.999 37.1227L546.313 37.5804C546.615 38.034 546.93 38.479 547.256 38.9151L547.917 38.4205ZM546.155 35.7767C545.886 35.3209 545.629 34.8573 545.386 34.3863L544.653 34.7656C544.904 35.2501 545.167 35.7271 545.444 36.196L546.155 35.7767ZM544.695 32.9554C544.479 32.4731 544.275 31.9839 544.085 31.4882L543.315 31.7835C543.51 32.2935 543.719 32.797 543.942 33.2933L544.695 32.9554ZM543.559 29.9891C543.398 29.4861 543.251 28.9772 543.117 28.4628L542.319 28.6697C542.456 29.1991 542.607 29.7228 542.773 30.2405L543.559 29.9891ZM542.763 26.9148C542.66 26.3977 542.571 25.8757 542.496 25.3492L541.679 25.4649C541.756 26.0068 541.847 26.5441 541.954 27.0763L542.763 26.9148ZM542.317 23.7708C542.295 23.507 542.276 23.2423 542.261 22.9766L541.437 23.0234C541.453 23.2968 541.472 23.5692 541.495 23.8406L542.317 23.7708ZM541.849 23L542.673 22.9532L542.629 22.1748H541.849V23ZM602.077 23V22.1748H601.298L601.253 22.9532L602.077 23ZM602.1 240.72L601.275 240.754L601.308 241.546H602.1V240.72ZM541.827 240.72V241.546H542.619L542.651 240.754L541.827 240.72ZM541.849 22.1748H541.024V23.8252H541.849V22.1748ZM539.375 22.1748H537.726V23.8252H539.375V22.1748ZM536.076 22.1748H534.427V23.8252H536.076V22.1748ZM532.778 22.1748H531.128V23.8252H532.778V22.1748ZM529.479 22.1748H527.829V23.8252H529.479V22.1748ZM526.18 22.1748H524.531V23.8252H526.18V22.1748ZM522.881 22.1748H521.232V23.8252H522.881V22.1748ZM519.583 22.1748H517.933V23.8252H519.583V22.1748ZM516.284 22.1748H514.634V23.8252H516.284V22.1748ZM512.985 22.1748H511.336V23.8252H512.985V22.1748ZM509.686 22.1748H508.037V23.8252H509.686V22.1748ZM506.387 22.1748H504.738V23.8252H506.387V22.1748ZM503.089 22.1748H501.439V23.8252H503.089V22.1748ZM499.79 22.1748H498.141V23.8252H499.79V22.1748ZM496.491 22.1748H494.842V23.8252H496.491V22.1748ZM493.192 22.1748H491.543V23.8252H493.192V22.1748ZM489.894 22.1748H488.244V23.8252H489.894V22.1748ZM486.595 22.1748H484.945V23.8252H486.595V22.1748ZM483.296 22.1748H481.647V23.8252H483.296V22.1748ZM479.997 22.1748H478.348V23.8252H479.997V22.1748ZM476.699 22.1748H475.049V23.8252H476.699V22.1748ZM473.4 22.1748H471.75V23.8252H473.4V22.1748ZM470.101 22.1748H468.452V23.8252H470.101V22.1748ZM466.802 22.1748H465.153V23.8252H466.802V22.1748ZM463.503 22.1748H461.854V23.8252H463.503V22.1748ZM460.205 22.1748H458.555V23.8252H460.205V22.1748ZM456.906 22.1748H455.257V23.8252H456.906V22.1748ZM453.607 22.1748H451.958V23.8252H453.607V22.1748ZM450.308 22.1748H448.659V23.8252H450.308V22.1748ZM447.01 22.1748H445.36V23.8252H447.01V22.1748ZM443.711 22.1748H442.061V23.8252H443.711V22.1748ZM440.412 22.1748H438.763V23.8252H440.412V22.1748ZM437.113 22.1748H435.464V23.8252H437.113V22.1748ZM433.815 22.1748H432.165V23.8252H433.815V22.1748ZM430.516 22.1748H428.866V23.8252H430.516V22.1748ZM427.217 22.1748H425.568V23.8252H427.217V22.1748ZM423.918 22.1748H422.269V23.8252H423.918V22.1748ZM420.62 22.1748H418.97V23.8252H420.62V22.1748ZM417.321 22.1748H415.671V23.8252H417.321V22.1748ZM414.022 22.1748H412.373V23.8252H414.022V22.1748ZM410.723 22.1748H409.074V23.8252H410.723V22.1748ZM407.424 22.1748H405.775V23.8252H407.424V22.1748ZM404.126 22.1748H402.476V23.8252H404.126V22.1748ZM400.827 22.1748H399.178V23.8252H400.827V22.1748ZM397.528 22.1748H395.879V23.8252H397.528V22.1748ZM394.229 22.1748H392.58V23.8252H394.229V22.1748ZM390.931 22.1748H389.281V23.8252H390.931V22.1748ZM387.632 22.1748H385.982V23.8252H387.632V22.1748ZM384.333 22.1748H382.684V23.8252H384.333V22.1748ZM381.034 22.1748H379.385V23.8252H381.034V22.1748ZM377.736 22.1748H376.086V23.8252H377.736V22.1748ZM374.437 22.1748H372.787V23.8252H374.437V22.1748ZM371.138 22.1748H369.489V23.8252H371.138V22.1748ZM367.839 22.1748H366.19V23.8252H367.839V22.1748ZM364.54 22.1748H362.891V23.8252H364.54V22.1748ZM361.242 22.1748H359.592V23.8252H361.242V22.1748ZM357.943 22.1748H356.294V23.8252H357.943V22.1748ZM354.644 22.1748H352.995V23.8252H354.644V22.1748ZM351.345 22.1748H349.696V23.8252H351.345V22.1748ZM348.047 22.1748H346.397V23.8252H348.047V22.1748ZM344.748 22.1748H343.098V23.8252H344.748V22.1748ZM341.449 22.1748H339.8V23.8252H341.449V22.1748ZM338.15 22.1748H336.501V23.8252H338.15V22.1748ZM334.852 22.1748H333.202V23.8252H334.852V22.1748ZM331.553 22.1748H329.903V23.8252H331.553V22.1748ZM328.254 22.1748H326.605V23.8252H328.254V22.1748ZM324.955 22.1748H323.306V23.8252H324.955V22.1748ZM321.656 22.1748H320.007V23.8252H321.656V22.1748ZM318.358 22.1748H316.708V23.8252H318.358V22.1748ZM315.059 22.1748H313.41V23.8252H315.059V22.1748ZM311.76 22.1748H310.111V23.8252H311.76V22.1748ZM308.461 22.1748H306.812V23.8252H308.461V22.1748ZM305.163 22.1748H303.513V23.8252H305.163V22.1748ZM301.864 22.1748H300.215V23.8252H301.864V22.1748ZM298.565 22.1748H296.916V23.8252H298.565V22.1748ZM295.266 22.1748H293.617V23.8252H295.266V22.1748ZM291.968 22.1748H290.318V23.8252H291.968V22.1748ZM288.669 22.1748H287.019V23.8252H288.669V22.1748ZM285.37 22.1748H283.721V23.8252H285.37V22.1748ZM282.071 22.1748H280.422V23.8252H282.071V22.1748ZM278.773 22.1748H277.123V23.8252H278.773V22.1748ZM275.474 22.1748H273.824V23.8252H275.474V22.1748ZM272.175 22.1748H270.526V23.8252H272.175V22.1748ZM268.876 22.1748H267.227V23.8252H268.876V22.1748ZM265.577 22.1748H263.928V23.8252H265.577V22.1748ZM262.279 22.1748H260.629V23.8252H262.279V22.1748ZM258.98 22.1748H257.331V23.8252H258.98V22.1748ZM255.681 22.1748H254.032V23.8252H255.681V22.1748ZM252.382 22.1748H250.733V23.8252H252.382V22.1748ZM249.084 22.1748H247.434V23.8252H249.084V22.1748ZM245.785 22.1748H244.135V23.8252H245.785V22.1748ZM242.486 22.1748H240.837V23.8252H242.486V22.1748ZM239.187 22.1748H237.538V23.8252H239.187V22.1748ZM235.889 22.1748H234.239V23.8252H235.889V22.1748ZM232.59 22.1748H230.94V23.8252H232.59V22.1748ZM229.291 22.1748H227.642V23.8252H229.291V22.1748ZM225.992 22.1748H224.343V23.8252H225.992V22.1748ZM222.693 22.1748H221.044V23.8252H222.693V22.1748ZM219.395 22.1748H217.745V23.8252H219.395V22.1748ZM216.096 22.1748H214.447V23.8252H216.096V22.1748ZM212.797 22.1748H211.148V23.8252H212.797V22.1748ZM209.498 22.1748H207.849V23.8252H209.498V22.1748ZM206.2 22.1748H204.55V23.8252H206.2V22.1748ZM202.901 22.1748H201.252V23.8252H202.901V22.1748ZM199.602 22.1748H197.953V23.8252H199.602V22.1748ZM196.303 22.1748H194.654V23.8252H196.303V22.1748ZM193.005 22.1748H191.355V23.8252H193.005V22.1748ZM189.706 22.1748H188.056V23.8252H189.706V22.1748ZM186.407 22.1748H184.758V23.8252H186.407V22.1748ZM183.108 22.1748H181.459V23.8252H183.108V22.1748ZM179.81 22.1748H178.16V23.8252H179.81V22.1748ZM176.511 22.1748H174.861V23.8252H176.511V22.1748ZM173.212 22.1748H171.563V23.8252H173.212V22.1748ZM169.913 22.1748H168.264V23.8252H169.913V22.1748ZM166.614 22.1748H164.965V23.8252H166.614V22.1748ZM163.316 22.1748H161.666V23.8252H163.316V22.1748ZM160.017 22.1748H158.368V23.8252H160.017V22.1748ZM156.718 22.1748H155.069V23.8252H156.718V22.1748ZM153.419 22.1748H151.77V23.8252H153.419V22.1748ZM150.121 22.1748H148.471V23.8252H150.121V22.1748ZM146.822 22.1748H145.172V23.8252H146.822V22.1748ZM143.523 22.1748H141.874V23.8252H143.523V22.1748ZM140.224 22.1748H138.575V23.8252H140.224V22.1748ZM136.926 22.1748H135.276V23.8252H136.926V22.1748ZM133.627 22.1748H131.977V23.8252H133.627V22.1748ZM130.328 22.1748H128.679V23.8252H130.328V22.1748ZM127.029 22.1748H125.38V23.8252H127.029V22.1748ZM123.73 22.1748H122.081V23.8252H123.73V22.1748ZM120.432 22.1748H118.782V23.8252H120.432V22.1748ZM117.133 22.1748H115.484V23.8252H117.133V22.1748ZM113.834 22.1748H112.185V23.8252H113.834V22.1748ZM110.535 22.1748H108.886V23.8252H110.535V22.1748ZM107.237 22.1748H105.587V23.8252H107.237V22.1748ZM103.938 22.1748H102.288V23.8252H103.938V22.1748ZM100.639 22.1748H98.9897V23.8252H100.639V22.1748ZM97.3403 22.1748H95.6909V23.8252H97.3403V22.1748ZM94.0416 22.1748H92.3922V23.8252H94.0416V22.1748ZM90.7428 22.1748H89.0934V23.8252H90.7428V22.1748ZM87.444 22.1748H85.7947V23.8252H87.444V22.1748ZM84.1452 22.1748H82.4959V23.8252H84.1452V22.1748ZM80.8465 22.1748H79.1971V23.8252H80.8465V22.1748ZM77.5477 22.1748H75.8983V23.8252H77.5477V22.1748ZM74.249 22.1748H72.5996V23.8252H74.249V22.1748ZM70.9502 22.1748H69.3008V23.8252H70.9502V22.1748ZM67.6514 22.1748H66.002V23.8252H67.6514V22.1748ZM64.3527 22.1748H62.7033V23.8252H64.3527V22.1748ZM61.0539 22.1748H59.4045V23.8252H61.0539V22.1748ZM57.7551 22.1748H56.1058V23.8252H57.7551V22.1748ZM54.4563 22.1748H52.807V23.8252H54.4563V22.1748ZM51.1576 22.1748H49.5082V23.8252H51.1576V22.1748ZM47.8588 22.1748H46.2094V23.8252H47.8588V22.1748ZM44.5601 22.1748H42.9107V23.8252H44.5601V22.1748ZM41.2613 22.1748H40.4367V23.8252H41.2613V22.1748ZM40.4367 22.1748C40.1545 22.1748 39.8734 22.1802 39.5937 22.191L39.6574 23.8403C39.9159 23.8303 40.1757 23.8252 40.4367 23.8252V22.1748ZM37.9143 22.3215C37.3527 22.3873 36.7978 22.4748 36.2502 22.5831L36.5705 24.2022C37.0757 24.1023 37.5879 24.0216 38.1063 23.9608L37.9143 22.3215ZM34.6107 22.9754C34.0675 23.1283 33.5331 23.3021 33.0083 23.4957L33.5797 25.0441C34.0638 24.8655 34.5569 24.7052 35.058 24.5641L34.6107 22.9754ZM31.4511 24.1414C30.9397 24.3776 30.4391 24.6333 29.9504 24.9076L30.7581 26.3469C31.2092 26.0938 31.6711 25.8578 32.1431 25.6399L31.4511 24.1414ZM28.5147 25.7892C28.0473 26.1022 27.5929 26.433 27.1524 26.7806L28.1751 28.0761C28.5818 27.7551 29.0014 27.4496 29.4329 27.1607L28.5147 25.7892ZM25.872 27.8752C25.4596 28.2566 25.0623 28.654 24.6809 29.0664L25.8926 30.187C26.2448 29.8062 26.6118 29.4392 26.9927 29.0869L25.872 27.8752ZM23.5863 30.3468C23.2386 30.7872 22.9078 31.2416 22.5949 31.709L23.9664 32.6272C24.2553 32.1957 24.5607 31.7761 24.8818 31.3694L23.5863 30.3468ZM21.7133 33.1447C21.439 33.6334 21.1833 34.134 20.9471 34.6455L22.4455 35.3374C22.6635 34.8655 22.8994 34.4035 23.1526 33.9525L21.7133 33.1447ZM20.3014 36.2026C20.1077 36.7274 19.934 37.2619 19.7811 37.8051L21.3698 38.2523C21.5108 37.7512 21.6711 37.2582 21.8498 36.7741L20.3014 36.2026ZM19.3888 39.4445C19.2805 39.9921 19.193 40.5471 19.1272 41.1086L20.7665 41.3007C20.8272 40.7823 20.908 40.2701 21.0079 39.7648L19.3888 39.4445ZM18.9967 42.788C18.9859 43.0677 18.9804 43.3488 18.9804 43.6311H20.6309C20.6309 43.3701 20.636 43.1103 20.6459 42.8518L18.9967 42.788ZM18.9804 43.6311V44.4634H20.6309V43.6311H18.9804ZM18.9804 46.1281V47.7928H20.6309V46.1281H18.9804ZM18.9804 49.4575V51.1222H20.6309V49.4575H18.9804ZM18.9804 52.7869V54.4516H20.6309V52.7869H18.9804ZM18.9804 56.1163V57.781H20.6309V56.1163H18.9804ZM18.9804 59.4457V61.1104H20.6309V59.4457H18.9804ZM18.9804 62.7751V64.4398H20.6309V62.7751H18.9804ZM18.9804 66.1045V67.7692H20.6309V66.1045H18.9804ZM18.9804 69.4339V71.0986H20.6309V69.4339H18.9804ZM18.9804 72.7633V74.428H20.6309V72.7633H18.9804ZM18.9804 76.0927V77.7574H20.6309V76.0927H18.9804ZM18.9804 79.4221V81.0868H20.6309V79.4221H18.9804ZM18.9804 82.7515V84.4162H20.6309V82.7515H18.9804ZM18.9804 86.0809V87.7456H20.6309V86.0809H18.9804ZM18.9804 89.4103V91.075H20.6309V89.4103H18.9804ZM18.9804 92.7397V94.4044H20.6309V92.7397H18.9804ZM18.9804 96.0691V97.7338H20.6309V96.0691H18.9804ZM18.9804 99.3985V101.063H20.6309V99.3985H18.9804ZM18.9804 102.728V104.393H20.6309V102.728H18.9804ZM18.9804 106.057V107.722H20.6309V106.057H18.9804ZM18.9804 109.387V111.051H20.6309V109.387H18.9804ZM18.9804 112.716V114.381H20.6309V112.716H18.9804ZM18.9804 116.045V117.71H20.6309V116.045H18.9804ZM18.9804 119.375V121.04H20.6309V119.375H18.9804ZM18.9804 122.704V124.369H20.6309V122.704H18.9804ZM18.9804 126.034V127.698H20.6309V126.034H18.9804ZM18.9804 129.363V131.028H20.6309V129.363H18.9804ZM18.9804 132.692V134.357H20.6309V132.692H18.9804ZM18.9804 136.022V137.687H20.6309V136.022H18.9804ZM18.9804 139.351V141.016H20.6309V139.351H18.9804ZM18.9804 142.681V144.345H20.6309V142.681H18.9804ZM18.9804 146.01V147.675H20.6309V146.01H18.9804ZM18.9804 149.339V151.004H20.6309V149.339H18.9804ZM18.9804 152.669V154.333H20.6309V152.669H18.9804ZM18.9804 155.998V157.663H20.6309V155.998H18.9804ZM18.9804 159.328V160.992H20.6309V159.328H18.9804ZM18.9804 162.657V164.322H20.6309V162.657H18.9804ZM18.9804 165.986V167.651H20.6309V165.986H18.9804ZM18.9804 169.316V170.98H20.6309V169.316H18.9804ZM18.9804 172.645V174.31H20.6309V172.645H18.9804ZM18.9804 175.975V177.639H20.6309V175.975H18.9804ZM18.9804 179.304V180.969H20.6309V179.304H18.9804ZM18.9804 182.633V184.298H20.6309V182.633H18.9804ZM18.9804 185.963V187.627H20.6309V185.963H18.9804ZM18.9804 189.292V190.957H20.6309V189.292H18.9804ZM18.9804 192.622V194.286H20.6309V192.622H18.9804ZM18.9804 195.951V197.616H20.6309V195.951H18.9804ZM18.9804 199.28V200.945H20.6309V199.28H18.9804ZM18.9804 202.61V204.275H20.6309V202.61H18.9804ZM18.9804 205.939V207.604H20.6309V205.939H18.9804ZM18.9804 209.269V210.933H20.6309V209.269H18.9804ZM18.9804 212.598V214.263H20.6309V212.598H18.9804ZM18.9804 215.927V217.592H20.6309V215.927H18.9804ZM18.9804 219.257V220.089H20.6309V219.257H18.9804ZM18.9804 220.089C18.9804 220.371 18.9859 220.653 18.9967 220.932L20.6459 220.868C20.636 220.61 20.6309 220.35 20.6309 220.089H18.9804ZM19.1272 222.612C19.193 223.173 19.2805 223.728 19.3888 224.276L21.0079 223.955C20.908 223.45 20.8272 222.938 20.7665 222.42L19.1272 222.612ZM19.7811 225.915C19.934 226.458 20.1077 226.993 20.3014 227.518L21.8498 226.946C21.6711 226.462 21.5108 225.969 21.3698 225.468L19.7811 225.915ZM20.9471 229.075C21.1833 229.586 21.439 230.087 21.7133 230.576L23.1526 229.768C22.8994 229.317 22.6635 228.855 22.4455 228.383L20.9471 229.075ZM22.5949 232.011C22.9078 232.479 23.2386 232.933 23.5863 233.373L24.8818 232.351C24.5607 231.944 24.2553 231.525 23.9664 231.093L22.5949 232.011ZM24.6809 234.654C25.0623 235.066 25.4596 235.464 25.872 235.845L26.9927 234.633C26.6118 234.281 26.2448 233.914 25.8926 233.533L24.6809 234.654ZM27.1524 236.94C27.5929 237.287 28.0473 237.618 28.5147 237.931L29.4329 236.56C29.0014 236.271 28.5818 235.965 28.1751 235.644L27.1524 236.94ZM29.9504 238.813C30.4391 239.087 30.9397 239.343 31.4511 239.579L32.1431 238.08C31.6712 237.862 31.2092 237.626 30.7582 237.373L29.9504 238.813ZM33.0083 240.225C33.5331 240.418 34.0675 240.592 34.6107 240.745L35.058 239.156C34.5569 239.015 34.0639 238.855 33.5797 238.676L33.0083 240.225ZM36.2502 241.137C36.7978 241.245 37.3528 241.333 37.9143 241.399L38.1064 239.759C37.5879 239.699 37.0757 239.618 36.5705 239.518L36.2502 241.137ZM39.5937 241.529C39.8734 241.54 40.1545 241.546 40.4367 241.546V239.895C40.1757 239.895 39.9159 239.89 39.6575 239.88L39.5937 241.529ZM40.4367 241.546H41.2614V239.895H40.4367V241.546ZM42.9107 241.546H44.56V239.895H42.9107V241.546ZM46.2093 241.546H47.8586V239.895H46.2093V241.546ZM49.5079 241.546H51.1573V239.895H49.5079V241.546ZM52.8066 241.546H54.4559V239.895H52.8066V241.546ZM56.1052 241.546H57.7545V239.895H56.1052V241.546ZM59.4038 241.546H61.0531V239.895H59.4038V241.546ZM62.7024 241.546H64.3517V239.895H62.7024V241.546ZM66.001 241.546H67.6503V239.895H66.001V241.546ZM69.2997 241.546H70.949V239.895H69.2997V241.546ZM72.5983 241.546H74.2476V239.895H72.5983V241.546ZM75.8969 241.546H77.5462V239.895H75.8969V241.546ZM79.1955 241.546H80.8448V239.895H79.1955V241.546ZM82.4941 241.546H84.1434V239.895H82.4941V241.546ZM85.7927 241.546H87.442V239.895H85.7927V241.546ZM89.0913 241.546H90.7407V239.895H89.0913V241.546ZM92.39 241.546H94.0393V239.895H92.39V241.546ZM95.6886 241.546H97.3379V239.895H95.6886V241.546ZM98.9872 241.546H100.636V239.895H98.9872V241.546ZM102.286 241.546H103.935V239.895H102.286V241.546ZM105.584 241.546H107.234V239.895H105.584V241.546ZM108.883 241.546H110.532V239.895H108.883V241.546ZM112.182 241.546H113.831V239.895H112.182V241.546ZM115.48 241.546H117.13V239.895H115.48V241.546ZM118.779 241.546H120.428V239.895H118.779V241.546ZM122.077 241.546H123.727V239.895H122.077V241.546ZM125.376 241.546H127.025V239.895H125.376V241.546ZM128.675 241.546H130.324V239.895H128.675V241.546ZM131.973 241.546H133.623V239.895H131.973V241.546ZM135.272 241.546H136.921V239.895H135.272V241.546ZM138.571 241.546H140.22V239.895H138.571V241.546ZM141.869 241.546H143.518V239.895H141.869V241.546ZM145.168 241.546H146.817V239.895H145.168V241.546ZM148.466 241.546H150.116V239.895H148.466V241.546ZM151.765 241.546H153.414V239.895H151.765V241.546ZM155.064 241.546H156.713V239.895H155.064V241.546ZM158.362 241.546H160.012V239.895H158.362V241.546ZM161.661 241.546H163.31V239.895H161.661V241.546ZM164.959 241.546H166.609V239.895H164.959V241.546ZM168.258 241.546H169.907V239.895H168.258V241.546ZM171.557 241.546H173.206V239.895H171.557V241.546ZM174.855 241.546H176.505V239.895H174.855V241.546ZM178.154 241.546H179.803V239.895H178.154V241.546ZM181.453 241.546H183.102V239.895H181.453V241.546ZM184.751 241.546H186.4V239.895H184.751V241.546ZM188.05 241.546H189.699V239.895H188.05V241.546ZM191.348 241.546H192.998V239.895H191.348V241.546ZM194.647 241.546H196.296V239.895H194.647V241.546ZM197.946 241.546H199.595V239.895H197.946V241.546ZM201.244 241.546H202.894V239.895H201.244V241.546ZM204.543 241.546H206.192V239.895H204.543V241.546ZM207.841 241.546H209.491V239.895H207.841V241.546ZM211.14 241.546H212.789V239.895H211.14V241.546ZM214.439 241.546H216.088V239.895H214.439V241.546ZM217.737 241.546H219.387V239.895H217.737V241.546ZM221.036 241.546H222.685V239.895H221.036V241.546ZM224.335 241.546H225.984V239.895H224.335V241.546ZM227.633 241.546H229.282V239.895H227.633V241.546ZM230.932 241.546H232.581V239.895H230.932V241.546ZM234.23 241.546H235.88V239.895H234.23V241.546ZM237.529 241.546H239.178V239.895H237.529V241.546ZM240.828 241.546H242.477V239.895H240.828V241.546ZM244.126 241.546H245.776V239.895H244.126V241.546ZM247.425 241.546H249.074V239.895H247.425V241.546ZM250.723 241.546H252.373V239.895H250.723V241.546ZM254.022 241.546H255.671V239.895H254.022V241.546ZM257.321 241.546H258.97V239.895H257.321V241.546ZM260.619 241.546H262.269V239.895H260.619V241.546ZM263.918 241.546H265.567V239.895H263.918V241.546ZM267.217 241.546H268.866V239.895H267.217V241.546ZM270.515 241.546H272.164V239.895H270.515V241.546ZM273.814 241.546H275.463V239.895H273.814V241.546ZM277.112 241.546H278.762V239.895H277.112V241.546ZM280.411 241.546H282.06V239.895H280.411V241.546ZM283.71 241.546H285.359V239.895H283.71V241.546ZM287.008 241.546H288.658V239.895H287.008V241.546ZM290.307 241.546H291.956V239.895H290.307V241.546ZM293.605 241.546H295.255V239.895H293.605V241.546ZM296.904 241.546H298.553V239.895H296.904V241.546ZM300.203 241.546H301.852V239.895H300.203V241.546ZM303.501 241.546H305.151V239.895H303.501V241.546ZM306.8 241.546H308.449V239.895H306.8V241.546ZM310.099 241.546H311.748V239.895H310.099V241.546ZM313.397 241.546H315.047V239.895H313.397V241.546ZM316.696 241.546H318.345V239.895H316.696V241.546ZM319.995 241.546H321.644V239.895H319.995V241.546ZM323.293 241.546H324.943V239.895H323.293V241.546ZM326.592 241.546H328.241V239.895H326.592V241.546ZM329.891 241.546H331.54V239.895H329.891V241.546ZM333.189 241.546H334.838V239.895H333.189V241.546ZM336.488 241.546H338.137V239.895H336.488V241.546ZM339.786 241.546H341.436V239.895H339.786V241.546ZM343.085 241.546H344.734V239.895H343.085V241.546ZM346.384 241.546H348.033V239.895H346.384V241.546ZM349.682 241.546H351.332V239.895H349.682V241.546ZM352.981 241.546H354.63V239.895H352.981V241.546ZM356.28 241.546H357.929V239.895H356.28V241.546ZM359.578 241.546H361.228V239.895H359.578V241.546ZM362.877 241.546H364.526V239.895H362.877V241.546ZM366.176 241.546H367.825V239.895H366.176V241.546ZM369.474 241.546H371.124V239.895H369.474V241.546ZM372.773 241.546H374.422V239.895H372.773V241.546ZM376.072 241.546H377.721V239.895H376.072V241.546ZM379.37 241.546H381.02V239.895H379.37V241.546ZM382.669 241.546H384.318V239.895H382.669V241.546ZM385.967 241.546H387.617V239.895H385.967V241.546ZM389.266 241.546H390.915V239.895H389.266V241.546ZM392.565 241.546H394.214V239.895H392.565V241.546ZM395.863 241.546H397.513V239.895H395.863V241.546ZM399.162 241.546H400.811V239.895H399.162V241.546ZM402.461 241.546H404.11V239.895H402.461V241.546ZM405.759 241.546H407.409V239.895H405.759V241.546ZM409.058 241.546H410.707V239.895H409.058V241.546ZM412.357 241.546H414.006V239.895H412.357V241.546ZM415.655 241.546H417.305V239.895H415.655V241.546ZM418.954 241.546H420.603V239.895H418.954V241.546ZM422.253 241.546H423.902V239.895H422.253V241.546ZM425.551 241.546H427.201V239.895H425.551V241.546ZM428.85 241.546H430.499V239.895H428.85V241.546ZM432.148 241.546H433.798V239.895H432.148V241.546ZM435.447 241.546H437.096V239.895H435.447V241.546ZM438.746 241.546H440.395V239.895H438.746V241.546ZM442.044 241.546H443.694V239.895H442.044V241.546ZM445.343 241.546H446.992V239.895H445.343V241.546ZM448.642 241.546H450.291V239.895H448.642V241.546ZM451.94 241.546H453.59V239.895H451.94V241.546ZM455.239 241.546H456.888V239.895H455.239V241.546ZM458.538 241.546H460.187V239.895H458.538V241.546ZM461.836 241.546H463.486V239.895H461.836V241.546ZM465.135 241.546H466.784V239.895H465.135V241.546ZM468.434 241.546H470.083V239.895H468.434V241.546ZM471.732 241.546H473.382V239.895H471.732V241.546ZM475.031 241.546H476.68V239.895H475.031V241.546ZM478.33 241.546H479.979V239.895H478.33V241.546ZM481.628 241.546H483.277V239.895H481.628V241.546ZM484.927 241.546H486.576V239.895H484.927V241.546ZM488.225 241.546H489.875V239.895H488.225V241.546ZM491.524 241.546H493.173V239.895H491.524V241.546ZM494.823 241.546H496.472V239.895H494.823V241.546ZM498.121 241.546H499.771V239.895H498.121V241.546ZM501.42 241.546H503.069V239.895H501.42V241.546ZM504.719 241.546H506.368V239.895H504.719V241.546ZM508.017 241.546H509.667V239.895H508.017V241.546ZM511.316 241.546H512.965V239.895H511.316V241.546ZM514.615 241.546H516.264V239.895H514.615V241.546ZM517.913 241.546H519.563V239.895H517.913V241.546ZM521.212 241.546H522.861V239.895H521.212V241.546ZM524.511 241.546H526.16V239.895H524.511V241.546ZM527.809 241.546H529.459V239.895H527.809V241.546ZM531.108 241.546H532.757V239.895H531.108V241.546ZM534.406 241.546H536.056V239.895H534.406V241.546ZM537.705 241.546H539.354V239.895H537.705V241.546ZM541.004 241.546H541.827V239.895H541.004V241.546ZM542.651 240.754C542.662 240.489 542.677 240.225 542.695 239.962L541.048 239.848C541.029 240.127 541.014 240.406 541.002 240.686L542.651 240.754ZM542.849 238.389C542.915 237.863 542.996 237.342 543.091 236.826L541.468 236.527C541.367 237.074 541.281 237.625 541.211 238.182L542.849 238.389ZM543.422 235.281C543.547 234.767 543.687 234.258 543.84 233.755L542.261 233.274C542.099 233.806 541.951 234.345 541.818 234.889L543.422 235.281ZM544.345 232.256C544.527 231.761 544.724 231.271 544.933 230.788L543.419 230.131C543.197 230.642 542.989 231.161 542.796 231.686L544.345 232.256ZM545.604 229.356C545.841 228.884 546.091 228.42 546.354 227.963L544.923 227.14C544.645 227.623 544.38 228.115 544.129 228.614L545.604 229.356ZM547.18 226.614C547.469 226.172 547.769 225.738 548.081 225.312L546.75 224.336C546.42 224.786 546.103 225.245 545.798 225.713L547.18 226.614ZM549.052 224.062C549.387 223.655 549.733 223.256 550.09 222.867L548.874 221.751C548.497 222.162 548.131 222.584 547.777 223.014L549.052 224.062ZM551.192 221.73C551.57 221.362 551.957 221.003 552.355 220.655L551.267 219.414C550.847 219.781 550.438 220.16 550.039 220.55L551.192 221.73ZM553.574 219.644C553.989 219.318 554.413 219.003 554.846 218.7L553.898 217.348C553.441 217.669 552.993 218.002 552.555 218.345L553.574 219.644ZM556.166 217.826C556.613 217.547 557.069 217.279 557.532 217.024L556.735 215.578C556.245 215.848 555.765 216.131 555.292 216.425L556.166 217.826ZM558.939 216.296C559.413 216.067 559.894 215.85 560.383 215.645L559.745 214.123C559.229 214.339 558.721 214.568 558.22 214.81L558.939 216.296ZM561.86 215.072C562.356 214.895 562.858 214.73 563.366 214.579L562.894 212.997C562.358 213.157 561.828 213.331 561.304 213.518L561.86 215.072ZM564.895 214.167C565.407 214.043 565.923 213.933 566.445 213.836L566.144 212.214C565.593 212.316 565.048 212.432 564.509 212.562L564.895 214.167ZM568.009 213.589C568.53 213.521 569.056 213.465 569.585 213.424L569.457 211.779C568.898 211.822 568.344 211.88 567.795 211.952L568.009 213.589ZM571.168 213.342C571.432 213.335 571.697 213.332 571.963 213.332V211.681C571.683 211.681 571.404 211.685 571.126 211.692L571.168 213.342ZM571.963 213.332C572.229 213.332 572.494 213.335 572.758 213.342L572.801 211.692C572.523 211.685 572.243 211.681 571.963 211.681V213.332ZM574.341 213.424C574.871 213.465 575.396 213.521 575.917 213.589L576.132 211.952C575.582 211.88 575.028 211.822 574.47 211.779L574.341 213.424ZM577.482 213.836C578.003 213.933 578.52 214.043 579.031 214.167L579.418 212.562C578.878 212.432 578.333 212.316 577.783 212.214L577.482 213.836ZM580.561 214.579C581.069 214.73 581.571 214.895 582.067 215.072L582.622 213.518C582.099 213.331 581.569 213.157 581.032 212.997L580.561 214.579ZM583.544 215.645C584.032 215.85 584.513 216.067 584.988 216.296L585.706 214.81C585.206 214.568 584.697 214.339 584.182 214.123L583.544 215.645ZM586.395 217.024C586.858 217.279 587.313 217.547 587.76 217.826L588.634 216.425C588.162 216.131 587.681 215.848 587.192 215.578L586.395 217.024ZM589.081 218.7C589.514 219.003 589.938 219.318 590.353 219.644L591.372 218.345C590.934 218.002 590.486 217.669 590.029 217.348L589.081 218.7ZM591.572 220.655C591.969 221.003 592.357 221.362 592.734 221.73L593.888 220.55C593.489 220.16 593.079 219.781 592.66 219.414L591.572 220.655ZM593.836 222.867C594.193 223.256 594.539 223.655 594.875 224.062L596.15 223.014C595.795 222.584 595.429 222.162 595.052 221.751L593.836 222.867ZM595.846 225.312C596.158 225.738 596.458 226.172 596.746 226.614L598.129 225.713C597.824 225.245 597.506 224.786 597.176 224.336L595.846 225.312ZM597.573 227.963C597.835 228.42 598.086 228.884 598.323 229.356L599.797 228.614C599.546 228.115 599.281 227.623 599.004 227.14L597.573 227.963ZM598.993 230.788C599.203 231.271 599.399 231.761 599.582 232.256L601.131 231.686C600.937 231.161 600.729 230.642 600.507 230.131L598.993 230.788ZM600.086 233.755C600.24 234.258 600.379 234.767 600.505 235.281L602.108 234.889C601.975 234.345 601.828 233.806 601.665 233.274L600.086 233.755ZM600.836 236.826C600.931 237.342 601.012 237.863 601.078 238.389L602.715 238.182C602.645 237.625 602.559 237.074 602.459 236.527L600.836 236.826ZM601.232 239.962C601.25 240.225 601.264 240.489 601.275 240.754L602.924 240.686C602.913 240.406 602.897 240.127 602.878 239.848L601.232 239.962ZM602.1 241.546H602.922V239.895H602.1V241.546ZM604.565 241.546H606.209V239.895H604.565V241.546ZM607.852 241.546H609.496V239.895H607.852V241.546ZM611.139 241.546H612.783V239.895H611.139V241.546ZM614.427 241.546H616.07V239.895H614.427V241.546ZM617.714 241.546H619.357V239.895H617.714V241.546ZM621.001 241.546H622.644V239.895H621.001V241.546ZM624.288 241.546H625.932V239.895H624.288V241.546ZM627.575 241.546H629.219V239.895H627.575V241.546ZM630.862 241.546H632.506V239.895H630.862V241.546ZM634.149 241.546H635.793V239.895H634.149V241.546ZM637.437 241.546H639.08V239.895H637.437V241.546ZM640.724 241.546H642.367V239.895H640.724V241.546ZM644.011 241.546H645.654V239.895H644.011V241.546ZM647.298 241.546H648.942V239.895H647.298V241.546ZM650.585 241.546H652.229V239.895H650.585V241.546ZM653.872 241.546H655.516V239.895H653.872V241.546ZM657.159 241.546H658.803V239.895H657.159V241.546ZM660.447 241.546H662.09V239.895H660.447V241.546ZM663.734 241.546H665.377V239.895H663.734V241.546ZM667.021 241.546H668.665V239.895H667.021V241.546ZM670.308 241.546H671.952V239.895H670.308V241.546ZM673.595 241.546H675.239V239.895H673.595V241.546ZM676.882 241.546H678.526V239.895H676.882V241.546ZM680.169 241.546H681.813V239.895H680.169V241.546ZM683.457 241.546H685.1V239.895H683.457V241.546ZM686.744 241.546H688.387V239.895H686.744V241.546ZM690.031 241.546H691.674V239.895H690.031V241.546ZM693.318 241.546H694.962V239.895H693.318V241.546ZM696.605 241.546H698.249V239.895H696.605V241.546ZM699.892 241.546H701.536V239.895H699.892V241.546ZM703.18 241.546H704.823V239.895H703.18V241.546ZM706.467 241.546H708.11V239.895H706.467V241.546ZM709.754 241.546H711.397V239.895H709.754V241.546ZM713.041 241.546H714.685V239.895H713.041V241.546ZM716.328 241.546H717.972V239.895H716.328V241.546ZM719.615 241.546H721.259V239.895H719.615V241.546ZM722.902 241.546H724.546V239.895H722.902V241.546ZM726.189 241.546H727.833V239.895H726.189V241.546ZM729.477 241.546H731.12V239.895H729.477V241.546ZM732.764 241.546H734.407V239.895H732.764V241.546ZM736.051 241.546H737.694V239.895H736.051V241.546ZM739.338 241.546H740.982V239.895H739.338V241.546ZM742.625 241.546H744.269V239.895H742.625V241.546ZM745.912 241.546H747.556V239.895H745.912V241.546ZM749.199 241.546H750.843V239.895H749.199V241.546ZM752.487 241.546H754.13V239.895H752.487V241.546ZM755.774 241.546H757.417V239.895H755.774V241.546ZM759.061 241.546H760.704V239.895H759.061V241.546ZM762.348 241.546H763.992V239.895H762.348V241.546ZM765.635 241.546H767.279V239.895H765.635V241.546ZM768.922 241.546H770.566V239.895H768.922V241.546ZM772.209 241.546H773.853V239.895H772.209V241.546ZM775.497 241.546H777.14V239.895H775.497V241.546ZM778.784 241.546H780.427V239.895H778.784V241.546ZM782.071 241.546H783.714V239.895H782.071V241.546ZM785.358 241.546H787.002V239.895H785.358V241.546ZM788.645 241.546H790.289V239.895H788.645V241.546ZM791.932 241.546H793.576V239.895H791.932V241.546ZM795.219 241.546H796.863V239.895H795.219V241.546ZM798.507 241.546H800.15V239.895H798.507V241.546ZM801.794 241.546H803.437V239.895H801.794V241.546ZM805.081 241.546H806.724V239.895H805.081V241.546ZM808.368 241.546H810.012V239.895H808.368V241.546ZM811.655 241.546H813.299V239.895H811.655V241.546ZM814.942 241.546H816.586V239.895H814.942V241.546ZM818.229 241.546H819.873V239.895H818.229V241.546ZM821.517 241.546H823.16V239.895H821.517V241.546ZM824.804 241.546H826.447V239.895H824.804V241.546ZM828.091 241.546H829.734V239.895H828.091V241.546ZM831.378 241.546H833.021V239.895H831.378V241.546ZM834.665 241.546H836.309V239.895H834.665V241.546ZM837.952 241.546H839.596V239.895H837.952V241.546ZM841.239 241.546H842.883V239.895H841.239V241.546ZM844.526 241.546H846.17V239.895H844.526V241.546ZM847.814 241.546H849.457V239.895H847.814V241.546ZM851.101 241.546H852.744V239.895H851.101V241.546ZM854.388 241.546H856.031V239.895H854.388V241.546ZM857.675 241.546H859.319V239.895H857.675V241.546ZM860.962 241.546H862.606V239.895H860.962V241.546ZM864.249 241.546H865.893V239.895H864.249V241.546ZM867.537 241.546H869.18V239.895H867.537V241.546ZM870.824 241.546H872.467V239.895H870.824V241.546ZM874.111 241.546H875.754V239.895H874.111V241.546ZM877.398 241.546H879.042V239.895H877.398V241.546ZM880.685 241.546H882.329V239.895H880.685V241.546ZM883.972 241.546H885.616V239.895H883.972V241.546ZM887.26 241.546H888.903V239.895H887.26V241.546ZM890.547 241.546H891.369V239.895H890.547V241.546ZM891.369 241.546C891.651 241.546 891.932 241.54 892.212 241.529L892.148 239.88C891.89 239.89 891.63 239.895 891.369 239.895V241.546ZM893.891 241.399C894.453 241.333 895.008 241.245 895.555 241.137L895.235 239.518C894.73 239.618 894.218 239.699 893.699 239.759L893.891 241.399ZM897.195 240.745C897.738 240.592 898.272 240.418 898.797 240.225L898.226 238.676C897.742 238.855 897.249 239.015 896.747 239.156L897.195 240.745ZM900.354 239.579C900.866 239.343 901.366 239.087 901.855 238.813L901.047 237.373C900.596 237.626 900.134 237.862 899.662 238.08L900.354 239.579ZM903.291 237.931C903.758 237.618 904.213 237.287 904.653 236.94L903.63 235.644C903.224 235.965 902.804 236.271 902.373 236.56L903.291 237.931ZM905.933 235.845C906.346 235.464 906.743 235.066 907.125 234.654L905.913 233.533C905.561 233.914 905.194 234.281 904.813 234.633L905.933 235.845ZM908.219 233.373C908.567 232.933 908.898 232.479 909.211 232.011L907.839 231.093C907.55 231.525 907.245 231.944 906.924 232.351L908.219 233.373ZM910.092 230.576C910.366 230.087 910.622 229.586 910.858 229.075L909.36 228.383C909.142 228.855 908.906 229.317 908.653 229.768L910.092 230.576ZM911.504 227.518C911.698 226.993 911.871 226.458 912.024 225.915L910.436 225.468C910.295 225.969 910.134 226.462 909.956 226.946L911.504 227.518ZM912.417 224.276C912.525 223.728 912.612 223.173 912.678 222.612L911.039 222.42C910.978 222.938 910.897 223.45 910.797 223.955L912.417 224.276ZM912.809 220.932C912.82 220.653 912.825 220.371 912.825 220.089H911.174C911.174 220.35 911.169 220.61 911.159 220.868L912.809 220.932ZM912.825 220.089V219.257H911.174V220.089H912.825ZM912.825 217.592V215.927H911.174V217.592H912.825ZM912.825 214.263V212.598H911.174V214.263H912.825ZM912.825 210.933V209.269H911.174V210.933H912.825ZM912.825 207.604V205.939H911.174V207.604H912.825ZM912.825 204.275V202.61H911.174V204.275H912.825ZM912.825 200.945V199.28H911.174V200.945H912.825ZM912.825 197.616V195.951H911.174V197.616H912.825ZM912.825 194.286V192.622H911.174V194.286H912.825ZM912.825 190.957V189.292H911.174V190.957H912.825ZM912.825 187.628V185.963H911.174V187.628H912.825ZM912.825 184.298V182.633H911.174V184.298H912.825ZM912.825 180.969V179.304H911.174V180.969H912.825ZM912.825 177.639V175.975H911.174V177.639H912.825ZM912.825 174.31V172.645H911.174V174.31H912.825ZM912.825 170.981V169.316H911.174V170.981H912.825ZM912.825 167.651V165.986H911.174V167.651H912.825ZM912.825 164.322V162.657H911.174V164.322H912.825ZM912.825 160.992V159.328H911.174V160.992H912.825ZM912.825 157.663V155.998H911.174V157.663H912.825ZM912.825 154.334V152.669H911.174V154.334H912.825ZM912.825 151.004V149.339H911.174V151.004H912.825ZM912.825 147.675V146.01H911.174V147.675H912.825ZM912.825 144.345V142.681H911.174V144.345H912.825ZM912.825 141.016V139.351H911.174V141.016H912.825ZM912.825 137.687V136.022H911.174V137.687H912.825ZM912.825 134.357V132.693H911.174V134.357H912.825ZM912.825 131.028V129.363H911.174V131.028H912.825ZM912.825 127.698V126.034H911.174V127.698H912.825ZM912.825 124.369V122.704H911.174V124.369H912.825ZM912.825 121.04V119.375H911.174V121.04H912.825ZM912.825 117.71V116.046H911.174V117.71H912.825ZM912.825 114.381V112.716H911.174V114.381H912.825ZM912.825 111.051V109.387H911.174V111.051H912.825ZM912.825 107.722V106.057H911.174V107.722H912.825ZM912.825 104.393V102.728H911.174V104.393H912.825ZM912.825 101.063V99.3986H911.174V101.063H912.825ZM912.825 97.7339V96.0692H911.174V97.7339H912.825ZM912.825 94.4045V92.7398H911.174V94.4045H912.825ZM912.825 91.0751V89.4104H911.174V91.0751H912.825ZM912.825 87.7457V86.081H911.174V87.7457H912.825ZM912.825 84.4163V82.7516H911.174V84.4163H912.825ZM912.825 81.0869V79.4222H911.174V81.0869H912.825ZM912.825 77.7575V76.0928H911.174V77.7575H912.825ZM912.825 74.4281V72.7634H911.174V74.4281H912.825ZM912.825 71.0987V69.434H911.174V71.0987H912.825ZM912.825 67.7693V66.1045H911.174V67.7693H912.825ZM912.825 64.4398V62.7751H911.174V64.4398H912.825ZM912.825 61.1104V59.4457H911.174V61.1104H912.825ZM912.825 57.781V56.1163H911.174V57.781H912.825ZM912.825 54.4516V52.7869H911.174V54.4516H912.825ZM912.825 51.1222V49.4575H911.174V51.1222H912.825ZM912.825 47.7928V46.1281H911.174V47.7928H912.825ZM912.825 44.4634V43.6311H911.174V44.4634H912.825ZM912.825 43.6311C912.825 43.3488 912.82 43.0677 912.809 42.788L911.159 42.8518C911.169 43.1103 911.174 43.3701 911.174 43.6311H912.825ZM912.678 41.1086C912.612 40.5471 912.525 39.9921 912.417 39.4445L910.797 39.7648C910.897 40.2701 910.978 40.7823 911.039 41.3007L912.678 41.1086ZM912.024 37.805C911.871 37.2619 911.698 36.7274 911.504 36.2026L909.956 36.774C910.134 37.2582 910.295 37.7512 910.436 38.2523L912.024 37.805ZM910.858 34.6455C910.622 34.134 910.366 33.6334 910.092 33.1447L908.653 33.9525C908.906 34.4035 909.142 34.8655 909.36 35.3374L910.858 34.6455ZM909.211 31.709C908.898 31.2416 908.567 30.7872 908.219 30.3468L906.924 31.3694C907.245 31.7761 907.55 32.1957 907.839 32.6272L909.211 31.709ZM907.125 29.0664C906.743 28.654 906.346 28.2566 905.933 27.8752L904.813 29.0869C905.194 29.4392 905.561 29.8061 905.913 30.187L907.125 29.0664ZM904.653 26.7806C904.213 26.433 903.758 26.1022 903.291 25.7892L902.372 27.1607C902.804 27.4496 903.224 27.7551 903.63 28.0761L904.653 26.7806ZM901.855 24.9076C901.366 24.6333 900.866 24.3776 900.354 24.1414L899.662 25.6399C900.134 25.8578 900.596 26.0938 901.047 26.3469L901.855 24.9076ZM898.797 23.4957C898.272 23.3021 897.738 23.1283 897.195 22.9754L896.747 24.5641C897.249 24.7052 897.742 24.8655 898.226 25.0441L898.797 23.4957ZM895.555 22.5831C895.008 22.4748 894.453 22.3873 893.891 22.3215L893.699 23.9608C894.217 24.0216 894.73 24.1023 895.235 24.2022L895.555 22.5831ZM892.212 22.191C891.932 22.1802 891.651 22.1748 891.369 22.1748V23.8252C891.63 23.8252 891.889 23.8303 892.148 23.8403L892.212 22.191ZM891.369 22.1748H890.547V23.8252H891.369V22.1748ZM888.903 22.1748H887.259V23.8252H888.903V22.1748ZM885.616 22.1748H883.972V23.8252H885.616V22.1748ZM882.328 22.1748H880.685V23.8252H882.328V22.1748ZM879.041 22.1748H877.397V23.8252H879.041V22.1748ZM875.753 22.1748H874.11V23.8252H875.753V22.1748ZM872.466 22.1748H870.822V23.8252H872.466V22.1748ZM869.179 22.1748H867.535V23.8252H869.179V22.1748ZM865.891 22.1748H864.248V23.8252H865.891V22.1748ZM862.604 22.1748H860.96V23.8252H862.604V22.1748ZM859.316 22.1748H857.673V23.8252H859.316V22.1748ZM856.029 22.1748H854.385V23.8252H856.029V22.1748ZM852.742 22.1748H851.098V23.8252H852.742V22.1748ZM849.454 22.1748H847.811V23.8252H849.454V22.1748ZM846.167 22.1748H844.523V23.8252H846.167V22.1748ZM842.879 22.1748H841.236V23.8252H842.879V22.1748ZM839.592 22.1748H837.948V23.8252H839.592V22.1748ZM836.305 22.1748H834.661V23.8252H836.305V22.1748ZM833.017 22.1748H831.374V23.8252H833.017V22.1748ZM829.73 22.1748H828.086V23.8252H829.73V22.1748ZM826.443 22.1748H824.799V23.8252H826.443V22.1748ZM823.155 22.1748H821.511V23.8252H823.155V22.1748ZM819.868 22.1748H818.224V23.8252H819.868V22.1748ZM816.58 22.1748H814.937V23.8252H816.58V22.1748ZM813.293 22.1748H811.649V23.8252H813.293V22.1748ZM810.005 22.1748H808.362V23.8252H810.005V22.1748ZM806.718 22.1748H805.074V23.8252H806.718V22.1748ZM803.431 22.1748H801.787V23.8252H803.431V22.1748ZM800.143 22.1748H798.5V23.8252H800.143V22.1748ZM796.856 22.1748H795.212V23.8252H796.856V22.1748ZM793.568 22.1748H791.925V23.8252H793.568V22.1748ZM790.281 22.1748H788.637V23.8252H790.281V22.1748ZM786.994 22.1748H785.35V23.8252H786.994V22.1748ZM783.706 22.1748H782.063V23.8252H783.706V22.1748ZM780.419 22.1748H778.775V23.8252H780.419V22.1748ZM777.132 22.1748H775.488V23.8252H777.132V22.1748ZM773.844 22.1748H772.2V23.8252H773.844V22.1748ZM770.557 22.1748H768.913V23.8252H770.557V22.1748ZM767.269 22.1748H765.626V23.8252H767.269V22.1748ZM763.982 22.1748H762.338V23.8252H763.982V22.1748ZM760.694 22.1748H759.051V23.8252H760.694V22.1748ZM757.407 22.1748H755.763V23.8252H757.407V22.1748ZM754.12 22.1748H752.476V23.8252H754.12V22.1748ZM750.832 22.1748H749.189V23.8252H750.832V22.1748ZM747.545 22.1748H745.901V23.8252H747.545V22.1748ZM744.257 22.1748H742.614V23.8252H744.257V22.1748ZM740.97 22.1748H739.326V23.8252H740.97V22.1748ZM737.683 22.1748H736.039V23.8252H737.683V22.1748ZM734.395 22.1748H732.751V23.8252H734.395V22.1748ZM731.108 22.1748H729.464V23.8252H731.108V22.1748ZM727.82 22.1748H726.177V23.8252H727.82V22.1748ZM724.533 22.1748H722.889V23.8252H724.533V22.1748ZM721.245 22.1748H719.602V23.8252H721.245V22.1748ZM717.958 22.1748H716.314V23.8252H717.958V22.1748ZM714.671 22.1748H713.027V23.8252H714.671V22.1748ZM711.383 22.1748H709.74V23.8252H711.383V22.1748ZM708.096 22.1748H706.452V23.8252H708.096V22.1748ZM704.808 22.1748H703.165V23.8252H704.808V22.1748ZM701.521 22.1748H699.877V23.8252H701.521V22.1748ZM698.234 22.1748H696.59V23.8252H698.234V22.1748ZM694.946 22.1748H693.302V23.8252H694.946V22.1748ZM691.659 22.1748H690.015V23.8252H691.659V22.1748ZM688.371 22.1748H686.728V23.8252H688.371V22.1748ZM685.084 22.1748H683.44V23.8252H685.084V22.1748ZM681.797 22.1748H680.153V23.8252H681.797V22.1748ZM678.509 22.1748H676.865V23.8252H678.509V22.1748ZM675.222 22.1748H673.578V23.8252H675.222V22.1748ZM671.934 22.1748H670.291V23.8252H671.934V22.1748ZM668.647 22.1748H667.003V23.8252H668.647V22.1748ZM665.359 22.1748H663.716V23.8252H665.359V22.1748ZM662.072 22.1748H660.428V23.8252H662.072V22.1748ZM658.785 22.1748H657.141V23.8252H658.785V22.1748ZM655.497 22.1748H653.854V23.8252H655.497V22.1748ZM652.21 22.1748H650.566V23.8252H652.21V22.1748ZM648.922 22.1748H647.279V23.8252H648.922V22.1748ZM645.635 22.1748H643.991V23.8252H645.635V22.1748ZM642.348 22.1748H640.704V23.8252H642.348V22.1748ZM639.06 22.1748H637.416V23.8252H639.06V22.1748ZM635.773 22.1748H634.129V23.8252H635.773V22.1748ZM632.485 22.1748H630.842V23.8252H632.485V22.1748ZM629.198 22.1748H627.554V23.8252H629.198V22.1748ZM625.911 22.1748H624.267V23.8252H625.911V22.1748ZM622.623 22.1748H620.979V23.8252H622.623V22.1748ZM619.336 22.1748H617.692V23.8252H619.336V22.1748ZM616.048 22.1748H614.405V23.8252H616.048V22.1748ZM612.761 22.1748H611.117V23.8252H612.761V22.1748ZM609.473 22.1748H607.83V23.8252H609.473V22.1748ZM606.186 22.1748H604.542V23.8252H606.186V22.1748ZM602.899 22.1748H602.077V23.8252H602.899V22.1748ZM601.253 22.9532C601.239 23.215 601.22 23.476 601.198 23.7359L602.843 23.8755C602.866 23.6003 602.885 23.3241 602.901 23.0468L601.253 22.9532ZM601.022 25.2913C600.948 25.8101 600.861 26.3245 600.759 26.8341L602.378 27.157C602.485 26.6173 602.578 26.0724 602.656 25.5228L601.022 25.2913ZM600.41 28.3594C600.278 28.8663 600.133 29.3677 599.975 29.8633L601.547 30.3663C601.715 29.8412 601.868 29.31 602.007 28.7731L600.41 28.3594ZM599.456 31.3406C599.269 31.829 599.068 32.3111 598.855 32.7865L600.361 33.4622C600.587 32.9589 600.799 32.4484 600.997 31.9311L599.456 31.3406ZM598.174 34.1967C597.934 34.6608 597.681 35.1178 597.416 35.5671L598.838 36.4056C599.118 35.9301 599.386 35.4465 599.64 34.9552L598.174 34.1967ZM596.584 36.8938C596.294 37.3286 595.992 37.7552 595.679 38.1732L597.001 39.1624C597.332 38.7203 597.651 38.2691 597.957 37.8092L596.584 36.8938ZM594.706 39.4016C594.371 39.802 594.025 40.1935 593.668 40.5755L594.875 41.702C595.252 41.2982 595.618 40.8844 595.972 40.4611L594.706 39.4016ZM592.568 41.692C592.192 42.0539 591.805 42.406 591.409 42.7478L592.488 43.9972C592.906 43.6361 593.314 43.2641 593.712 42.8817L592.568 41.692ZM590.195 43.7403C589.783 44.0598 589.361 44.3687 588.93 44.6666L589.87 46.0238C590.324 45.7092 590.77 45.383 591.206 45.0455L590.195 43.7403ZM587.618 45.5241C587.174 45.7977 586.722 46.0601 586.262 46.3107L587.052 47.7599C587.537 47.4953 588.015 47.2183 588.484 46.9293L587.618 45.5241ZM584.865 47.0242C584.395 47.2491 583.917 47.462 583.433 47.6627L584.065 49.1874C584.576 48.9756 585.08 48.7508 585.577 48.5133L584.865 47.0242ZM581.969 48.2244C581.477 48.3981 580.98 48.5594 580.477 48.7079L580.944 50.2909C581.475 50.1342 582 49.9639 582.519 49.7805L581.969 48.2244ZM578.961 49.1117C578.455 49.2325 577.943 49.3404 577.427 49.4351L577.725 51.0585C578.27 50.9585 578.81 50.8446 579.344 50.7172L578.961 49.1117ZM575.878 49.6777C575.362 49.7447 574.841 49.7987 574.317 49.8392L574.444 51.4848C574.997 51.4421 575.546 51.3852 576.09 51.3145L575.878 49.6777ZM572.75 49.9198C572.489 49.9265 572.226 49.9299 571.963 49.9299V51.5804C572.24 51.5804 572.517 51.5768 572.792 51.5697L572.75 49.9198ZM571.963 49.9299C571.7 49.9299 571.438 49.9265 571.176 49.9198L571.134 51.5697C571.41 51.5768 571.686 51.5804 571.963 51.5804V49.9299ZM569.609 49.8392C569.085 49.7987 568.565 49.7447 568.049 49.6777L567.836 51.3145C568.381 51.3852 568.929 51.4421 569.482 51.4848L569.609 49.8392ZM566.5 49.4351C565.983 49.3404 565.472 49.2325 564.965 49.1117L564.582 50.7172C565.117 50.8446 565.657 50.9585 566.202 51.0585L566.5 49.4351ZM563.45 48.7079C562.947 48.5594 562.449 48.3981 561.958 48.2244L561.408 49.7805C561.926 49.9639 562.452 50.1342 562.983 50.2909L563.45 48.7079ZM560.493 47.6627C560.009 47.462 559.531 47.2491 559.061 47.0242L558.349 48.5133C558.846 48.7508 559.35 48.9756 559.862 49.1874L560.493 47.6627ZM557.665 46.3107C557.205 46.0601 556.753 45.7977 556.309 45.5241L555.443 46.9294C555.912 47.2183 556.389 47.4953 556.875 47.7599L557.665 46.3107ZM554.996 44.6666C554.566 44.3687 554.144 44.0598 553.731 43.7403L552.721 45.0455C553.157 45.383 553.602 45.7092 554.057 46.0238L554.996 44.6666ZM552.517 42.7478C552.121 42.406 551.735 42.0539 551.358 41.692L550.214 42.8817C550.612 43.2641 551.02 43.6361 551.439 43.9972L552.517 42.7478ZM550.258 40.5756C549.902 40.1935 549.555 39.802 549.22 39.4016L547.955 40.4611C548.309 40.8845 548.675 41.2982 549.052 41.702L550.258 40.5756ZM548.247 38.1732C547.934 37.7552 547.633 37.3286 547.343 36.8938L545.969 37.8093C546.276 38.2691 546.595 38.7203 546.926 39.1624L548.247 38.1732ZM546.51 35.5671C546.245 35.1178 545.992 34.6608 545.752 34.1967L544.286 34.9552C544.541 35.4465 544.808 35.9301 545.089 36.4056L546.51 35.5671ZM545.071 32.7865C544.858 32.3111 544.658 31.829 544.471 31.3406L542.929 31.9311C543.128 32.4484 543.34 32.9589 543.566 33.4623L545.071 32.7865ZM543.952 29.8633C543.793 29.3677 543.648 28.8663 543.517 28.3594L541.919 28.7731C542.058 29.31 542.212 29.8412 542.38 30.3663L543.952 29.8633ZM543.168 26.8341C543.066 26.3245 542.978 25.8101 542.905 25.2913L541.27 25.5228C541.348 26.0724 541.441 26.6173 541.549 27.157L543.168 26.8341ZM542.729 23.7359C542.706 23.476 542.688 23.215 542.673 22.9532L541.025 23.0468C541.041 23.3241 541.061 23.6003 541.084 23.8755L542.729 23.7359Z" fill="#E1A676" mask="url(#path-5-inside-1_2001_2)"/>
</g>
<path d="M572 45V215" stroke="#FFFEFD" stroke-width="2.47573" stroke-dasharray="16.5 16.5"/>
<path d="M48.9398 240.266C152.809 201.338 255.753 159.922 364.281 125.553C383.987 119.312 415.5 105.5 424 112C432.5 118.5 432.542 124.798 428 131.424C423.637 137.791 411.5 135.231 407 131.424C402.5 127.618 402 121.5 403.366 118.588C416.367 90.8723 448.169 88.666 474.42 85.1529C520.183 79.0287 537.768 79.3795 583.655 73.7744" stroke="#E1A676" stroke-opacity="0.2" stroke-width="2.47573" stroke-linecap="round"/>
<defs>
<filter id="filter0_d_2001_2" x="0.660032" y="9.63107" width="930.485" height="256.012" filterUnits="userSpaceOnUse" color-interpolation-filters="sRGB">
<feFlood flood-opacity="0" result="BackgroundImageFix"/>
<feColorMatrix in="SourceAlpha" type="matrix" values="0 0 0 0 0 0 0 0 0 0 0 0 0 0 0 0 0 0 127 0" result="hardAlpha"/>
<feMorphology radius="1.65049" operator="erode" in="SourceAlpha" result="effect1_dropShadow_2001_2"/>
<feOffset dy="5.7767"/>
<feGaussianBlur stdDeviation="10.3981"/>
<feComposite in2="hardAlpha" operator="out"/>
<feColorMatrix type="matrix" values="0 0 0 0 0.430933 0 0 0 0 0.39037 0 0 0 0 0.268679 0 0 0 0.25 0"/>
<feBlend mode="normal" in2="BackgroundImageFix" result="effect1_dropShadow_2001_2"/>
<feBlend mode="normal" in="SourceGraphic" in2="effect1_dropShadow_2001_2" result="shape"/>
</filter>
</defs>
</svg>
