<svg width="906" height="241" viewBox="0 0 906 241" fill="none" xmlns="http://www.w3.org/2000/svg">
<g clip-path="url(#clip0_2019_8)">
<mask id="mask0_2019_8" style="mask-type:alpha" maskUnits="userSpaceOnUse" x="0" y="0" width="906" height="232">
<path fill-rule="evenodd" clip-rule="evenodd" d="M591 6C591 22.5685 577.569 36 561 36C544.431 36 531 22.5685 531 6C531 3.9452 531.207 1.93866 531.6 0H20.6311C9.23685 0 0 9.23685 0 20.6311V210.716C0 222.11 9.23685 231.347 20.6311 231.347H531.002C531.001 231.232 531 231.116 531 231C531 214.431 544.431 201 561 201C577.569 201 591 214.431 591 231C591 231.116 590.999 231.232 590.998 231.347H884.412C895.806 231.347 905.043 222.11 905.043 210.716V20.6311C905.043 9.23685 895.806 0 884.412 0H590.4C590.793 1.93866 591 3.9452 591 6Z" fill="#FCFCFC"/>
</mask>
<g mask="url(#mask0_2019_8)">
<rect x="571.4" y="-19.1689" width="334.621" height="269.685" fill="#FFC338"/>
</g>
<mask id="mask1_2019_8" style="mask-type:alpha" maskUnits="userSpaceOnUse" x="0" y="2" width="906" height="231">
<path fill-rule="evenodd" clip-rule="evenodd" d="M581.043 8.38574C581.043 22.1929 569.85 33.3857 556.043 33.3857C542.236 33.3857 531.043 22.1929 531.043 8.38574C531.043 6.17868 531.329 4.03842 531.866 2H20.6311C9.23685 2 0 11.2369 0 22.6311V212.055C0 223.449 9.23685 232.686 20.6311 232.686H534.174C535.466 220.091 546.107 210.266 559.043 210.266C571.979 210.266 582.62 220.091 583.911 232.686H884.412C895.806 232.686 905.043 223.449 905.043 212.055V22.6311C905.043 11.2368 895.806 2 884.412 2H580.22C580.757 4.03842 581.043 6.17868 581.043 8.38574Z" fill="#FCFCFC"/>
</mask>
<g mask="url(#mask1_2019_8)">
<rect x="561" y="-58" width="361" height="313" fill="#FFC338"/>
</g>
<g style="mix-blend-mode:multiply" filter="url(#filter0_d_2019_8)">
<mask id="path-5-inside-1_2019_8" fill="white">
<path fill-rule="evenodd" clip-rule="evenodd" d="M29.4367 9H530.849C531.729 24.4728 544.875 36.7551 560.963 36.7551C577.051 36.7551 590.198 24.4728 591.077 9H880.369C891.763 9 901 18.2368 901 29.6311V206.089C901 217.483 891.763 226.72 880.369 226.72H591.1C590.457 211.032 577.21 198.506 560.963 198.506C544.716 198.506 531.47 211.032 530.827 226.72H29.4367C18.0425 226.72 8.80566 217.483 8.80566 206.089V29.6311C8.80566 18.2369 18.0425 9 29.4367 9Z"/>
</mask>
<path d="M530.849 9L531.261 8.97658L531.239 8.58738H530.849V9ZM591.077 9V8.58738H590.688L590.665 8.97658L591.077 9ZM591.1 226.72L590.688 226.737L590.704 227.133H591.1V226.72ZM530.827 226.72V227.133H531.223L531.239 226.737L530.827 226.72ZM530.849 8.58738H530.024V9.41262H530.849V8.58738ZM528.375 8.58738H526.726V9.41262H528.375V8.58738ZM525.076 8.58738H523.427V9.41262H525.076V8.58738ZM521.778 8.58738H520.128V9.41262H521.778V8.58738ZM518.479 8.58738H516.829V9.41262H518.479V8.58738ZM515.18 8.58738H513.531V9.41262H515.18V8.58738ZM511.881 8.58738H510.232V9.41262H511.881V8.58738ZM508.583 8.58738H506.933V9.41262H508.583V8.58738ZM505.284 8.58738H503.634V9.41262H505.284V8.58738ZM501.985 8.58738H500.336V9.41262H501.985V8.58738ZM498.686 8.58738H497.037V9.41262H498.686V8.58738ZM495.387 8.58738H493.738V9.41262H495.387V8.58738ZM492.089 8.58738H490.439V9.41262H492.089V8.58738ZM488.79 8.58738H487.141V9.41262H488.79V8.58738ZM485.491 8.58738H483.842V9.41262H485.491V8.58738ZM482.192 8.58738H480.543V9.41262H482.192V8.58738ZM478.894 8.58738H477.244V9.41262H478.894V8.58738ZM475.595 8.58738H473.945V9.41262H475.595V8.58738ZM472.296 8.58738H470.647V9.41262H472.296V8.58738ZM468.997 8.58738H467.348V9.41262H468.997V8.58738ZM465.699 8.58738H464.049V9.41262H465.699V8.58738ZM462.4 8.58738H460.75V9.41262H462.4V8.58738ZM459.101 8.58738H457.452V9.41262H459.101V8.58738ZM455.802 8.58738H454.153V9.41262H455.802V8.58738ZM452.503 8.58738H450.854V9.41262H452.503V8.58738ZM449.205 8.58738H447.555V9.41262H449.205V8.58738ZM445.906 8.58738H444.257V9.41262H445.906V8.58738ZM442.607 8.58738H440.958V9.41262H442.607V8.58738ZM439.308 8.58738H437.659V9.41262H439.308V8.58738ZM436.01 8.58738H434.36V9.41262H436.01V8.58738ZM432.711 8.58738H431.061V9.41262H432.711V8.58738ZM429.412 8.58738H427.763V9.41262H429.412V8.58738ZM426.113 8.58738H424.464V9.41262H426.113V8.58738ZM422.815 8.58738H421.165V9.41262H422.815V8.58738ZM419.516 8.58738H417.866V9.41262H419.516V8.58738ZM416.217 8.58738H414.568V9.41262H416.217V8.58738ZM412.918 8.58738H411.269V9.41262H412.918V8.58738ZM409.62 8.58738H407.97V9.41262H409.62V8.58738ZM406.321 8.58738H404.671V9.41262H406.321V8.58738ZM403.022 8.58738H401.373V9.41262H403.022V8.58738ZM399.723 8.58738H398.074V9.41262H399.723V8.58738ZM396.424 8.58738H394.775V9.41262H396.424V8.58738ZM393.126 8.58738H391.476V9.41262H393.126V8.58738ZM389.827 8.58738H388.178V9.41262H389.827V8.58738ZM386.528 8.58738H384.879V9.41262H386.528V8.58738ZM383.229 8.58738H381.58V9.41262H383.229V8.58738ZM379.931 8.58738H378.281V9.41262H379.931V8.58738ZM376.632 8.58738H374.982V9.41262H376.632V8.58738ZM373.333 8.58738H371.684V9.41262H373.333V8.58738ZM370.034 8.58738H368.385V9.41262H370.034V8.58738ZM366.736 8.58738H365.086V9.41262H366.736V8.58738ZM363.437 8.58738H361.787V9.41262H363.437V8.58738ZM360.138 8.58738H358.489V9.41262H360.138V8.58738ZM356.839 8.58738H355.19V9.41262H356.839V8.58738ZM353.54 8.58738H351.891V9.41262H353.54V8.58738ZM350.242 8.58738H348.592V9.41262H350.242V8.58738ZM346.943 8.58738H345.294V9.41262H346.943V8.58738ZM343.644 8.58738H341.995V9.41262H343.644V8.58738ZM340.345 8.58738H338.696V9.41262H340.345V8.58738ZM337.047 8.58738H335.397V9.41262H337.047V8.58738ZM333.748 8.58738H332.098V9.41262H333.748V8.58738ZM330.449 8.58738H328.8V9.41262H330.449V8.58738ZM327.15 8.58738H325.501V9.41262H327.15V8.58738ZM323.852 8.58738H322.202V9.41262H323.852V8.58738ZM320.553 8.58738H318.903V9.41262H320.553V8.58738ZM317.254 8.58738H315.605V9.41262H317.254V8.58738ZM313.955 8.58738H312.306V9.41262H313.955V8.58738ZM310.656 8.58738H309.007V9.41262H310.656V8.58738ZM307.358 8.58738H305.708V9.41262H307.358V8.58738ZM304.059 8.58738H302.41V9.41262H304.059V8.58738ZM300.76 8.58738H299.111V9.41262H300.76V8.58738ZM297.461 8.58738H295.812V9.41262H297.461V8.58738ZM294.163 8.58738H292.513V9.41262H294.163V8.58738ZM290.864 8.58738H289.215V9.41262H290.864V8.58738ZM287.565 8.58738H285.916V9.41262H287.565V8.58738ZM284.266 8.58738H282.617V9.41262H284.266V8.58738ZM280.968 8.58738H279.318V9.41262H280.968V8.58738ZM277.669 8.58738H276.019V9.41262H277.669V8.58738ZM274.37 8.58738H272.721V9.41262H274.37V8.58738ZM271.071 8.58738H269.422V9.41262H271.071V8.58738ZM267.773 8.58738H266.123V9.41262H267.773V8.58738ZM264.474 8.58738H262.824V9.41262H264.474V8.58738ZM261.175 8.58738H259.526V9.41262H261.175V8.58738ZM257.876 8.58738H256.227V9.41262H257.876V8.58738ZM254.577 8.58738H252.928V9.41262H254.577V8.58738ZM251.279 8.58738H249.629V9.41262H251.279V8.58738ZM247.98 8.58738H246.331V9.41262H247.98V8.58738ZM244.681 8.58738H243.032V9.41262H244.681V8.58738ZM241.382 8.58738H239.733V9.41262H241.382V8.58738ZM238.084 8.58738H236.434V9.41262H238.084V8.58738ZM234.785 8.58738H233.135V9.41262H234.785V8.58738ZM231.486 8.58738H229.837V9.41262H231.486V8.58738ZM228.187 8.58738H226.538V9.41262H228.187V8.58738ZM224.889 8.58738H223.239V9.41262H224.889V8.58738ZM221.59 8.58738H219.94V9.41262H221.59V8.58738ZM218.291 8.58738H216.642V9.41262H218.291V8.58738ZM214.992 8.58738H213.343V9.41262H214.992V8.58738ZM211.693 8.58738H210.044V9.41262H211.693V8.58738ZM208.395 8.58738H206.745V9.41262H208.395V8.58738ZM205.096 8.58738H203.447V9.41262H205.096V8.58738ZM201.797 8.58738H200.148V9.41262H201.797V8.58738ZM198.498 8.58738H196.849V9.41262H198.498V8.58738ZM195.2 8.58738H193.55V9.41262H195.2V8.58738ZM191.901 8.58738H190.252V9.41262H191.901V8.58738ZM188.602 8.58738H186.953V9.41262H188.602V8.58738ZM185.303 8.58738H183.654V9.41262H185.303V8.58738ZM182.005 8.58738H180.355V9.41262H182.005V8.58738ZM178.706 8.58738H177.056V9.41262H178.706V8.58738ZM175.407 8.58738H173.758V9.41262H175.407V8.58738ZM172.108 8.58738H170.459V9.41262H172.108V8.58738ZM168.81 8.58738H167.16V9.41262H168.81V8.58738ZM165.511 8.58738H163.861V9.41262H165.511V8.58738ZM162.212 8.58738H160.563V9.41262H162.212V8.58738ZM158.913 8.58738H157.264V9.41262H158.913V8.58738ZM155.614 8.58738H153.965V9.41262H155.614V8.58738ZM152.316 8.58738H150.666V9.41262H152.316V8.58738ZM149.017 8.58738H147.368V9.41262H149.017V8.58738ZM145.718 8.58738H144.069V9.41262H145.718V8.58738ZM142.419 8.58738H140.77V9.41262H142.419V8.58738ZM139.121 8.58738H137.471V9.41262H139.121V8.58738ZM135.822 8.58738H134.172V9.41262H135.822V8.58738ZM132.523 8.58738H130.874V9.41262H132.523V8.58738ZM129.224 8.58738H127.575V9.41262H129.224V8.58738ZM125.926 8.58738H124.276V9.41262H125.926V8.58738ZM122.627 8.58738H120.977V9.41262H122.627V8.58738ZM119.328 8.58738H117.679V9.41262H119.328V8.58738ZM116.029 8.58738H114.38V9.41262H116.029V8.58738ZM112.73 8.58738H111.081V9.41262H112.73V8.58738ZM109.432 8.58738H107.782V9.41262H109.432V8.58738ZM106.133 8.58738H104.484V9.41262H106.133V8.58738ZM102.834 8.58738H101.185V9.41262H102.834V8.58738ZM99.5354 8.58738H97.886V9.41262H99.5354V8.58738ZM96.2366 8.58738H94.5872V9.41262H96.2366V8.58738ZM92.9379 8.58738H91.2885V9.41262H92.9379V8.58738ZM89.6391 8.58738H87.9897V9.41262H89.6391V8.58738ZM86.3403 8.58738H84.6909V9.41262H86.3403V8.58738ZM83.0416 8.58738H81.3922V9.41262H83.0416V8.58738ZM79.7428 8.58738H78.0934V9.41262H79.7428V8.58738ZM76.444 8.58738H74.7947V9.41262H76.444V8.58738ZM73.1452 8.58738H71.4959V9.41262H73.1452V8.58738ZM69.8465 8.58738H68.1971V9.41262H69.8465V8.58738ZM66.5477 8.58738H64.8983V9.41262H66.5477V8.58738ZM63.249 8.58738H61.5996V9.41262H63.249V8.58738ZM59.9502 8.58738H58.3008V9.41262H59.9502V8.58738ZM56.6514 8.58738H55.002V9.41262H56.6514V8.58738ZM53.3527 8.58738H51.7033V9.41262H53.3527V8.58738ZM50.0539 8.58738H48.4045V9.41262H50.0539V8.58738ZM46.7551 8.58738H45.1058V9.41262H46.7551V8.58738ZM43.4563 8.58738H41.807V9.41262H43.4563V8.58738ZM40.1576 8.58738H38.5082V9.41262H40.1576V8.58738ZM36.8588 8.58738H35.2094V9.41262H36.8588V8.58738ZM33.5601 8.58738H31.9107V9.41262H33.5601V8.58738ZM30.2613 8.58738H29.4367V9.41262H30.2613V8.58738ZM29.4367 8.58738C29.1598 8.58738 28.884 8.59273 28.6096 8.60334L28.6415 9.42797C28.9053 9.41777 29.1704 9.41262 29.4367 9.41262V8.58738ZM26.9623 8.73136C26.4115 8.79589 25.8672 8.88168 25.3303 8.98792L25.4904 9.79747C26.0062 9.69543 26.5291 9.613 27.0583 9.551L26.9623 8.73136ZM23.7225 9.37257C23.1899 9.52252 22.6658 9.69291 22.1511 9.88283L22.4368 10.657C22.9311 10.4746 23.4345 10.311 23.9461 10.1669L23.7225 9.37257ZM20.6241 10.516C20.1225 10.7477 19.6316 10.9985 19.1523 11.2674L19.5562 11.9871C20.0167 11.7287 20.4883 11.4878 20.9701 11.2653L20.6241 10.516ZM17.7442 12.1321C17.2858 12.439 16.8401 12.7635 16.4081 13.1045L16.9194 13.7522C17.3346 13.4245 17.7628 13.1128 18.2033 12.8179L17.7442 12.1321ZM15.1522 14.1782C14.7477 14.5522 14.3579 14.942 13.9838 15.3465L14.5897 15.9068C14.9492 15.5181 15.3238 15.1435 15.7125 14.784L15.1522 14.1782ZM12.9102 16.6024C12.5691 17.0344 12.2447 17.4801 11.9378 17.9386L12.6235 18.3977C12.9184 17.9572 13.2302 17.5289 13.5579 17.1138L12.9102 16.6024ZM11.0731 19.3467C10.8041 19.826 10.5533 20.3169 10.3217 20.8185L11.0709 21.1644C11.2934 20.6826 11.5343 20.211 11.7928 19.7505L11.0731 19.3467ZM9.6885 22.3455C9.49857 22.8601 9.32819 23.3842 9.17824 23.9169L9.97261 24.1405C10.1166 23.6289 10.2803 23.1255 10.4627 22.6312L9.6885 22.3455ZM8.79358 25.5246C8.68735 26.0616 8.60155 26.6059 8.53703 27.1566L9.35666 27.2527C9.41866 26.7235 9.50109 26.2006 9.60313 25.6848L8.79358 25.5246ZM8.40901 28.804C8.3984 29.0784 8.39304 29.3541 8.39304 29.6311H9.21829C9.21829 29.3647 9.22343 29.0996 9.23363 28.8358L8.40901 28.804ZM8.39304 29.6311V30.4634H9.21829V29.6311H8.39304ZM8.39304 32.1281V33.7928H9.21829V32.1281H8.39304ZM8.39304 35.4575V37.1222H9.21829V35.4575H8.39304ZM8.39304 38.7869V40.4516H9.21829V38.7869H8.39304ZM8.39304 42.1163V43.781H9.21829V42.1163H8.39304ZM8.39304 45.4457V47.1104H9.21829V45.4457H8.39304ZM8.39304 48.7751V50.4398H9.21829V48.7751H8.39304ZM8.39304 52.1045V53.7692H9.21829V52.1045H8.39304ZM8.39304 55.4339V57.0986H9.21829V55.4339H8.39304ZM8.39304 58.7633V60.428H9.21829V58.7633H8.39304ZM8.39304 62.0927V63.7574H9.21829V62.0927H8.39304ZM8.39304 65.4221V67.0868H9.21829V65.4221H8.39304ZM8.39304 68.7515V70.4162H9.21829V68.7515H8.39304ZM8.39304 72.0809V73.7456H9.21829V72.0809H8.39304ZM8.39304 75.4103V77.075H9.21829V75.4103H8.39304ZM8.39304 78.7397V80.4044H9.21829V78.7397H8.39304ZM8.39304 82.0691V83.7338H9.21829V82.0691H8.39304ZM8.39304 85.3985V87.0632H9.21829V85.3985H8.39304ZM8.39304 88.7279V90.3926H9.21829V88.7279H8.39304ZM8.39304 92.0573V93.722H9.21829V92.0573H8.39304ZM8.39304 95.3867V97.0514H9.21829V95.3867H8.39304ZM8.39304 98.7161V100.381H9.21829V98.7161H8.39304ZM8.39304 102.045V103.71H9.21829V102.045H8.39304ZM8.39304 105.375V107.04H9.21829V105.375H8.39304ZM8.39304 108.704V110.369H9.21829V108.704H8.39304ZM8.39304 112.034V113.698H9.21829V112.034H8.39304ZM8.39304 115.363V117.028H9.21829V115.363H8.39304ZM8.39304 118.692V120.357H9.21829V118.692H8.39304ZM8.39304 122.022V123.687H9.21829V122.022H8.39304ZM8.39304 125.351V127.016H9.21829V125.351H8.39304ZM8.39304 128.681V130.345H9.21829V128.681H8.39304ZM8.39304 132.01V133.675H9.21829V132.01H8.39304ZM8.39304 135.339V137.004H9.21829V135.339H8.39304ZM8.39304 138.669V140.333H9.21829V138.669H8.39304ZM8.39304 141.998V143.663H9.21829V141.998H8.39304ZM8.39304 145.328V146.992H9.21829V145.328H8.39304ZM8.39304 148.657V150.322H9.21829V148.657H8.39304ZM8.39304 151.986V153.651H9.21829V151.986H8.39304ZM8.39304 155.316V156.98H9.21829V155.316H8.39304ZM8.39304 158.645V160.31H9.21829V158.645H8.39304ZM8.39304 161.975V163.639H9.21829V161.975H8.39304ZM8.39304 165.304V166.969H9.21829V165.304H8.39304ZM8.39304 168.633V170.298H9.21829V168.633H8.39304ZM8.39304 171.963V173.627H9.21829V171.963H8.39304ZM8.39304 175.292V176.957H9.21829V175.292H8.39304ZM8.39304 178.622V180.286H9.21829V178.622H8.39304ZM8.39304 181.951V183.616H9.21829V181.951H8.39304ZM8.39304 185.28V186.945H9.21829V185.28H8.39304ZM8.39304 188.61V190.275H9.21829V188.61H8.39304ZM8.39304 191.939V193.604H9.21829V191.939H8.39304ZM8.39304 195.269V196.933H9.21829V195.269H8.39304ZM8.39304 198.598V200.263H9.21829V198.598H8.39304ZM8.39304 201.927V203.592H9.21829V201.927H8.39304ZM8.39304 205.257V206.089H9.21829V205.257H8.39304ZM8.39304 206.089C8.39304 206.366 8.3984 206.642 8.409 206.916L9.23363 206.884C9.22343 206.621 9.21829 206.356 9.21829 206.089H8.39304ZM8.53703 208.564C8.60155 209.114 8.68735 209.659 8.79358 210.196L9.60313 210.036C9.50109 209.52 9.41866 208.997 9.35666 208.468L8.53703 208.564ZM9.17824 211.803C9.32819 212.336 9.49857 212.86 9.6885 213.375L10.4627 213.089C10.2803 212.595 10.1166 212.091 9.97261 211.58L9.17824 211.803ZM10.3217 214.902C10.5533 215.403 10.8041 215.894 11.0731 216.374L11.7928 215.97C11.5343 215.509 11.2934 215.038 11.0709 214.556L10.3217 214.902ZM11.9378 217.782C12.2447 218.24 12.5692 218.686 12.9102 219.118L13.5579 218.606C13.2302 218.191 12.9184 217.763 12.6235 217.323L11.9378 217.782ZM13.9838 220.374C14.3579 220.778 14.7477 221.168 15.1522 221.542L15.7125 220.936C15.3238 220.577 14.9492 220.202 14.5897 219.813L13.9838 220.374ZM16.4081 222.616C16.8401 222.957 17.2858 223.281 17.7442 223.588L18.2033 222.902C17.7628 222.607 17.3346 222.296 16.9194 221.968L16.4081 222.616ZM19.1523 224.453C19.6316 224.722 20.1225 224.973 20.6241 225.204L20.9701 224.455C20.4883 224.232 20.0167 223.992 19.5562 223.733L19.1523 224.453ZM22.1511 225.837C22.6658 226.027 23.1899 226.198 23.7225 226.348L23.9462 225.553C23.4345 225.409 22.9312 225.246 22.4369 225.063L22.1511 225.837ZM25.3303 226.732C25.8673 226.839 26.4116 226.924 26.9623 226.989L27.0583 226.169C26.5292 226.107 26.0062 226.025 25.4904 225.923L25.3303 226.732ZM28.6096 227.117C28.8841 227.128 29.1598 227.133 29.4367 227.133V226.308C29.1704 226.308 28.9053 226.302 28.6415 226.292L28.6096 227.117ZM29.4367 227.133H30.2614V226.308H29.4367V227.133ZM31.9107 227.133H33.56V226.308H31.9107V227.133ZM35.2093 227.133H36.8586V226.308H35.2093V227.133ZM38.5079 227.133H40.1573V226.308H38.5079V227.133ZM41.8066 227.133H43.4559V226.308H41.8066V227.133ZM45.1052 227.133H46.7545V226.308H45.1052V227.133ZM48.4038 227.133H50.0531V226.308H48.4038V227.133ZM51.7024 227.133H53.3517V226.308H51.7024V227.133ZM55.001 227.133H56.6503V226.308H55.001V227.133ZM58.2997 227.133H59.949V226.308H58.2997V227.133ZM61.5983 227.133H63.2476V226.308H61.5983V227.133ZM64.8969 227.133H66.5462V226.308H64.8969V227.133ZM68.1955 227.133H69.8448V226.308H68.1955V227.133ZM71.4941 227.133H73.1434V226.308H71.4941V227.133ZM74.7927 227.133H76.442V226.308H74.7927V227.133ZM78.0913 227.133H79.7407V226.308H78.0913V227.133ZM81.39 227.133H83.0393V226.308H81.39V227.133ZM84.6886 227.133H86.3379V226.308H84.6886V227.133ZM87.9872 227.133H89.6365V226.308H87.9872V227.133ZM91.2858 227.133H92.9351V226.308H91.2858V227.133ZM94.5844 227.133H96.2337V226.308H94.5844V227.133ZM97.883 227.133H99.5323V226.308H97.883V227.133ZM101.182 227.133H102.831V226.308H101.182V227.133ZM104.48 227.133H106.13V226.308H104.48V227.133ZM107.779 227.133H109.428V226.308H107.779V227.133ZM111.077 227.133H112.727V226.308H111.077V227.133ZM114.376 227.133H116.025V226.308H114.376V227.133ZM117.675 227.133H119.324V226.308H117.675V227.133ZM120.973 227.133H122.623V226.308H120.973V227.133ZM124.272 227.133H125.921V226.308H124.272V227.133ZM127.571 227.133H129.22V226.308H127.571V227.133ZM130.869 227.133H132.518V226.308H130.869V227.133ZM134.168 227.133H135.817V226.308H134.168V227.133ZM137.466 227.133H139.116V226.308H137.466V227.133ZM140.765 227.133H142.414V226.308H140.765V227.133ZM144.064 227.133H145.713V226.308H144.064V227.133ZM147.362 227.133H149.012V226.308H147.362V227.133ZM150.661 227.133H152.31V226.308H150.661V227.133ZM153.959 227.133H155.609V226.308H153.959V227.133ZM157.258 227.133H158.907V226.308H157.258V227.133ZM160.557 227.133H162.206V226.308H160.557V227.133ZM163.855 227.133H165.505V226.308H163.855V227.133ZM167.154 227.133H168.803V226.308H167.154V227.133ZM170.453 227.133H172.102V226.308H170.453V227.133ZM173.751 227.133H175.4V226.308H173.751V227.133ZM177.05 227.133H178.699V226.308H177.05V227.133ZM180.348 227.133H181.998V226.308H180.348V227.133ZM183.647 227.133H185.296V226.308H183.647V227.133ZM186.946 227.133H188.595V226.308H186.946V227.133ZM190.244 227.133H191.894V226.308H190.244V227.133ZM193.543 227.133H195.192V226.308H193.543V227.133ZM196.841 227.133H198.491V226.308H196.841V227.133ZM200.14 227.133H201.789V226.308H200.14V227.133ZM203.439 227.133H205.088V226.308H203.439V227.133ZM206.737 227.133H208.387V226.308H206.737V227.133ZM210.036 227.133H211.685V226.308H210.036V227.133ZM213.335 227.133H214.984V226.308H213.335V227.133ZM216.633 227.133H218.282V226.308H216.633V227.133ZM219.932 227.133H221.581V226.308H219.932V227.133ZM223.23 227.133H224.88V226.308H223.23V227.133ZM226.529 227.133H228.178V226.308H226.529V227.133ZM229.828 227.133H231.477V226.308H229.828V227.133ZM233.126 227.133H234.776V226.308H233.126V227.133ZM236.425 227.133H238.074V226.308H236.425V227.133ZM239.723 227.133H241.373V226.308H239.723V227.133ZM243.022 227.133H244.671V226.308H243.022V227.133ZM246.321 227.133H247.97V226.308H246.321V227.133ZM249.619 227.133H251.269V226.308H249.619V227.133ZM252.918 227.133H254.567V226.308H252.918V227.133ZM256.217 227.133H257.866V226.308H256.217V227.133ZM259.515 227.133H261.164V226.308H259.515V227.133ZM262.814 227.133H264.463V226.308H262.814V227.133ZM266.112 227.133H267.762V226.308H266.112V227.133ZM269.411 227.133H271.06V226.308H269.411V227.133ZM272.71 227.133H274.359V226.308H272.71V227.133ZM276.008 227.133H277.658V226.308H276.008V227.133ZM279.307 227.133H280.956V226.308H279.307V227.133ZM282.605 227.133H284.255V226.308H282.605V227.133ZM285.904 227.133H287.553V226.308H285.904V227.133ZM289.203 227.133H290.852V226.308H289.203V227.133ZM292.501 227.133H294.151V226.308H292.501V227.133ZM295.8 227.133H297.449V226.308H295.8V227.133ZM299.099 227.133H300.748V226.308H299.099V227.133ZM302.397 227.133H304.047V226.308H302.397V227.133ZM305.696 227.133H307.345V226.308H305.696V227.133ZM308.995 227.133H310.644V226.308H308.995V227.133ZM312.293 227.133H313.943V226.308H312.293V227.133ZM315.592 227.133H317.241V226.308H315.592V227.133ZM318.891 227.133H320.54V226.308H318.891V227.133ZM322.189 227.133H323.838V226.308H322.189V227.133ZM325.488 227.133H327.137V226.308H325.488V227.133ZM328.786 227.133H330.436V226.308H328.786V227.133ZM332.085 227.133H333.734V226.308H332.085V227.133ZM335.384 227.133H337.033V226.308H335.384V227.133ZM338.682 227.133H340.332V226.308H338.682V227.133ZM341.981 227.133H343.63V226.308H341.981V227.133ZM345.28 227.133H346.929V226.308H345.28V227.133ZM348.578 227.133H350.228V226.308H348.578V227.133ZM351.877 227.133H353.526V226.308H351.877V227.133ZM355.176 227.133H356.825V226.308H355.176V227.133ZM358.474 227.133H360.124V226.308H358.474V227.133ZM361.773 227.133H363.422V226.308H361.773V227.133ZM365.072 227.133H366.721V226.308H365.072V227.133ZM368.37 227.133H370.02V226.308H368.37V227.133ZM371.669 227.133H373.318V226.308H371.669V227.133ZM374.967 227.133H376.617V226.308H374.967V227.133ZM378.266 227.133H379.915V226.308H378.266V227.133ZM381.565 227.133H383.214V226.308H381.565V227.133ZM384.863 227.133H386.513V226.308H384.863V227.133ZM388.162 227.133H389.811V226.308H388.162V227.133ZM391.461 227.133H393.11V226.308H391.461V227.133ZM394.759 227.133H396.409V226.308H394.759V227.133ZM398.058 227.133H399.707V226.308H398.058V227.133ZM401.357 227.133H403.006V226.308H401.357V227.133ZM404.655 227.133H406.305V226.308H404.655V227.133ZM407.954 227.133H409.603V226.308H407.954V227.133ZM411.253 227.133H412.902V226.308H411.253V227.133ZM414.551 227.133H416.201V226.308H414.551V227.133ZM417.85 227.133H419.499V226.308H417.85V227.133ZM421.148 227.133H422.798V226.308H421.148V227.133ZM424.447 227.133H426.096V226.308H424.447V227.133ZM427.746 227.133H429.395V226.308H427.746V227.133ZM431.044 227.133H432.694V226.308H431.044V227.133ZM434.343 227.133H435.992V226.308H434.343V227.133ZM437.642 227.133H439.291V226.308H437.642V227.133ZM440.94 227.133H442.59V226.308H440.94V227.133ZM444.239 227.133H445.888V226.308H444.239V227.133ZM447.538 227.133H449.187V226.308H447.538V227.133ZM450.836 227.133H452.486V226.308H450.836V227.133ZM454.135 227.133H455.784V226.308H454.135V227.133ZM457.434 227.133H459.083V226.308H457.434V227.133ZM460.732 227.133H462.382V226.308H460.732V227.133ZM464.031 227.133H465.68V226.308H464.031V227.133ZM467.33 227.133H468.979V226.308H467.33V227.133ZM470.628 227.133H472.277V226.308H470.628V227.133ZM473.927 227.133H475.576V226.308H473.927V227.133ZM477.225 227.133H478.875V226.308H477.225V227.133ZM480.524 227.133H482.173V226.308H480.524V227.133ZM483.823 227.133H485.472V226.308H483.823V227.133ZM487.121 227.133H488.771V226.308H487.121V227.133ZM490.42 227.133H492.069V226.308H490.42V227.133ZM493.719 227.133H495.368V226.308H493.719V227.133ZM497.017 227.133H498.667V226.308H497.017V227.133ZM500.316 227.133H501.965V226.308H500.316V227.133ZM503.615 227.133H505.264V226.308H503.615V227.133ZM506.913 227.133H508.563V226.308H506.913V227.133ZM510.212 227.133H511.861V226.308H510.212V227.133ZM513.511 227.133H515.16V226.308H513.511V227.133ZM516.809 227.133H518.459V226.308H516.809V227.133ZM520.108 227.133H521.757V226.308H520.108V227.133ZM523.406 227.133H525.056V226.308H523.406V227.133ZM526.705 227.133H528.354V226.308H526.705V227.133ZM530.004 227.133H530.827V226.308H530.004V227.133ZM531.239 226.737C531.25 226.468 531.265 226.201 531.283 225.934L530.46 225.877C530.441 226.151 530.426 226.427 530.414 226.703L531.239 226.737ZM531.439 224.337C531.506 223.804 531.589 223.275 531.685 222.751L530.874 222.602C530.774 223.141 530.69 223.685 530.62 224.234L531.439 224.337ZM532.021 221.183C532.148 220.661 532.29 220.145 532.445 219.635L531.656 219.394C531.496 219.919 531.35 220.45 531.219 220.987L532.021 221.183ZM532.957 218.114C533.143 217.611 533.342 217.114 533.555 216.624L532.798 216.295C532.579 216.799 532.374 217.311 532.183 217.828L532.957 218.114ZM534.235 215.17C534.476 214.692 534.73 214.221 534.996 213.757L534.281 213.346C534.007 213.822 533.745 214.307 533.498 214.8L534.235 215.17ZM535.835 212.389C536.127 211.94 536.432 211.5 536.748 211.068L536.083 210.58C535.757 211.024 535.444 211.477 535.143 211.938L535.835 212.389ZM537.733 209.8C538.073 209.387 538.424 208.983 538.786 208.588L538.178 208.03C537.806 208.436 537.445 208.851 537.096 209.276L537.733 209.8ZM539.904 207.435C540.287 207.061 540.68 206.698 541.083 206.345L540.539 205.724C540.125 206.087 539.721 206.461 539.327 206.845L539.904 207.435ZM542.319 205.319C542.74 204.989 543.17 204.67 543.609 204.362L543.135 203.686C542.684 204.003 542.242 204.331 541.809 204.67L542.319 205.319ZM544.948 203.476C545.401 203.193 545.863 202.921 546.333 202.662L545.934 201.94C545.451 202.206 544.977 202.485 544.511 202.775L544.948 203.476ZM547.759 201.925C548.24 201.692 548.728 201.472 549.223 201.264L548.904 200.503C548.396 200.716 547.894 200.943 547.4 201.182L547.759 201.925ZM550.721 200.683C551.224 200.504 551.733 200.337 552.248 200.183L552.012 199.392C551.483 199.55 550.96 199.722 550.443 199.906L550.721 200.683ZM553.799 199.765C554.317 199.64 554.841 199.529 555.369 199.431L555.219 198.619C554.676 198.72 554.138 198.835 553.605 198.963L553.799 199.765ZM556.956 199.18C557.484 199.11 558.017 199.055 558.553 199.013L558.489 198.19C557.938 198.233 557.391 198.29 556.848 198.362L556.956 199.18ZM560.158 198.929C560.425 198.922 560.694 198.919 560.963 198.919V198.094C560.687 198.094 560.411 198.097 560.136 198.104L560.158 198.929ZM560.963 198.919C561.233 198.919 561.501 198.922 561.769 198.929L561.79 198.104C561.515 198.097 561.24 198.094 560.963 198.094V198.919ZM563.373 199.013C563.91 199.055 564.443 199.11 564.971 199.18L565.078 198.362C564.536 198.29 563.989 198.233 563.438 198.19L563.373 199.013ZM566.557 199.431C567.086 199.529 567.609 199.64 568.128 199.765L568.321 198.963C567.789 198.835 567.251 198.72 566.708 198.619L566.557 199.431ZM569.679 200.183C570.194 200.337 570.703 200.504 571.206 200.683L571.483 199.906C570.967 199.722 570.444 199.55 569.915 199.392L569.679 200.183ZM572.703 201.264C573.198 201.472 573.687 201.692 574.167 201.925L574.527 201.182C574.033 200.943 573.531 200.716 573.022 200.503L572.703 201.264ZM575.594 202.662C576.064 202.921 576.525 203.193 576.979 203.476L577.416 202.775C576.95 202.485 576.475 202.206 575.993 201.94L575.594 202.662ZM578.318 204.362C578.757 204.67 579.187 204.989 579.608 205.319L580.117 204.67C579.685 204.331 579.243 204.003 578.792 203.686L578.318 204.362ZM580.844 206.345C581.247 206.698 581.64 207.061 582.023 207.435L582.599 206.845C582.206 206.461 581.802 206.087 581.388 205.724L580.844 206.345ZM583.14 208.588C583.502 208.983 583.853 209.387 584.193 209.8L584.831 209.276C584.481 208.851 584.12 208.436 583.748 208.03L583.14 208.588ZM585.178 211.068C585.495 211.5 585.799 211.94 586.092 212.389L586.783 211.938C586.482 211.477 586.169 211.024 585.844 210.58L585.178 211.068ZM586.93 213.757C587.197 214.221 587.451 214.692 587.691 215.17L588.429 214.8C588.181 214.307 587.92 213.822 587.646 213.346L586.93 213.757ZM588.372 216.624C588.585 217.114 588.784 217.611 588.969 218.114L589.744 217.828C589.553 217.311 589.348 216.799 589.129 216.295L588.372 216.624ZM589.481 219.635C589.637 220.145 589.778 220.661 589.906 221.183L590.707 220.987C590.576 220.45 590.431 219.919 590.27 219.394L589.481 219.635ZM590.241 222.751C590.338 223.275 590.42 223.804 590.487 224.337L591.306 224.234C591.237 223.685 591.152 223.141 591.053 222.602L590.241 222.751ZM590.643 225.934C590.662 226.201 590.677 226.468 590.688 226.737L591.512 226.703C591.501 226.427 591.486 226.151 591.467 225.877L590.643 225.934ZM591.1 227.133H591.922V226.308H591.1V227.133ZM593.565 227.133H595.209V226.308H593.565V227.133ZM596.852 227.133H598.496V226.308H596.852V227.133ZM600.139 227.133H601.783V226.308H600.139V227.133ZM603.427 227.133H605.07V226.308H603.427V227.133ZM606.714 227.133H608.357V226.308H606.714V227.133ZM610.001 227.133H611.644V226.308H610.001V227.133ZM613.288 227.133H614.932V226.308H613.288V227.133ZM616.575 227.133H618.219V226.308H616.575V227.133ZM619.862 227.133H621.506V226.308H619.862V227.133ZM623.149 227.133H624.793V226.308H623.149V227.133ZM626.437 227.133H628.08V226.308H626.437V227.133ZM629.724 227.133H631.367V226.308H629.724V227.133ZM633.011 227.133H634.654V226.308H633.011V227.133ZM636.298 227.133H637.942V226.308H636.298V227.133ZM639.585 227.133H641.229V226.308H639.585V227.133ZM642.872 227.133H644.516V226.308H642.872V227.133ZM646.159 227.133H647.803V226.308H646.159V227.133ZM649.447 227.133H651.09V226.308H649.447V227.133ZM652.734 227.133H654.377V226.308H652.734V227.133ZM656.021 227.133H657.665V226.308H656.021V227.133ZM659.308 227.133H660.952V226.308H659.308V227.133ZM662.595 227.133H664.239V226.308H662.595V227.133ZM665.882 227.133H667.526V226.308H665.882V227.133ZM669.169 227.133H670.813V226.308H669.169V227.133ZM672.457 227.133H674.1V226.308H672.457V227.133ZM675.744 227.133H677.387V226.308H675.744V227.133ZM679.031 227.133H680.674V226.308H679.031V227.133ZM682.318 227.133H683.962V226.308H682.318V227.133ZM685.605 227.133H687.249V226.308H685.605V227.133ZM688.892 227.133H690.536V226.308H688.892V227.133ZM692.18 227.133H693.823V226.308H692.18V227.133ZM695.467 227.133H697.11V226.308H695.467V227.133ZM698.754 227.133H700.397V226.308H698.754V227.133ZM702.041 227.133H703.685V226.308H702.041V227.133ZM705.328 227.133H706.972V226.308H705.328V227.133ZM708.615 227.133H710.259V226.308H708.615V227.133ZM711.902 227.133H713.546V226.308H711.902V227.133ZM715.189 227.133H716.833V226.308H715.189V227.133ZM718.477 227.133H720.12V226.308H718.477V227.133ZM721.764 227.133H723.407V226.308H721.764V227.133ZM725.051 227.133H726.694V226.308H725.051V227.133ZM728.338 227.133H729.982V226.308H728.338V227.133ZM731.625 227.133H733.269V226.308H731.625V227.133ZM734.912 227.133H736.556V226.308H734.912V227.133ZM738.199 227.133H739.843V226.308H738.199V227.133ZM741.487 227.133H743.13V226.308H741.487V227.133ZM744.774 227.133H746.417V226.308H744.774V227.133ZM748.061 227.133H749.704V226.308H748.061V227.133ZM751.348 227.133H752.992V226.308H751.348V227.133ZM754.635 227.133H756.279V226.308H754.635V227.133ZM757.922 227.133H759.566V226.308H757.922V227.133ZM761.209 227.133H762.853V226.308H761.209V227.133ZM764.497 227.133H766.14V226.308H764.497V227.133ZM767.784 227.133H769.427V226.308H767.784V227.133ZM771.071 227.133H772.714V226.308H771.071V227.133ZM774.358 227.133H776.002V226.308H774.358V227.133ZM777.645 227.133H779.289V226.308H777.645V227.133ZM780.932 227.133H782.576V226.308H780.932V227.133ZM784.219 227.133H785.863V226.308H784.219V227.133ZM787.507 227.133H789.15V226.308H787.507V227.133ZM790.794 227.133H792.437V226.308H790.794V227.133ZM794.081 227.133H795.724V226.308H794.081V227.133ZM797.368 227.133H799.012V226.308H797.368V227.133ZM800.655 227.133H802.299V226.308H800.655V227.133ZM803.942 227.133H805.586V226.308H803.942V227.133ZM807.229 227.133H808.873V226.308H807.229V227.133ZM810.517 227.133H812.16V226.308H810.517V227.133ZM813.804 227.133H815.447V226.308H813.804V227.133ZM817.091 227.133H818.734V226.308H817.091V227.133ZM820.378 227.133H822.021V226.308H820.378V227.133ZM823.665 227.133H825.309V226.308H823.665V227.133ZM826.952 227.133H828.596V226.308H826.952V227.133ZM830.239 227.133H831.883V226.308H830.239V227.133ZM833.526 227.133H835.17V226.308H833.526V227.133ZM836.814 227.133H838.457V226.308H836.814V227.133ZM840.101 227.133H841.744V226.308H840.101V227.133ZM843.388 227.133H845.031V226.308H843.388V227.133ZM846.675 227.133H848.319V226.308H846.675V227.133ZM849.962 227.133H851.606V226.308H849.962V227.133ZM853.249 227.133H854.893V226.308H853.249V227.133ZM856.537 227.133H858.18V226.308H856.537V227.133ZM859.824 227.133H861.467V226.308H859.824V227.133ZM863.111 227.133H864.754V226.308H863.111V227.133ZM866.398 227.133H868.042V226.308H866.398V227.133ZM869.685 227.133H871.329V226.308H869.685V227.133ZM872.972 227.133H874.616V226.308H872.972V227.133ZM876.26 227.133H877.903V226.308H876.26V227.133ZM879.547 227.133H880.369V226.308H879.547V227.133ZM880.369 227.133C880.646 227.133 880.921 227.128 881.196 227.117L881.164 226.292C880.9 226.302 880.635 226.308 880.369 226.308V227.133ZM882.843 226.989C883.394 226.924 883.938 226.839 884.475 226.732L884.315 225.923C883.799 226.025 883.276 226.107 882.747 226.169L882.843 226.989ZM886.083 226.348C886.616 226.198 887.14 226.027 887.654 225.837L887.369 225.063C886.874 225.246 886.371 225.409 885.859 225.553L886.083 226.348ZM889.181 225.204C889.683 224.973 890.174 224.722 890.653 224.453L890.249 223.733C889.789 223.992 889.317 224.232 888.835 224.455L889.181 225.204ZM892.061 223.588C892.52 223.281 892.965 222.957 893.397 222.616L892.886 221.968C892.471 222.296 892.043 222.607 891.602 222.902L892.061 223.588ZM894.653 221.542C895.058 221.168 895.448 220.778 895.822 220.374L895.216 219.813C894.856 220.202 894.482 220.577 894.093 220.936L894.653 221.542ZM896.895 219.118C897.236 218.686 897.561 218.24 897.868 217.782L897.182 217.323C896.887 217.763 896.575 218.191 896.247 218.606L896.895 219.118ZM898.732 216.374C899.001 215.894 899.252 215.403 899.484 214.902L898.734 214.556C898.512 215.038 898.271 215.509 898.013 215.97L898.732 216.374ZM900.117 213.375C900.307 212.86 900.477 212.336 900.627 211.803L899.833 211.58C899.689 212.091 899.525 212.595 899.343 213.089L900.117 213.375ZM901.012 210.196C901.118 209.659 901.204 209.114 901.268 208.564L900.449 208.468C900.387 208.997 900.304 209.52 900.202 210.035L901.012 210.196ZM901.396 206.916C901.407 206.642 901.412 206.366 901.412 206.089H900.587C900.587 206.355 900.582 206.621 900.572 206.884L901.396 206.916ZM901.412 206.089V205.257H900.587V206.089H901.412ZM901.412 203.592V201.927H900.587V203.592H901.412ZM901.412 200.263V198.598H900.587V200.263H901.412ZM901.412 196.933V195.269H900.587V196.933H901.412ZM901.412 193.604V191.939H900.587V193.604H901.412ZM901.412 190.275V188.61H900.587V190.275H901.412ZM901.412 186.945V185.28H900.587V186.945H901.412ZM901.412 183.616V181.951H900.587V183.616H901.412ZM901.412 180.286V178.622H900.587V180.286H901.412ZM901.412 176.957V175.292H900.587V176.957H901.412ZM901.412 173.628V171.963H900.587V173.628H901.412ZM901.412 170.298V168.633H900.587V170.298H901.412ZM901.412 166.969V165.304H900.587V166.969H901.412ZM901.412 163.639V161.975H900.587V163.639H901.412ZM901.412 160.31V158.645H900.587V160.31H901.412ZM901.412 156.981V155.316H900.587V156.981H901.412ZM901.412 153.651V151.986H900.587V153.651H901.412ZM901.412 150.322V148.657H900.587V150.322H901.412ZM901.412 146.992V145.328H900.587V146.992H901.412ZM901.412 143.663V141.998H900.587V143.663H901.412ZM901.412 140.334V138.669H900.587V140.334H901.412ZM901.412 137.004V135.339H900.587V137.004H901.412ZM901.412 133.675V132.01H900.587V133.675H901.412ZM901.412 130.345V128.681H900.587V130.345H901.412ZM901.412 127.016V125.351H900.587V127.016H901.412ZM901.412 123.687V122.022H900.587V123.687H901.412ZM901.412 120.357V118.693H900.587V120.357H901.412ZM901.412 117.028V115.363H900.587V117.028H901.412ZM901.412 113.698V112.034H900.587V113.698H901.412ZM901.412 110.369V108.704H900.587V110.369H901.412ZM901.412 107.04V105.375H900.587V107.04H901.412ZM901.412 103.71V102.046H900.587V103.71H901.412ZM901.412 100.381V98.7161H900.587V100.381H901.412ZM901.412 97.0515V95.3868H900.587V97.0515H901.412ZM901.412 93.7221V92.0574H900.587V93.7221H901.412ZM901.412 90.3927V88.728H900.587V90.3927H901.412ZM901.412 87.0633V85.3986H900.587V87.0633H901.412ZM901.412 83.7339V82.0692H900.587V83.7339H901.412ZM901.412 80.4045V78.7398H900.587V80.4045H901.412ZM901.412 77.0751V75.4104H900.587V77.0751H901.412ZM901.412 73.7457V72.081H900.587V73.7457H901.412ZM901.412 70.4163V68.7516H900.587V70.4163H901.412ZM901.412 67.0869V65.4222H900.587V67.0869H901.412ZM901.412 63.7575V62.0928H900.587V63.7575H901.412ZM901.412 60.4281V58.7634H900.587V60.4281H901.412ZM901.412 57.0987V55.434H900.587V57.0987H901.412ZM901.412 53.7693V52.1045H900.587V53.7693H901.412ZM901.412 50.4398V48.7751H900.587V50.4398H901.412ZM901.412 47.1104V45.4457H900.587V47.1104H901.412ZM901.412 43.781V42.1163H900.587V43.781H901.412ZM901.412 40.4516V38.7869H900.587V40.4516H901.412ZM901.412 37.1222V35.4575H900.587V37.1222H901.412ZM901.412 33.7928V32.1281H900.587V33.7928H901.412ZM901.412 30.4634V29.6311H900.587V30.4634H901.412ZM901.412 29.6311C901.412 29.3541 901.407 29.0784 901.396 28.804L900.572 28.8358C900.582 29.0996 900.587 29.3647 900.587 29.6311H901.412ZM901.268 27.1566C901.204 26.6059 901.118 26.0616 901.012 25.5246L900.202 25.6847C900.304 26.2006 900.387 26.7235 900.449 27.2527L901.268 27.1566ZM900.627 23.9169C900.477 23.3842 900.307 22.8601 900.117 22.3455L899.343 22.6312C899.525 23.1255 899.689 23.6289 899.833 24.1405L900.627 23.9169ZM899.484 20.8185C899.252 20.3169 899.001 19.8259 898.732 19.3466L898.013 19.7505C898.271 20.211 898.512 20.6826 898.734 21.1644L899.484 20.8185ZM897.868 17.9386C897.561 17.4801 897.236 17.0344 896.895 16.6024L896.247 17.1138C896.575 17.5289 896.887 17.9572 897.182 18.3977L897.868 17.9386ZM895.822 15.3465C895.448 14.942 895.058 14.5522 894.653 14.1781L894.093 14.784C894.482 15.1435 894.856 15.5181 895.216 15.9068L895.822 15.3465ZM893.397 13.1045C892.965 12.7635 892.52 12.439 892.061 12.1321L891.602 12.8179C892.043 13.1128 892.471 13.4245 892.886 13.7522L893.397 13.1045ZM890.653 11.2674C890.174 10.9984 889.683 10.7477 889.181 10.516L888.835 11.2653C889.317 11.4878 889.789 11.7287 890.249 11.9871L890.653 11.2674ZM887.654 9.88283C887.14 9.69291 886.616 9.52252 886.083 9.37257L885.859 10.1669C886.371 10.311 886.874 10.4746 887.369 10.657L887.654 9.88283ZM884.475 8.98792C883.938 8.88168 883.394 8.79589 882.843 8.73136L882.747 9.551C883.276 9.613 883.799 9.69542 884.315 9.79747L884.475 8.98792ZM881.196 8.60334C880.921 8.59273 880.646 8.58738 880.369 8.58738V9.41262C880.635 9.41262 880.9 9.41777 881.164 9.42797L881.196 8.60334ZM880.369 8.58738H879.547V9.41262H880.369V8.58738ZM877.903 8.58738H876.259V9.41262H877.903V8.58738ZM874.616 8.58738H872.972V9.41262H874.616V8.58738ZM871.328 8.58738H869.685V9.41262H871.328V8.58738ZM868.041 8.58738H866.397V9.41262H868.041V8.58738ZM864.753 8.58738H863.11V9.41262H864.753V8.58738ZM861.466 8.58738H859.822V9.41262H861.466V8.58738ZM858.179 8.58738H856.535V9.41262H858.179V8.58738ZM854.891 8.58738H853.248V9.41262H854.891V8.58738ZM851.604 8.58738H849.96V9.41262H851.604V8.58738ZM848.316 8.58738H846.673V9.41262H848.316V8.58738ZM845.029 8.58738H843.385V9.41262H845.029V8.58738ZM841.742 8.58738H840.098V9.41262H841.742V8.58738ZM838.454 8.58738H836.811V9.41262H838.454V8.58738ZM835.167 8.58738H833.523V9.41262H835.167V8.58738ZM831.879 8.58738H830.236V9.41262H831.879V8.58738ZM828.592 8.58738H826.948V9.41262H828.592V8.58738ZM825.305 8.58738H823.661V9.41262H825.305V8.58738ZM822.017 8.58738H820.374V9.41262H822.017V8.58738ZM818.73 8.58738H817.086V9.41262H818.73V8.58738ZM815.443 8.58738H813.799V9.41262H815.443V8.58738ZM812.155 8.58738H810.511V9.41262H812.155V8.58738ZM808.868 8.58738H807.224V9.41262H808.868V8.58738ZM805.58 8.58738H803.937V9.41262H805.58V8.58738ZM802.293 8.58738H800.649V9.41262H802.293V8.58738ZM799.005 8.58738H797.362V9.41262H799.005V8.58738ZM795.718 8.58738H794.074V9.41262H795.718V8.58738ZM792.431 8.58738H790.787V9.41262H792.431V8.58738ZM789.143 8.58738H787.5V9.41262H789.143V8.58738ZM785.856 8.58738H784.212V9.41262H785.856V8.58738ZM782.568 8.58738H780.925V9.41262H782.568V8.58738ZM779.281 8.58738H777.637V9.41262H779.281V8.58738ZM775.994 8.58738H774.35V9.41262H775.994V8.58738ZM772.706 8.58738H771.063V9.41262H772.706V8.58738ZM769.419 8.58738H767.775V9.41262H769.419V8.58738ZM766.132 8.58738H764.488V9.41262H766.132V8.58738ZM762.844 8.58738H761.2V9.41262H762.844V8.58738ZM759.557 8.58738H757.913V9.41262H759.557V8.58738ZM756.269 8.58738H754.626V9.41262H756.269V8.58738ZM752.982 8.58738H751.338V9.41262H752.982V8.58738ZM749.694 8.58738H748.051V9.41262H749.694V8.58738ZM746.407 8.58738H744.763V9.41262H746.407V8.58738ZM743.12 8.58738H741.476V9.41262H743.12V8.58738ZM739.832 8.58738H738.189V9.41262H739.832V8.58738ZM736.545 8.58738H734.901V9.41262H736.545V8.58738ZM733.257 8.58738H731.614V9.41262H733.257V8.58738ZM729.97 8.58738H728.326V9.41262H729.97V8.58738ZM726.683 8.58738H725.039V9.41262H726.683V8.58738ZM723.395 8.58738H721.751V9.41262H723.395V8.58738ZM720.108 8.58738H718.464V9.41262H720.108V8.58738ZM716.82 8.58738H715.177V9.41262H716.82V8.58738ZM713.533 8.58738H711.889V9.41262H713.533V8.58738ZM710.245 8.58738H708.602V9.41262H710.245V8.58738ZM706.958 8.58738H705.314V9.41262H706.958V8.58738ZM703.671 8.58738H702.027V9.41262H703.671V8.58738ZM700.383 8.58738H698.74V9.41262H700.383V8.58738ZM697.096 8.58738H695.452V9.41262H697.096V8.58738ZM693.808 8.58738H692.165V9.41262H693.808V8.58738ZM690.521 8.58738H688.877V9.41262H690.521V8.58738ZM687.234 8.58738H685.59V9.41262H687.234V8.58738ZM683.946 8.58738H682.302V9.41262H683.946V8.58738ZM680.659 8.58738H679.015V9.41262H680.659V8.58738ZM677.371 8.58738H675.728V9.41262H677.371V8.58738ZM674.084 8.58738H672.44V9.41262H674.084V8.58738ZM670.797 8.58738H669.153V9.41262H670.797V8.58738ZM667.509 8.58738H665.865V9.41262H667.509V8.58738ZM664.222 8.58738H662.578V9.41262H664.222V8.58738ZM660.934 8.58738H659.291V9.41262H660.934V8.58738ZM657.647 8.58738H656.003V9.41262H657.647V8.58738ZM654.359 8.58738H652.716V9.41262H654.359V8.58738ZM651.072 8.58738H649.428V9.41262H651.072V8.58738ZM647.785 8.58738H646.141V9.41262H647.785V8.58738ZM644.497 8.58738H642.854V9.41262H644.497V8.58738ZM641.21 8.58738H639.566V9.41262H641.21V8.58738ZM637.922 8.58738H636.279V9.41262H637.922V8.58738ZM634.635 8.58738H632.991V9.41262H634.635V8.58738ZM631.348 8.58738H629.704V9.41262H631.348V8.58738ZM628.06 8.58738H626.416V9.41262H628.06V8.58738ZM624.773 8.58738H623.129V9.41262H624.773V8.58738ZM621.485 8.58738H619.842V9.41262H621.485V8.58738ZM618.198 8.58738H616.554V9.41262H618.198V8.58738ZM614.911 8.58738H613.267V9.41262H614.911V8.58738ZM611.623 8.58738H609.979V9.41262H611.623V8.58738ZM608.336 8.58738H606.692V9.41262H608.336V8.58738ZM605.048 8.58738H603.405V9.41262H605.048V8.58738ZM601.761 8.58738H600.117V9.41262H601.761V8.58738ZM598.473 8.58738H596.83V9.41262H598.473V8.58738ZM595.186 8.58738H593.542V9.41262H595.186V8.58738ZM591.899 8.58738H591.077V9.41262H591.899V8.58738ZM590.665 8.97658C590.65 9.24229 590.631 9.50705 590.609 9.77079L591.431 9.84063C591.454 9.56923 591.474 9.29682 591.489 9.02342L590.665 8.97658ZM590.43 11.3492C590.356 11.8757 590.267 12.3977 590.164 12.9148L590.973 13.0763C591.079 12.5441 591.171 12.0068 591.248 11.4649L590.43 11.3492ZM589.809 14.4628C589.676 14.9772 589.529 15.4861 589.368 15.9891L590.154 16.2405C590.319 15.7228 590.471 15.1991 590.608 14.6697L589.809 14.4628ZM588.841 17.4882C588.651 17.9839 588.448 18.4731 588.231 18.9554L588.984 19.2933C589.207 18.7969 589.416 18.2935 589.612 17.7835L588.841 17.4882ZM587.541 20.3863C587.297 20.8573 587.041 21.3209 586.772 21.7767L587.483 22.1959C587.759 21.727 588.023 21.2501 588.274 20.7656L587.541 20.3863ZM585.927 23.1227C585.633 23.5637 585.327 23.9964 585.01 24.4205L585.67 24.9151C585.997 24.479 586.311 24.034 586.614 23.5804L585.927 23.1227ZM584.023 25.6665C583.683 26.0726 583.332 26.4697 582.97 26.8572L583.573 27.4204C583.945 27.022 584.306 26.6138 584.656 26.1962L584.023 25.6665ZM581.854 27.9894C581.472 28.3564 581.08 28.7135 580.679 29.0602L581.218 29.6848C581.631 29.3285 582.034 28.9615 582.426 28.5842L581.854 27.9894ZM579.448 30.0666C579.029 30.3906 578.602 30.7038 578.165 31.0059L578.635 31.6845C579.083 31.3741 579.523 31.0522 579.953 30.7192L579.448 30.0666ZM576.834 31.8754C576.384 32.1529 575.925 32.4189 575.459 32.673L575.854 33.3976C576.333 33.1365 576.804 32.8632 577.267 32.578L576.834 31.8754ZM574.043 33.3965C573.566 33.6245 573.082 33.8404 572.591 34.0439L572.907 34.8062C573.411 34.5972 573.909 34.3753 574.399 34.141L574.043 33.3965ZM571.106 34.6134C570.608 34.7895 570.104 34.9531 569.593 35.1036L569.827 35.8951C570.351 35.7405 570.869 35.5724 571.381 35.3915L571.106 34.6134ZM568.057 35.5131C567.544 35.6355 567.025 35.7449 566.501 35.841L566.65 36.6527C567.188 36.554 567.721 36.4416 568.248 36.3158L568.057 35.5131ZM564.931 36.0869C564.408 36.1548 563.88 36.2095 563.349 36.2506L563.413 37.0734C563.958 37.0312 564.5 36.9751 565.037 36.9053L564.931 36.0869ZM561.761 36.3323C561.496 36.3391 561.23 36.3425 560.963 36.3425V37.1677C561.237 37.1677 561.51 37.1642 561.782 37.1573L561.761 36.3323ZM560.963 36.3425C560.697 36.3425 560.431 36.3391 560.166 36.3323L560.145 37.1573C560.417 37.1642 560.69 37.1677 560.963 37.1677V36.3425ZM558.578 36.2506C558.046 36.2095 557.519 36.1548 556.996 36.0869L556.89 36.9053C557.427 36.9751 557.968 37.0312 558.514 37.0734L558.578 36.2506ZM555.425 35.841C554.902 35.7449 554.383 35.6355 553.87 35.5131L553.678 36.3158C554.206 36.4416 554.738 36.554 555.276 36.6527L555.425 35.841ZM552.333 35.1036C551.823 34.9531 551.318 34.7895 550.82 34.6134L550.545 35.3915C551.057 35.5724 551.575 35.7405 552.1 35.8951L552.333 35.1036ZM549.335 34.0439C548.844 33.8404 548.36 33.6245 547.883 33.3965L547.527 34.141C548.017 34.3753 548.515 34.5972 549.02 34.8063L549.335 34.0439ZM546.467 32.673C546.001 32.4189 545.542 32.1529 545.092 31.8754L544.659 32.578C545.122 32.8632 545.593 33.1365 546.072 33.3976L546.467 32.673ZM543.761 31.0059C543.325 30.7038 542.897 30.3906 542.478 30.0666L541.973 30.7192C542.404 31.0522 542.843 31.3741 543.292 31.6845L543.761 31.0059ZM541.248 29.0602C540.846 28.7135 540.454 28.3564 540.072 27.9894L539.5 28.5842C539.893 28.9615 540.296 29.3285 540.708 29.6848L541.248 29.0602ZM538.957 26.8572C538.595 26.4697 538.244 26.0726 537.904 25.6665L537.271 26.1962C537.621 26.6139 537.982 27.022 538.354 27.4204L538.957 26.8572ZM536.917 24.4205C536.599 23.9964 536.293 23.5637 535.999 23.1227L535.313 23.5804C535.615 24.034 535.93 24.479 536.256 24.9151L536.917 24.4205ZM535.155 21.7767C534.886 21.3209 534.629 20.8573 534.386 20.3863L533.653 20.7656C533.904 21.2501 534.167 21.7271 534.444 22.196L535.155 21.7767ZM533.695 18.9554C533.479 18.4731 533.275 17.9839 533.085 17.4882L532.315 17.7835C532.51 18.2935 532.719 18.797 532.942 19.2933L533.695 18.9554ZM532.559 15.9891C532.398 15.4861 532.251 14.9772 532.117 14.4628L531.319 14.6697C531.456 15.1991 531.607 15.7228 531.773 16.2405L532.559 15.9891ZM531.763 12.9148C531.66 12.3977 531.571 11.8757 531.496 11.3492L530.679 11.4649C530.756 12.0068 530.847 12.5441 530.954 13.0763L531.763 12.9148ZM531.317 9.77079C531.295 9.50705 531.276 9.24229 531.261 8.97658L530.437 9.02342C530.453 9.29681 530.472 9.56923 530.495 9.84062L531.317 9.77079ZM530.849 9L531.673 8.95315L531.629 8.17476H530.849V9ZM591.077 9V8.17476H590.298L590.253 8.95315L591.077 9ZM591.1 226.72L590.275 226.754L590.308 227.546H591.1V226.72ZM530.827 226.72V227.546H531.619L531.651 226.754L530.827 226.72ZM530.849 8.17476H530.024V9.82524H530.849V8.17476ZM528.375 8.17476H526.726V9.82524H528.375V8.17476ZM525.076 8.17476H523.427V9.82524H525.076V8.17476ZM521.778 8.17476H520.128V9.82524H521.778V8.17476ZM518.479 8.17476H516.829V9.82524H518.479V8.17476ZM515.18 8.17476H513.531V9.82524H515.18V8.17476ZM511.881 8.17476H510.232V9.82524H511.881V8.17476ZM508.583 8.17476H506.933V9.82524H508.583V8.17476ZM505.284 8.17476H503.634V9.82524H505.284V8.17476ZM501.985 8.17476H500.336V9.82524H501.985V8.17476ZM498.686 8.17476H497.037V9.82524H498.686V8.17476ZM495.387 8.17476H493.738V9.82524H495.387V8.17476ZM492.089 8.17476H490.439V9.82524H492.089V8.17476ZM488.79 8.17476H487.141V9.82524H488.79V8.17476ZM485.491 8.17476H483.842V9.82524H485.491V8.17476ZM482.192 8.17476H480.543V9.82524H482.192V8.17476ZM478.894 8.17476H477.244V9.82524H478.894V8.17476ZM475.595 8.17476H473.945V9.82524H475.595V8.17476ZM472.296 8.17476H470.647V9.82524H472.296V8.17476ZM468.997 8.17476H467.348V9.82524H468.997V8.17476ZM465.699 8.17476H464.049V9.82524H465.699V8.17476ZM462.4 8.17476H460.75V9.82524H462.4V8.17476ZM459.101 8.17476H457.452V9.82524H459.101V8.17476ZM455.802 8.17476H454.153V9.82524H455.802V8.17476ZM452.503 8.17476H450.854V9.82524H452.503V8.17476ZM449.205 8.17476H447.555V9.82524H449.205V8.17476ZM445.906 8.17476H444.257V9.82524H445.906V8.17476ZM442.607 8.17476H440.958V9.82524H442.607V8.17476ZM439.308 8.17476H437.659V9.82524H439.308V8.17476ZM436.01 8.17476H434.36V9.82524H436.01V8.17476ZM432.711 8.17476H431.061V9.82524H432.711V8.17476ZM429.412 8.17476H427.763V9.82524H429.412V8.17476ZM426.113 8.17476H424.464V9.82524H426.113V8.17476ZM422.815 8.17476H421.165V9.82524H422.815V8.17476ZM419.516 8.17476H417.866V9.82524H419.516V8.17476ZM416.217 8.17476H414.568V9.82524H416.217V8.17476ZM412.918 8.17476H411.269V9.82524H412.918V8.17476ZM409.62 8.17476H407.97V9.82524H409.62V8.17476ZM406.321 8.17476H404.671V9.82524H406.321V8.17476ZM403.022 8.17476H401.373V9.82524H403.022V8.17476ZM399.723 8.17476H398.074V9.82524H399.723V8.17476ZM396.424 8.17476H394.775V9.82524H396.424V8.17476ZM393.126 8.17476H391.476V9.82524H393.126V8.17476ZM389.827 8.17476H388.178V9.82524H389.827V8.17476ZM386.528 8.17476H384.879V9.82524H386.528V8.17476ZM383.229 8.17476H381.58V9.82524H383.229V8.17476ZM379.931 8.17476H378.281V9.82524H379.931V8.17476ZM376.632 8.17476H374.982V9.82524H376.632V8.17476ZM373.333 8.17476H371.684V9.82524H373.333V8.17476ZM370.034 8.17476H368.385V9.82524H370.034V8.17476ZM366.736 8.17476H365.086V9.82524H366.736V8.17476ZM363.437 8.17476H361.787V9.82524H363.437V8.17476ZM360.138 8.17476H358.489V9.82524H360.138V8.17476ZM356.839 8.17476H355.19V9.82524H356.839V8.17476ZM353.54 8.17476H351.891V9.82524H353.54V8.17476ZM350.242 8.17476H348.592V9.82524H350.242V8.17476ZM346.943 8.17476H345.294V9.82524H346.943V8.17476ZM343.644 8.17476H341.995V9.82524H343.644V8.17476ZM340.345 8.17476H338.696V9.82524H340.345V8.17476ZM337.047 8.17476H335.397V9.82524H337.047V8.17476ZM333.748 8.17476H332.098V9.82524H333.748V8.17476ZM330.449 8.17476H328.8V9.82524H330.449V8.17476ZM327.15 8.17476H325.501V9.82524H327.15V8.17476ZM323.852 8.17476H322.202V9.82524H323.852V8.17476ZM320.553 8.17476H318.903V9.82524H320.553V8.17476ZM317.254 8.17476H315.605V9.82524H317.254V8.17476ZM313.955 8.17476H312.306V9.82524H313.955V8.17476ZM310.656 8.17476H309.007V9.82524H310.656V8.17476ZM307.358 8.17476H305.708V9.82524H307.358V8.17476ZM304.059 8.17476H302.41V9.82524H304.059V8.17476ZM300.76 8.17476H299.111V9.82524H300.76V8.17476ZM297.461 8.17476H295.812V9.82524H297.461V8.17476ZM294.163 8.17476H292.513V9.82524H294.163V8.17476ZM290.864 8.17476H289.215V9.82524H290.864V8.17476ZM287.565 8.17476H285.916V9.82524H287.565V8.17476ZM284.266 8.17476H282.617V9.82524H284.266V8.17476ZM280.968 8.17476H279.318V9.82524H280.968V8.17476ZM277.669 8.17476H276.019V9.82524H277.669V8.17476ZM274.37 8.17476H272.721V9.82524H274.37V8.17476ZM271.071 8.17476H269.422V9.82524H271.071V8.17476ZM267.773 8.17476H266.123V9.82524H267.773V8.17476ZM264.474 8.17476H262.824V9.82524H264.474V8.17476ZM261.175 8.17476H259.526V9.82524H261.175V8.17476ZM257.876 8.17476H256.227V9.82524H257.876V8.17476ZM254.577 8.17476H252.928V9.82524H254.577V8.17476ZM251.279 8.17476H249.629V9.82524H251.279V8.17476ZM247.98 8.17476H246.331V9.82524H247.98V8.17476ZM244.681 8.17476H243.032V9.82524H244.681V8.17476ZM241.382 8.17476H239.733V9.82524H241.382V8.17476ZM238.084 8.17476H236.434V9.82524H238.084V8.17476ZM234.785 8.17476H233.135V9.82524H234.785V8.17476ZM231.486 8.17476H229.837V9.82524H231.486V8.17476ZM228.187 8.17476H226.538V9.82524H228.187V8.17476ZM224.889 8.17476H223.239V9.82524H224.889V8.17476ZM221.59 8.17476H219.94V9.82524H221.59V8.17476ZM218.291 8.17476H216.642V9.82524H218.291V8.17476ZM214.992 8.17476H213.343V9.82524H214.992V8.17476ZM211.693 8.17476H210.044V9.82524H211.693V8.17476ZM208.395 8.17476H206.745V9.82524H208.395V8.17476ZM205.096 8.17476H203.447V9.82524H205.096V8.17476ZM201.797 8.17476H200.148V9.82524H201.797V8.17476ZM198.498 8.17476H196.849V9.82524H198.498V8.17476ZM195.2 8.17476H193.55V9.82524H195.2V8.17476ZM191.901 8.17476H190.252V9.82524H191.901V8.17476ZM188.602 8.17476H186.953V9.82524H188.602V8.17476ZM185.303 8.17476H183.654V9.82524H185.303V8.17476ZM182.005 8.17476H180.355V9.82524H182.005V8.17476ZM178.706 8.17476H177.056V9.82524H178.706V8.17476ZM175.407 8.17476H173.758V9.82524H175.407V8.17476ZM172.108 8.17476H170.459V9.82524H172.108V8.17476ZM168.81 8.17476H167.16V9.82524H168.81V8.17476ZM165.511 8.17476H163.861V9.82524H165.511V8.17476ZM162.212 8.17476H160.563V9.82524H162.212V8.17476ZM158.913 8.17476H157.264V9.82524H158.913V8.17476ZM155.614 8.17476H153.965V9.82524H155.614V8.17476ZM152.316 8.17476H150.666V9.82524H152.316V8.17476ZM149.017 8.17476H147.368V9.82524H149.017V8.17476ZM145.718 8.17476H144.069V9.82524H145.718V8.17476ZM142.419 8.17476H140.77V9.82524H142.419V8.17476ZM139.121 8.17476H137.471V9.82524H139.121V8.17476ZM135.822 8.17476H134.172V9.82524H135.822V8.17476ZM132.523 8.17476H130.874V9.82524H132.523V8.17476ZM129.224 8.17476H127.575V9.82524H129.224V8.17476ZM125.926 8.17476H124.276V9.82524H125.926V8.17476ZM122.627 8.17476H120.977V9.82524H122.627V8.17476ZM119.328 8.17476H117.679V9.82524H119.328V8.17476ZM116.029 8.17476H114.38V9.82524H116.029V8.17476ZM112.73 8.17476H111.081V9.82524H112.73V8.17476ZM109.432 8.17476H107.782V9.82524H109.432V8.17476ZM106.133 8.17476H104.484V9.82524H106.133V8.17476ZM102.834 8.17476H101.185V9.82524H102.834V8.17476ZM99.5354 8.17476H97.886V9.82524H99.5354V8.17476ZM96.2366 8.17476H94.5872V9.82524H96.2366V8.17476ZM92.9379 8.17476H91.2885V9.82524H92.9379V8.17476ZM89.6391 8.17476H87.9897V9.82524H89.6391V8.17476ZM86.3403 8.17476H84.6909V9.82524H86.3403V8.17476ZM83.0416 8.17476H81.3922V9.82524H83.0416V8.17476ZM79.7428 8.17476H78.0934V9.82524H79.7428V8.17476ZM76.444 8.17476H74.7947V9.82524H76.444V8.17476ZM73.1452 8.17476H71.4959V9.82524H73.1452V8.17476ZM69.8465 8.17476H68.1971V9.82524H69.8465V8.17476ZM66.5477 8.17476H64.8983V9.82524H66.5477V8.17476ZM63.249 8.17476H61.5996V9.82524H63.249V8.17476ZM59.9502 8.17476H58.3008V9.82524H59.9502V8.17476ZM56.6514 8.17476H55.002V9.82524H56.6514V8.17476ZM53.3527 8.17476H51.7033V9.82524H53.3527V8.17476ZM50.0539 8.17476H48.4045V9.82524H50.0539V8.17476ZM46.7551 8.17476H45.1058V9.82524H46.7551V8.17476ZM43.4563 8.17476H41.807V9.82524H43.4563V8.17476ZM40.1576 8.17476H38.5082V9.82524H40.1576V8.17476ZM36.8588 8.17476H35.2094V9.82524H36.8588V8.17476ZM33.5601 8.17476H31.9107V9.82524H33.5601V8.17476ZM30.2613 8.17476H29.4367V9.82524H30.2613V8.17476ZM29.4367 8.17476C29.1545 8.17476 28.8734 8.18021 28.5937 8.19103L28.6574 9.84028C28.9159 9.83029 29.1757 9.82524 29.4367 9.82524V8.17476ZM26.9143 8.32154C26.3527 8.38733 25.7978 8.47481 25.2502 8.58314L25.5705 10.2022C26.0757 10.1023 26.5879 10.0216 27.1063 9.96082L26.9143 8.32154ZM23.6107 8.97539C23.0675 9.1283 22.5331 9.30206 22.0083 9.49573L22.5797 11.0441C23.0638 10.8655 23.5569 10.7052 24.058 10.5641L23.6107 8.97539ZM20.4511 10.1414C19.9397 10.3776 19.4391 10.6333 18.9504 10.9076L19.7581 12.3469C20.2092 12.0938 20.6711 11.8578 21.1431 11.6399L20.4511 10.1414ZM17.5147 11.7892C17.0473 12.1022 16.5929 12.433 16.1524 12.7806L17.1751 14.0761C17.5818 13.7551 18.0014 13.4496 18.4329 13.1607L17.5147 11.7892ZM14.872 13.8752C14.4596 14.2566 14.0623 14.654 13.6809 15.0664L14.8926 16.187C15.2448 15.8062 15.6118 15.4392 15.9927 15.0869L14.872 13.8752ZM12.5863 16.3468C12.2386 16.7872 11.9078 17.2416 11.5949 17.709L12.9664 18.6272C13.2553 18.1957 13.5607 17.7761 13.8818 17.3694L12.5863 16.3468ZM10.7133 19.1447C10.439 19.6334 10.1833 20.134 9.9471 20.6455L11.4455 21.3374C11.6635 20.8655 11.8994 20.4035 12.1526 19.9525L10.7133 19.1447ZM9.3014 22.2026C9.10772 22.7274 8.93397 23.2619 8.78106 23.8051L10.3698 24.2523C10.5108 23.7512 10.6711 23.2582 10.8498 22.7741L9.3014 22.2026ZM8.3888 25.4445C8.28048 25.9921 8.193 26.5471 8.12721 27.1086L9.76648 27.3007C9.82722 26.7823 9.90796 26.2701 10.0079 25.7648L8.3888 25.4445ZM7.99669 28.788C7.98588 29.0677 7.98042 29.3488 7.98042 29.6311H9.63091C9.63091 29.3701 9.63595 29.1103 9.64595 28.8518L7.99669 28.788ZM7.98042 29.6311V30.4634H9.63091V29.6311H7.98042ZM7.98042 32.1281V33.7928H9.63091V32.1281H7.98042ZM7.98042 35.4575V37.1222H9.63091V35.4575H7.98042ZM7.98042 38.7869V40.4516H9.63091V38.7869H7.98042ZM7.98042 42.1163V43.781H9.63091V42.1163H7.98042ZM7.98042 45.4457V47.1104H9.63091V45.4457H7.98042ZM7.98042 48.7751V50.4398H9.63091V48.7751H7.98042ZM7.98042 52.1045V53.7692H9.63091V52.1045H7.98042ZM7.98042 55.4339V57.0986H9.63091V55.4339H7.98042ZM7.98042 58.7633V60.428H9.63091V58.7633H7.98042ZM7.98042 62.0927V63.7574H9.63091V62.0927H7.98042ZM7.98042 65.4221V67.0868H9.63091V65.4221H7.98042ZM7.98042 68.7515V70.4162H9.63091V68.7515H7.98042ZM7.98042 72.0809V73.7456H9.63091V72.0809H7.98042ZM7.98042 75.4103V77.075H9.63091V75.4103H7.98042ZM7.98042 78.7397V80.4044H9.63091V78.7397H7.98042ZM7.98042 82.0691V83.7338H9.63091V82.0691H7.98042ZM7.98042 85.3985V87.0632H9.63091V85.3985H7.98042ZM7.98042 88.7279V90.3926H9.63091V88.7279H7.98042ZM7.98042 92.0573V93.722H9.63091V92.0573H7.98042ZM7.98042 95.3867V97.0514H9.63091V95.3867H7.98042ZM7.98042 98.7161V100.381H9.63091V98.7161H7.98042ZM7.98042 102.045V103.71H9.63091V102.045H7.98042ZM7.98042 105.375V107.04H9.63091V105.375H7.98042ZM7.98042 108.704V110.369H9.63091V108.704H7.98042ZM7.98042 112.034V113.698H9.63091V112.034H7.98042ZM7.98042 115.363V117.028H9.63091V115.363H7.98042ZM7.98042 118.692V120.357H9.63091V118.692H7.98042ZM7.98042 122.022V123.687H9.63091V122.022H7.98042ZM7.98042 125.351V127.016H9.63091V125.351H7.98042ZM7.98042 128.681V130.345H9.63091V128.681H7.98042ZM7.98042 132.01V133.675H9.63091V132.01H7.98042ZM7.98042 135.339V137.004H9.63091V135.339H7.98042ZM7.98042 138.669V140.333H9.63091V138.669H7.98042ZM7.98042 141.998V143.663H9.63091V141.998H7.98042ZM7.98042 145.328V146.992H9.63091V145.328H7.98042ZM7.98042 148.657V150.322H9.63091V148.657H7.98042ZM7.98042 151.986V153.651H9.63091V151.986H7.98042ZM7.98042 155.316V156.98H9.63091V155.316H7.98042ZM7.98042 158.645V160.31H9.63091V158.645H7.98042ZM7.98042 161.975V163.639H9.63091V161.975H7.98042ZM7.98042 165.304V166.969H9.63091V165.304H7.98042ZM7.98042 168.633V170.298H9.63091V168.633H7.98042ZM7.98042 171.963V173.627H9.63091V171.963H7.98042ZM7.98042 175.292V176.957H9.63091V175.292H7.98042ZM7.98042 178.622V180.286H9.63091V178.622H7.98042ZM7.98042 181.951V183.616H9.63091V181.951H7.98042ZM7.98042 185.28V186.945H9.63091V185.28H7.98042ZM7.98042 188.61V190.275H9.63091V188.61H7.98042ZM7.98042 191.939V193.604H9.63091V191.939H7.98042ZM7.98042 195.269V196.933H9.63091V195.269H7.98042ZM7.98042 198.598V200.263H9.63091V198.598H7.98042ZM7.98042 201.927V203.592H9.63091V201.927H7.98042ZM7.98042 205.257V206.089H9.63091V205.257H7.98042ZM7.98042 206.089C7.98042 206.371 7.98588 206.653 7.99669 206.932L9.64594 206.868C9.63595 206.61 9.63091 206.35 9.63091 206.089H7.98042ZM8.12721 208.612C8.19299 209.173 8.28048 209.728 8.3888 210.276L10.0079 209.955C9.90796 209.45 9.82722 208.938 9.76648 208.42L8.12721 208.612ZM8.78105 211.915C8.93397 212.458 9.10772 212.993 9.3014 213.518L10.8498 212.946C10.6711 212.462 10.5108 211.969 10.3698 211.468L8.78105 211.915ZM9.9471 215.075C10.1833 215.586 10.439 216.087 10.7133 216.576L12.1526 215.768C11.8994 215.317 11.6635 214.855 11.4455 214.383L9.9471 215.075ZM11.5949 218.011C11.9078 218.479 12.2386 218.933 12.5863 219.373L13.8818 218.351C13.5607 217.944 13.2553 217.525 12.9664 217.093L11.5949 218.011ZM13.6809 220.654C14.0623 221.066 14.4596 221.464 14.872 221.845L15.9927 220.633C15.6118 220.281 15.2448 219.914 14.8926 219.533L13.6809 220.654ZM16.1524 222.94C16.5929 223.287 17.0473 223.618 17.5147 223.931L18.4329 222.56C18.0014 222.271 17.5818 221.965 17.1751 221.644L16.1524 222.94ZM18.9504 224.813C19.4391 225.087 19.9397 225.343 20.4511 225.579L21.1431 224.08C20.6712 223.862 20.2092 223.626 19.7582 223.373L18.9504 224.813ZM22.0083 226.225C22.5331 226.418 23.0675 226.592 23.6107 226.745L24.058 225.156C23.5569 225.015 23.0639 224.855 22.5797 224.676L22.0083 226.225ZM25.2502 227.137C25.7978 227.245 26.3528 227.333 26.9143 227.399L27.1064 225.759C26.5879 225.699 26.0757 225.618 25.5705 225.518L25.2502 227.137ZM28.5937 227.529C28.8734 227.54 29.1545 227.546 29.4367 227.546V225.895C29.1757 225.895 28.9159 225.89 28.6575 225.88L28.5937 227.529ZM29.4367 227.546H30.2614V225.895H29.4367V227.546ZM31.9107 227.546H33.56V225.895H31.9107V227.546ZM35.2093 227.546H36.8586V225.895H35.2093V227.546ZM38.5079 227.546H40.1573V225.895H38.5079V227.546ZM41.8066 227.546H43.4559V225.895H41.8066V227.546ZM45.1052 227.546H46.7545V225.895H45.1052V227.546ZM48.4038 227.546H50.0531V225.895H48.4038V227.546ZM51.7024 227.546H53.3517V225.895H51.7024V227.546ZM55.001 227.546H56.6503V225.895H55.001V227.546ZM58.2997 227.546H59.949V225.895H58.2997V227.546ZM61.5983 227.546H63.2476V225.895H61.5983V227.546ZM64.8969 227.546H66.5462V225.895H64.8969V227.546ZM68.1955 227.546H69.8448V225.895H68.1955V227.546ZM71.4941 227.546H73.1434V225.895H71.4941V227.546ZM74.7927 227.546H76.442V225.895H74.7927V227.546ZM78.0913 227.546H79.7407V225.895H78.0913V227.546ZM81.39 227.546H83.0393V225.895H81.39V227.546ZM84.6886 227.546H86.3379V225.895H84.6886V227.546ZM87.9872 227.546H89.6365V225.895H87.9872V227.546ZM91.2858 227.546H92.9351V225.895H91.2858V227.546ZM94.5844 227.546H96.2337V225.895H94.5844V227.546ZM97.883 227.546H99.5323V225.895H97.883V227.546ZM101.182 227.546H102.831V225.895H101.182V227.546ZM104.48 227.546H106.13V225.895H104.48V227.546ZM107.779 227.546H109.428V225.895H107.779V227.546ZM111.077 227.546H112.727V225.895H111.077V227.546ZM114.376 227.546H116.025V225.895H114.376V227.546ZM117.675 227.546H119.324V225.895H117.675V227.546ZM120.973 227.546H122.623V225.895H120.973V227.546ZM124.272 227.546H125.921V225.895H124.272V227.546ZM127.571 227.546H129.22V225.895H127.571V227.546ZM130.869 227.546H132.518V225.895H130.869V227.546ZM134.168 227.546H135.817V225.895H134.168V227.546ZM137.466 227.546H139.116V225.895H137.466V227.546ZM140.765 227.546H142.414V225.895H140.765V227.546ZM144.064 227.546H145.713V225.895H144.064V227.546ZM147.362 227.546H149.012V225.895H147.362V227.546ZM150.661 227.546H152.31V225.895H150.661V227.546ZM153.959 227.546H155.609V225.895H153.959V227.546ZM157.258 227.546H158.907V225.895H157.258V227.546ZM160.557 227.546H162.206V225.895H160.557V227.546ZM163.855 227.546H165.505V225.895H163.855V227.546ZM167.154 227.546H168.803V225.895H167.154V227.546ZM170.453 227.546H172.102V225.895H170.453V227.546ZM173.751 227.546H175.4V225.895H173.751V227.546ZM177.05 227.546H178.699V225.895H177.05V227.546ZM180.348 227.546H181.998V225.895H180.348V227.546ZM183.647 227.546H185.296V225.895H183.647V227.546ZM186.946 227.546H188.595V225.895H186.946V227.546ZM190.244 227.546H191.894V225.895H190.244V227.546ZM193.543 227.546H195.192V225.895H193.543V227.546ZM196.841 227.546H198.491V225.895H196.841V227.546ZM200.14 227.546H201.789V225.895H200.14V227.546ZM203.439 227.546H205.088V225.895H203.439V227.546ZM206.737 227.546H208.387V225.895H206.737V227.546ZM210.036 227.546H211.685V225.895H210.036V227.546ZM213.335 227.546H214.984V225.895H213.335V227.546ZM216.633 227.546H218.282V225.895H216.633V227.546ZM219.932 227.546H221.581V225.895H219.932V227.546ZM223.23 227.546H224.88V225.895H223.23V227.546ZM226.529 227.546H228.178V225.895H226.529V227.546ZM229.828 227.546H231.477V225.895H229.828V227.546ZM233.126 227.546H234.776V225.895H233.126V227.546ZM236.425 227.546H238.074V225.895H236.425V227.546ZM239.723 227.546H241.373V225.895H239.723V227.546ZM243.022 227.546H244.671V225.895H243.022V227.546ZM246.321 227.546H247.97V225.895H246.321V227.546ZM249.619 227.546H251.269V225.895H249.619V227.546ZM252.918 227.546H254.567V225.895H252.918V227.546ZM256.217 227.546H257.866V225.895H256.217V227.546ZM259.515 227.546H261.164V225.895H259.515V227.546ZM262.814 227.546H264.463V225.895H262.814V227.546ZM266.112 227.546H267.762V225.895H266.112V227.546ZM269.411 227.546H271.06V225.895H269.411V227.546ZM272.71 227.546H274.359V225.895H272.71V227.546ZM276.008 227.546H277.658V225.895H276.008V227.546ZM279.307 227.546H280.956V225.895H279.307V227.546ZM282.605 227.546H284.255V225.895H282.605V227.546ZM285.904 227.546H287.553V225.895H285.904V227.546ZM289.203 227.546H290.852V225.895H289.203V227.546ZM292.501 227.546H294.151V225.895H292.501V227.546ZM295.8 227.546H297.449V225.895H295.8V227.546ZM299.099 227.546H300.748V225.895H299.099V227.546ZM302.397 227.546H304.047V225.895H302.397V227.546ZM305.696 227.546H307.345V225.895H305.696V227.546ZM308.995 227.546H310.644V225.895H308.995V227.546ZM312.293 227.546H313.943V225.895H312.293V227.546ZM315.592 227.546H317.241V225.895H315.592V227.546ZM318.891 227.546H320.54V225.895H318.891V227.546ZM322.189 227.546H323.838V225.895H322.189V227.546ZM325.488 227.546H327.137V225.895H325.488V227.546ZM328.786 227.546H330.436V225.895H328.786V227.546ZM332.085 227.546H333.734V225.895H332.085V227.546ZM335.384 227.546H337.033V225.895H335.384V227.546ZM338.682 227.546H340.332V225.895H338.682V227.546ZM341.981 227.546H343.63V225.895H341.981V227.546ZM345.28 227.546H346.929V225.895H345.28V227.546ZM348.578 227.546H350.228V225.895H348.578V227.546ZM351.877 227.546H353.526V225.895H351.877V227.546ZM355.176 227.546H356.825V225.895H355.176V227.546ZM358.474 227.546H360.124V225.895H358.474V227.546ZM361.773 227.546H363.422V225.895H361.773V227.546ZM365.072 227.546H366.721V225.895H365.072V227.546ZM368.37 227.546H370.02V225.895H368.37V227.546ZM371.669 227.546H373.318V225.895H371.669V227.546ZM374.967 227.546H376.617V225.895H374.967V227.546ZM378.266 227.546H379.915V225.895H378.266V227.546ZM381.565 227.546H383.214V225.895H381.565V227.546ZM384.863 227.546H386.513V225.895H384.863V227.546ZM388.162 227.546H389.811V225.895H388.162V227.546ZM391.461 227.546H393.11V225.895H391.461V227.546ZM394.759 227.546H396.409V225.895H394.759V227.546ZM398.058 227.546H399.707V225.895H398.058V227.546ZM401.357 227.546H403.006V225.895H401.357V227.546ZM404.655 227.546H406.305V225.895H404.655V227.546ZM407.954 227.546H409.603V225.895H407.954V227.546ZM411.253 227.546H412.902V225.895H411.253V227.546ZM414.551 227.546H416.201V225.895H414.551V227.546ZM417.85 227.546H419.499V225.895H417.85V227.546ZM421.148 227.546H422.798V225.895H421.148V227.546ZM424.447 227.546H426.096V225.895H424.447V227.546ZM427.746 227.546H429.395V225.895H427.746V227.546ZM431.044 227.546H432.694V225.895H431.044V227.546ZM434.343 227.546H435.992V225.895H434.343V227.546ZM437.642 227.546H439.291V225.895H437.642V227.546ZM440.94 227.546H442.59V225.895H440.94V227.546ZM444.239 227.546H445.888V225.895H444.239V227.546ZM447.538 227.546H449.187V225.895H447.538V227.546ZM450.836 227.546H452.486V225.895H450.836V227.546ZM454.135 227.546H455.784V225.895H454.135V227.546ZM457.434 227.546H459.083V225.895H457.434V227.546ZM460.732 227.546H462.382V225.895H460.732V227.546ZM464.031 227.546H465.68V225.895H464.031V227.546ZM467.33 227.546H468.979V225.895H467.33V227.546ZM470.628 227.546H472.277V225.895H470.628V227.546ZM473.927 227.546H475.576V225.895H473.927V227.546ZM477.225 227.546H478.875V225.895H477.225V227.546ZM480.524 227.546H482.173V225.895H480.524V227.546ZM483.823 227.546H485.472V225.895H483.823V227.546ZM487.121 227.546H488.771V225.895H487.121V227.546ZM490.42 227.546H492.069V225.895H490.42V227.546ZM493.719 227.546H495.368V225.895H493.719V227.546ZM497.017 227.546H498.667V225.895H497.017V227.546ZM500.316 227.546H501.965V225.895H500.316V227.546ZM503.615 227.546H505.264V225.895H503.615V227.546ZM506.913 227.546H508.563V225.895H506.913V227.546ZM510.212 227.546H511.861V225.895H510.212V227.546ZM513.511 227.546H515.16V225.895H513.511V227.546ZM516.809 227.546H518.459V225.895H516.809V227.546ZM520.108 227.546H521.757V225.895H520.108V227.546ZM523.406 227.546H525.056V225.895H523.406V227.546ZM526.705 227.546H528.354V225.895H526.705V227.546ZM530.004 227.546H530.827V225.895H530.004V227.546ZM531.651 226.754C531.662 226.489 531.677 226.225 531.695 225.962L530.048 225.848C530.029 226.127 530.014 226.406 530.002 226.686L531.651 226.754ZM531.849 224.389C531.915 223.863 531.996 223.342 532.091 222.826L530.468 222.527C530.367 223.074 530.281 223.625 530.211 224.182L531.849 224.389ZM532.422 221.281C532.547 220.767 532.687 220.258 532.84 219.755L531.261 219.274C531.099 219.806 530.951 220.345 530.818 220.889L532.422 221.281ZM533.345 218.256C533.527 217.761 533.724 217.271 533.933 216.788L532.419 216.131C532.197 216.642 531.989 217.161 531.796 217.686L533.345 218.256ZM534.604 215.356C534.841 214.884 535.091 214.42 535.354 213.963L533.923 213.14C533.645 213.623 533.38 214.115 533.129 214.614L534.604 215.356ZM536.18 212.614C536.469 212.172 536.769 211.738 537.081 211.312L535.75 210.336C535.42 210.786 535.103 211.245 534.798 211.713L536.18 212.614ZM538.052 210.062C538.387 209.655 538.733 209.256 539.09 208.867L537.874 207.751C537.497 208.162 537.131 208.584 536.777 209.014L538.052 210.062ZM540.192 207.73C540.57 207.362 540.957 207.003 541.355 206.655L540.267 205.414C539.847 205.781 539.438 206.16 539.039 206.55L540.192 207.73ZM542.574 205.644C542.989 205.318 543.413 205.003 543.846 204.7L542.898 203.348C542.441 203.669 541.993 204.002 541.555 204.345L542.574 205.644ZM545.166 203.826C545.613 203.547 546.069 203.279 546.532 203.024L545.735 201.578C545.245 201.848 544.765 202.131 544.292 202.425L545.166 203.826ZM547.939 202.296C548.413 202.067 548.894 201.85 549.383 201.645L548.745 200.123C548.229 200.339 547.721 200.568 547.22 200.81L547.939 202.296ZM550.86 201.072C551.356 200.895 551.858 200.73 552.366 200.579L551.894 198.997C551.358 199.157 550.828 199.331 550.304 199.518L550.86 201.072ZM553.895 200.167C554.407 200.043 554.923 199.933 555.445 199.836L555.144 198.214C554.593 198.316 554.048 198.432 553.509 198.562L553.895 200.167ZM557.009 199.589C557.53 199.521 558.056 199.465 558.585 199.424L558.457 197.779C557.898 197.822 557.344 197.88 556.795 197.952L557.009 199.589ZM560.168 199.342C560.432 199.335 560.697 199.332 560.963 199.332V197.681C560.683 197.681 560.404 197.685 560.126 197.692L560.168 199.342ZM560.963 199.332C561.229 199.332 561.494 199.335 561.758 199.342L561.801 197.692C561.523 197.685 561.243 197.681 560.963 197.681V199.332ZM563.341 199.424C563.871 199.465 564.396 199.521 564.917 199.589L565.132 197.952C564.582 197.88 564.028 197.822 563.47 197.779L563.341 199.424ZM566.482 199.836C567.003 199.933 567.52 200.043 568.031 200.167L568.418 198.562C567.878 198.432 567.333 198.316 566.783 198.214L566.482 199.836ZM569.561 200.579C570.069 200.73 570.571 200.895 571.067 201.072L571.622 199.518C571.099 199.331 570.569 199.157 570.032 198.997L569.561 200.579ZM572.544 201.645C573.032 201.85 573.513 202.067 573.988 202.296L574.706 200.81C574.206 200.568 573.697 200.339 573.182 200.123L572.544 201.645ZM575.395 203.024C575.858 203.279 576.313 203.547 576.76 203.826L577.634 202.425C577.162 202.131 576.681 201.848 576.192 201.578L575.395 203.024ZM578.081 204.7C578.514 205.003 578.938 205.318 579.353 205.644L580.372 204.345C579.934 204.002 579.486 203.669 579.029 203.348L578.081 204.7ZM580.572 206.655C580.969 207.003 581.357 207.362 581.734 207.73L582.888 206.55C582.489 206.16 582.079 205.781 581.66 205.414L580.572 206.655ZM582.836 208.867C583.193 209.256 583.539 209.655 583.875 210.062L585.15 209.014C584.795 208.584 584.429 208.162 584.052 207.751L582.836 208.867ZM584.846 211.312C585.158 211.738 585.458 212.172 585.746 212.614L587.129 211.713C586.824 211.245 586.506 210.786 586.176 210.336L584.846 211.312ZM586.573 213.963C586.835 214.42 587.086 214.884 587.323 215.356L588.797 214.614C588.546 214.115 588.281 213.623 588.004 213.14L586.573 213.963ZM587.993 216.788C588.203 217.271 588.399 217.761 588.582 218.256L590.131 217.686C589.937 217.161 589.729 216.642 589.507 216.131L587.993 216.788ZM589.086 219.755C589.24 220.258 589.379 220.767 589.505 221.281L591.108 220.889C590.975 220.345 590.828 219.806 590.665 219.274L589.086 219.755ZM589.836 222.826C589.931 223.342 590.012 223.863 590.078 224.389L591.715 224.182C591.645 223.625 591.559 223.074 591.459 222.527L589.836 222.826ZM590.232 225.962C590.25 226.225 590.264 226.489 590.275 226.754L591.924 226.686C591.913 226.406 591.897 226.127 591.878 225.848L590.232 225.962ZM591.1 227.546H591.922V225.895H591.1V227.546ZM593.565 227.546H595.209V225.895H593.565V227.546ZM596.852 227.546H598.496V225.895H596.852V227.546ZM600.139 227.546H601.783V225.895H600.139V227.546ZM603.427 227.546H605.07V225.895H603.427V227.546ZM606.714 227.546H608.357V225.895H606.714V227.546ZM610.001 227.546H611.644V225.895H610.001V227.546ZM613.288 227.546H614.932V225.895H613.288V227.546ZM616.575 227.546H618.219V225.895H616.575V227.546ZM619.862 227.546H621.506V225.895H619.862V227.546ZM623.149 227.546H624.793V225.895H623.149V227.546ZM626.437 227.546H628.08V225.895H626.437V227.546ZM629.724 227.546H631.367V225.895H629.724V227.546ZM633.011 227.546H634.654V225.895H633.011V227.546ZM636.298 227.546H637.942V225.895H636.298V227.546ZM639.585 227.546H641.229V225.895H639.585V227.546ZM642.872 227.546H644.516V225.895H642.872V227.546ZM646.159 227.546H647.803V225.895H646.159V227.546ZM649.447 227.546H651.09V225.895H649.447V227.546ZM652.734 227.546H654.377V225.895H652.734V227.546ZM656.021 227.546H657.665V225.895H656.021V227.546ZM659.308 227.546H660.952V225.895H659.308V227.546ZM662.595 227.546H664.239V225.895H662.595V227.546ZM665.882 227.546H667.526V225.895H665.882V227.546ZM669.169 227.546H670.813V225.895H669.169V227.546ZM672.457 227.546H674.1V225.895H672.457V227.546ZM675.744 227.546H677.387V225.895H675.744V227.546ZM679.031 227.546H680.674V225.895H679.031V227.546ZM682.318 227.546H683.962V225.895H682.318V227.546ZM685.605 227.546H687.249V225.895H685.605V227.546ZM688.892 227.546H690.536V225.895H688.892V227.546ZM692.18 227.546H693.823V225.895H692.18V227.546ZM695.467 227.546H697.11V225.895H695.467V227.546ZM698.754 227.546H700.397V225.895H698.754V227.546ZM702.041 227.546H703.685V225.895H702.041V227.546ZM705.328 227.546H706.972V225.895H705.328V227.546ZM708.615 227.546H710.259V225.895H708.615V227.546ZM711.902 227.546H713.546V225.895H711.902V227.546ZM715.189 227.546H716.833V225.895H715.189V227.546ZM718.477 227.546H720.12V225.895H718.477V227.546ZM721.764 227.546H723.407V225.895H721.764V227.546ZM725.051 227.546H726.694V225.895H725.051V227.546ZM728.338 227.546H729.982V225.895H728.338V227.546ZM731.625 227.546H733.269V225.895H731.625V227.546ZM734.912 227.546H736.556V225.895H734.912V227.546ZM738.199 227.546H739.843V225.895H738.199V227.546ZM741.487 227.546H743.13V225.895H741.487V227.546ZM744.774 227.546H746.417V225.895H744.774V227.546ZM748.061 227.546H749.704V225.895H748.061V227.546ZM751.348 227.546H752.992V225.895H751.348V227.546ZM754.635 227.546H756.279V225.895H754.635V227.546ZM757.922 227.546H759.566V225.895H757.922V227.546ZM761.209 227.546H762.853V225.895H761.209V227.546ZM764.497 227.546H766.14V225.895H764.497V227.546ZM767.784 227.546H769.427V225.895H767.784V227.546ZM771.071 227.546H772.714V225.895H771.071V227.546ZM774.358 227.546H776.002V225.895H774.358V227.546ZM777.645 227.546H779.289V225.895H777.645V227.546ZM780.932 227.546H782.576V225.895H780.932V227.546ZM784.219 227.546H785.863V225.895H784.219V227.546ZM787.507 227.546H789.15V225.895H787.507V227.546ZM790.794 227.546H792.437V225.895H790.794V227.546ZM794.081 227.546H795.724V225.895H794.081V227.546ZM797.368 227.546H799.012V225.895H797.368V227.546ZM800.655 227.546H802.299V225.895H800.655V227.546ZM803.942 227.546H805.586V225.895H803.942V227.546ZM807.229 227.546H808.873V225.895H807.229V227.546ZM810.517 227.546H812.16V225.895H810.517V227.546ZM813.804 227.546H815.447V225.895H813.804V227.546ZM817.091 227.546H818.734V225.895H817.091V227.546ZM820.378 227.546H822.021V225.895H820.378V227.546ZM823.665 227.546H825.309V225.895H823.665V227.546ZM826.952 227.546H828.596V225.895H826.952V227.546ZM830.239 227.546H831.883V225.895H830.239V227.546ZM833.526 227.546H835.17V225.895H833.526V227.546ZM836.814 227.546H838.457V225.895H836.814V227.546ZM840.101 227.546H841.744V225.895H840.101V227.546ZM843.388 227.546H845.031V225.895H843.388V227.546ZM846.675 227.546H848.319V225.895H846.675V227.546ZM849.962 227.546H851.606V225.895H849.962V227.546ZM853.249 227.546H854.893V225.895H853.249V227.546ZM856.537 227.546H858.18V225.895H856.537V227.546ZM859.824 227.546H861.467V225.895H859.824V227.546ZM863.111 227.546H864.754V225.895H863.111V227.546ZM866.398 227.546H868.042V225.895H866.398V227.546ZM869.685 227.546H871.329V225.895H869.685V227.546ZM872.972 227.546H874.616V225.895H872.972V227.546ZM876.26 227.546H877.903V225.895H876.26V227.546ZM879.547 227.546H880.369V225.895H879.547V227.546ZM880.369 227.546C880.651 227.546 880.932 227.54 881.212 227.529L881.148 225.88C880.89 225.89 880.63 225.895 880.369 225.895V227.546ZM882.891 227.399C883.453 227.333 884.008 227.245 884.555 227.137L884.235 225.518C883.73 225.618 883.218 225.699 882.699 225.759L882.891 227.399ZM886.195 226.745C886.738 226.592 887.272 226.418 887.797 226.225L887.226 224.676C886.742 224.855 886.249 225.015 885.747 225.156L886.195 226.745ZM889.354 225.579C889.866 225.343 890.366 225.087 890.855 224.813L890.047 223.373C889.596 223.626 889.134 223.862 888.662 224.08L889.354 225.579ZM892.291 223.931C892.758 223.618 893.213 223.287 893.653 222.94L892.63 221.644C892.224 221.965 891.804 222.271 891.373 222.56L892.291 223.931ZM894.933 221.845C895.346 221.464 895.743 221.066 896.125 220.654L894.913 219.533C894.561 219.914 894.194 220.281 893.813 220.633L894.933 221.845ZM897.219 219.373C897.567 218.933 897.898 218.479 898.211 218.011L896.839 217.093C896.55 217.525 896.245 217.944 895.924 218.351L897.219 219.373ZM899.092 216.576C899.366 216.087 899.622 215.586 899.858 215.075L898.36 214.383C898.142 214.855 897.906 215.317 897.653 215.768L899.092 216.576ZM900.504 213.518C900.698 212.993 900.871 212.458 901.024 211.915L899.436 211.468C899.295 211.969 899.134 212.462 898.956 212.946L900.504 213.518ZM901.417 210.276C901.525 209.728 901.612 209.173 901.678 208.612L900.039 208.42C899.978 208.938 899.897 209.45 899.797 209.955L901.417 210.276ZM901.809 206.932C901.82 206.653 901.825 206.371 901.825 206.089H900.174C900.174 206.35 900.169 206.61 900.159 206.868L901.809 206.932ZM901.825 206.089V205.257H900.174V206.089H901.825ZM901.825 203.592V201.927H900.174V203.592H901.825ZM901.825 200.263V198.598H900.174V200.263H901.825ZM901.825 196.933V195.269H900.174V196.933H901.825ZM901.825 193.604V191.939H900.174V193.604H901.825ZM901.825 190.275V188.61H900.174V190.275H901.825ZM901.825 186.945V185.28H900.174V186.945H901.825ZM901.825 183.616V181.951H900.174V183.616H901.825ZM901.825 180.286V178.622H900.174V180.286H901.825ZM901.825 176.957V175.292H900.174V176.957H901.825ZM901.825 173.628V171.963H900.174V173.628H901.825ZM901.825 170.298V168.633H900.174V170.298H901.825ZM901.825 166.969V165.304H900.174V166.969H901.825ZM901.825 163.639V161.975H900.174V163.639H901.825ZM901.825 160.31V158.645H900.174V160.31H901.825ZM901.825 156.981V155.316H900.174V156.981H901.825ZM901.825 153.651V151.986H900.174V153.651H901.825ZM901.825 150.322V148.657H900.174V150.322H901.825ZM901.825 146.992V145.328H900.174V146.992H901.825ZM901.825 143.663V141.998H900.174V143.663H901.825ZM901.825 140.334V138.669H900.174V140.334H901.825ZM901.825 137.004V135.339H900.174V137.004H901.825ZM901.825 133.675V132.01H900.174V133.675H901.825ZM901.825 130.345V128.681H900.174V130.345H901.825ZM901.825 127.016V125.351H900.174V127.016H901.825ZM901.825 123.687V122.022H900.174V123.687H901.825ZM901.825 120.357V118.693H900.174V120.357H901.825ZM901.825 117.028V115.363H900.174V117.028H901.825ZM901.825 113.698V112.034H900.174V113.698H901.825ZM901.825 110.369V108.704H900.174V110.369H901.825ZM901.825 107.04V105.375H900.174V107.04H901.825ZM901.825 103.71V102.046H900.174V103.71H901.825ZM901.825 100.381V98.7161H900.174V100.381H901.825ZM901.825 97.0515V95.3868H900.174V97.0515H901.825ZM901.825 93.7221V92.0574H900.174V93.7221H901.825ZM901.825 90.3927V88.728H900.174V90.3927H901.825ZM901.825 87.0633V85.3986H900.174V87.0633H901.825ZM901.825 83.7339V82.0692H900.174V83.7339H901.825ZM901.825 80.4045V78.7398H900.174V80.4045H901.825ZM901.825 77.0751V75.4104H900.174V77.0751H901.825ZM901.825 73.7457V72.081H900.174V73.7457H901.825ZM901.825 70.4163V68.7516H900.174V70.4163H901.825ZM901.825 67.0869V65.4222H900.174V67.0869H901.825ZM901.825 63.7575V62.0928H900.174V63.7575H901.825ZM901.825 60.4281V58.7634H900.174V60.4281H901.825ZM901.825 57.0987V55.434H900.174V57.0987H901.825ZM901.825 53.7693V52.1045H900.174V53.7693H901.825ZM901.825 50.4398V48.7751H900.174V50.4398H901.825ZM901.825 47.1104V45.4457H900.174V47.1104H901.825ZM901.825 43.781V42.1163H900.174V43.781H901.825ZM901.825 40.4516V38.7869H900.174V40.4516H901.825ZM901.825 37.1222V35.4575H900.174V37.1222H901.825ZM901.825 33.7928V32.1281H900.174V33.7928H901.825ZM901.825 30.4634V29.6311H900.174V30.4634H901.825ZM901.825 29.6311C901.825 29.3488 901.82 29.0677 901.809 28.788L900.159 28.8518C900.169 29.1103 900.174 29.3701 900.174 29.6311H901.825ZM901.678 27.1086C901.612 26.5471 901.525 25.9921 901.417 25.4445L899.797 25.7648C899.897 26.2701 899.978 26.7823 900.039 27.3007L901.678 27.1086ZM901.024 23.805C900.871 23.2619 900.698 22.7274 900.504 22.2026L898.956 22.774C899.134 23.2582 899.295 23.7512 899.436 24.2523L901.024 23.805ZM899.858 20.6455C899.622 20.134 899.366 19.6334 899.092 19.1447L897.653 19.9525C897.906 20.4035 898.142 20.8655 898.36 21.3374L899.858 20.6455ZM898.211 17.709C897.898 17.2416 897.567 16.7872 897.219 16.3468L895.924 17.3694C896.245 17.7761 896.55 18.1957 896.839 18.6272L898.211 17.709ZM896.125 15.0664C895.743 14.654 895.346 14.2566 894.933 13.8752L893.813 15.0869C894.194 15.4392 894.561 15.8061 894.913 16.187L896.125 15.0664ZM893.653 12.7806C893.213 12.433 892.758 12.1022 892.291 11.7892L891.372 13.1607C891.804 13.4496 892.224 13.7551 892.63 14.0761L893.653 12.7806ZM890.855 10.9076C890.366 10.6333 889.866 10.3776 889.354 10.1414L888.662 11.6399C889.134 11.8578 889.596 12.0938 890.047 12.3469L890.855 10.9076ZM887.797 9.49573C887.272 9.30205 886.738 9.1283 886.195 8.97539L885.747 10.5641C886.249 10.7052 886.742 10.8655 887.226 11.0441L887.797 9.49573ZM884.555 8.58314C884.008 8.47481 883.453 8.38733 882.891 8.32154L882.699 9.96082C883.217 10.0216 883.73 10.1023 884.235 10.2022L884.555 8.58314ZM881.212 8.19103C880.932 8.18021 880.651 8.17476 880.369 8.17476V9.82524C880.63 9.82524 880.889 9.83029 881.148 9.84028L881.212 8.19103ZM880.369 8.17476H879.547V9.82524H880.369V8.17476ZM877.903 8.17476H876.259V9.82524H877.903V8.17476ZM874.616 8.17476H872.972V9.82524H874.616V8.17476ZM871.328 8.17476H869.685V9.82524H871.328V8.17476ZM868.041 8.17476H866.397V9.82524H868.041V8.17476ZM864.753 8.17476H863.11V9.82524H864.753V8.17476ZM861.466 8.17476H859.822V9.82524H861.466V8.17476ZM858.179 8.17476H856.535V9.82524H858.179V8.17476ZM854.891 8.17476H853.248V9.82524H854.891V8.17476ZM851.604 8.17476H849.96V9.82524H851.604V8.17476ZM848.316 8.17476H846.673V9.82524H848.316V8.17476ZM845.029 8.17476H843.385V9.82524H845.029V8.17476ZM841.742 8.17476H840.098V9.82524H841.742V8.17476ZM838.454 8.17476H836.811V9.82524H838.454V8.17476ZM835.167 8.17476H833.523V9.82524H835.167V8.17476ZM831.879 8.17476H830.236V9.82524H831.879V8.17476ZM828.592 8.17476H826.948V9.82524H828.592V8.17476ZM825.305 8.17476H823.661V9.82524H825.305V8.17476ZM822.017 8.17476H820.374V9.82524H822.017V8.17476ZM818.73 8.17476H817.086V9.82524H818.73V8.17476ZM815.443 8.17476H813.799V9.82524H815.443V8.17476ZM812.155 8.17476H810.511V9.82524H812.155V8.17476ZM808.868 8.17476H807.224V9.82524H808.868V8.17476ZM805.58 8.17476H803.937V9.82524H805.58V8.17476ZM802.293 8.17476H800.649V9.82524H802.293V8.17476ZM799.005 8.17476H797.362V9.82524H799.005V8.17476ZM795.718 8.17476H794.074V9.82524H795.718V8.17476ZM792.431 8.17476H790.787V9.82524H792.431V8.17476ZM789.143 8.17476H787.5V9.82524H789.143V8.17476ZM785.856 8.17476H784.212V9.82524H785.856V8.17476ZM782.568 8.17476H780.925V9.82524H782.568V8.17476ZM779.281 8.17476H777.637V9.82524H779.281V8.17476ZM775.994 8.17476H774.35V9.82524H775.994V8.17476ZM772.706 8.17476H771.063V9.82524H772.706V8.17476ZM769.419 8.17476H767.775V9.82524H769.419V8.17476ZM766.132 8.17476H764.488V9.82524H766.132V8.17476ZM762.844 8.17476H761.2V9.82524H762.844V8.17476ZM759.557 8.17476H757.913V9.82524H759.557V8.17476ZM756.269 8.17476H754.626V9.82524H756.269V8.17476ZM752.982 8.17476H751.338V9.82524H752.982V8.17476ZM749.694 8.17476H748.051V9.82524H749.694V8.17476ZM746.407 8.17476H744.763V9.82524H746.407V8.17476ZM743.12 8.17476H741.476V9.82524H743.12V8.17476ZM739.832 8.17476H738.189V9.82524H739.832V8.17476ZM736.545 8.17476H734.901V9.82524H736.545V8.17476ZM733.257 8.17476H731.614V9.82524H733.257V8.17476ZM729.97 8.17476H728.326V9.82524H729.97V8.17476ZM726.683 8.17476H725.039V9.82524H726.683V8.17476ZM723.395 8.17476H721.751V9.82524H723.395V8.17476ZM720.108 8.17476H718.464V9.82524H720.108V8.17476ZM716.82 8.17476H715.177V9.82524H716.82V8.17476ZM713.533 8.17476H711.889V9.82524H713.533V8.17476ZM710.245 8.17476H708.602V9.82524H710.245V8.17476ZM706.958 8.17476H705.314V9.82524H706.958V8.17476ZM703.671 8.17476H702.027V9.82524H703.671V8.17476ZM700.383 8.17476H698.74V9.82524H700.383V8.17476ZM697.096 8.17476H695.452V9.82524H697.096V8.17476ZM693.808 8.17476H692.165V9.82524H693.808V8.17476ZM690.521 8.17476H688.877V9.82524H690.521V8.17476ZM687.234 8.17476H685.59V9.82524H687.234V8.17476ZM683.946 8.17476H682.302V9.82524H683.946V8.17476ZM680.659 8.17476H679.015V9.82524H680.659V8.17476ZM677.371 8.17476H675.728V9.82524H677.371V8.17476ZM674.084 8.17476H672.44V9.82524H674.084V8.17476ZM670.797 8.17476H669.153V9.82524H670.797V8.17476ZM667.509 8.17476H665.865V9.82524H667.509V8.17476ZM664.222 8.17476H662.578V9.82524H664.222V8.17476ZM660.934 8.17476H659.291V9.82524H660.934V8.17476ZM657.647 8.17476H656.003V9.82524H657.647V8.17476ZM654.359 8.17476H652.716V9.82524H654.359V8.17476ZM651.072 8.17476H649.428V9.82524H651.072V8.17476ZM647.785 8.17476H646.141V9.82524H647.785V8.17476ZM644.497 8.17476H642.854V9.82524H644.497V8.17476ZM641.21 8.17476H639.566V9.82524H641.21V8.17476ZM637.922 8.17476H636.279V9.82524H637.922V8.17476ZM634.635 8.17476H632.991V9.82524H634.635V8.17476ZM631.348 8.17476H629.704V9.82524H631.348V8.17476ZM628.06 8.17476H626.416V9.82524H628.06V8.17476ZM624.773 8.17476H623.129V9.82524H624.773V8.17476ZM621.485 8.17476H619.842V9.82524H621.485V8.17476ZM618.198 8.17476H616.554V9.82524H618.198V8.17476ZM614.911 8.17476H613.267V9.82524H614.911V8.17476ZM611.623 8.17476H609.979V9.82524H611.623V8.17476ZM608.336 8.17476H606.692V9.82524H608.336V8.17476ZM605.048 8.17476H603.405V9.82524H605.048V8.17476ZM601.761 8.17476H600.117V9.82524H601.761V8.17476ZM598.473 8.17476H596.83V9.82524H598.473V8.17476ZM595.186 8.17476H593.542V9.82524H595.186V8.17476ZM591.899 8.17476H591.077V9.82524H591.899V8.17476ZM590.253 8.95315C590.239 9.21503 590.22 9.47595 590.198 9.73587L591.843 9.87554C591.866 9.60033 591.885 9.32408 591.901 9.04685L590.253 8.95315ZM590.022 11.2913C589.948 11.8101 589.861 12.3245 589.759 12.8341L591.378 13.157C591.485 12.6173 591.578 12.0724 591.656 11.5228L590.022 11.2913ZM589.41 14.3594C589.278 14.8663 589.133 15.3677 588.975 15.8633L590.547 16.3663C590.715 15.8412 590.868 15.31 591.007 14.7731L589.41 14.3594ZM588.456 17.3406C588.269 17.829 588.068 18.3111 587.855 18.7865L589.361 19.4622C589.587 18.9589 589.799 18.4484 589.997 17.9311L588.456 17.3406ZM587.174 20.1967C586.934 20.6608 586.681 21.1178 586.416 21.5671L587.838 22.4056C588.118 21.9301 588.386 21.4465 588.64 20.9552L587.174 20.1967ZM585.584 22.8938C585.294 23.3286 584.992 23.7552 584.679 24.1732L586.001 25.1624C586.332 24.7203 586.651 24.2691 586.957 23.8092L585.584 22.8938ZM583.706 25.4016C583.371 25.802 583.025 26.1935 582.668 26.5755L583.875 27.702C584.252 27.2982 584.618 26.8844 584.972 26.4611L583.706 25.4016ZM581.568 27.692C581.192 28.0539 580.805 28.406 580.409 28.7478L581.488 29.9972C581.906 29.6361 582.314 29.2641 582.712 28.8817L581.568 27.692ZM579.195 29.7403C578.783 30.0598 578.361 30.3687 577.93 30.6666L578.87 32.0238C579.324 31.7092 579.77 31.383 580.206 31.0455L579.195 29.7403ZM576.618 31.5241C576.174 31.7977 575.722 32.0601 575.262 32.3107L576.052 33.7599C576.537 33.4953 577.015 33.2183 577.484 32.9293L576.618 31.5241ZM573.865 33.0242C573.395 33.2491 572.917 33.462 572.433 33.6627L573.065 35.1874C573.576 34.9756 574.08 34.7508 574.577 34.5133L573.865 33.0242ZM570.969 34.2244C570.477 34.3981 569.98 34.5594 569.477 34.7079L569.944 36.2909C570.475 36.1342 571 35.9639 571.519 35.7805L570.969 34.2244ZM567.961 35.1117C567.455 35.2325 566.943 35.3404 566.427 35.4351L566.725 37.0585C567.27 36.9585 567.81 36.8446 568.344 36.7172L567.961 35.1117ZM564.878 35.6777C564.362 35.7447 563.841 35.7987 563.317 35.8392L563.444 37.4848C563.997 37.4421 564.546 37.3852 565.09 37.3145L564.878 35.6777ZM561.75 35.9198C561.489 35.9265 561.226 35.9299 560.963 35.9299V37.5804C561.24 37.5804 561.517 37.5768 561.792 37.5697L561.75 35.9198ZM560.963 35.9299C560.7 35.9299 560.438 35.9265 560.176 35.9198L560.134 37.5697C560.41 37.5768 560.686 37.5804 560.963 37.5804V35.9299ZM558.609 35.8392C558.085 35.7987 557.565 35.7447 557.049 35.6777L556.836 37.3145C557.381 37.3852 557.929 37.4421 558.482 37.4848L558.609 35.8392ZM555.5 35.4351C554.983 35.3404 554.472 35.2325 553.965 35.1117L553.582 36.7172C554.117 36.8446 554.657 36.9585 555.202 37.0585L555.5 35.4351ZM552.45 34.7079C551.947 34.5594 551.449 34.3981 550.958 34.2244L550.408 35.7805C550.926 35.9639 551.452 36.1342 551.983 36.2909L552.45 34.7079ZM549.493 33.6627C549.009 33.462 548.531 33.2491 548.061 33.0242L547.349 34.5133C547.846 34.7508 548.35 34.9756 548.862 35.1874L549.493 33.6627ZM546.665 32.3107C546.205 32.0601 545.753 31.7977 545.309 31.5241L544.443 32.9294C544.912 33.2183 545.389 33.4953 545.875 33.7599L546.665 32.3107ZM543.996 30.6666C543.566 30.3687 543.144 30.0598 542.731 29.7403L541.721 31.0455C542.157 31.383 542.602 31.7092 543.057 32.0238L543.996 30.6666ZM541.517 28.7478C541.121 28.406 540.735 28.0539 540.358 27.692L539.214 28.8817C539.612 29.2641 540.02 29.6361 540.439 29.9972L541.517 28.7478ZM539.258 26.5756C538.902 26.1935 538.555 25.802 538.22 25.4016L536.955 26.4611C537.309 26.8845 537.675 27.2982 538.052 27.702L539.258 26.5756ZM537.247 24.1732C536.934 23.7552 536.633 23.3286 536.343 22.8938L534.969 23.8093C535.276 24.2691 535.595 24.7203 535.926 25.1624L537.247 24.1732ZM535.51 21.5671C535.245 21.1178 534.992 20.6608 534.752 20.1967L533.286 20.9552C533.541 21.4465 533.808 21.9301 534.089 22.4056L535.51 21.5671ZM534.071 18.7865C533.858 18.3111 533.658 17.829 533.471 17.3406L531.929 17.9311C532.128 18.4484 532.34 18.9589 532.566 19.4623L534.071 18.7865ZM532.952 15.8633C532.793 15.3677 532.648 14.8663 532.517 14.3594L530.919 14.7731C531.058 15.31 531.212 15.8412 531.38 16.3663L532.952 15.8633ZM532.168 12.8341C532.066 12.3245 531.978 11.8101 531.905 11.2913L530.27 11.5228C530.348 12.0724 530.441 12.6173 530.549 13.157L532.168 12.8341ZM531.729 9.73587C531.706 9.47595 531.688 9.21503 531.673 8.95315L530.025 9.04685C530.041 9.32408 530.061 9.60032 530.084 9.87554L531.729 9.73587Z" fill="#E1A676" mask="url(#path-5-inside-1_2019_8)"/>
</g>
<path d="M561 31V201" stroke="#FFFEFD" stroke-width="2.47573" stroke-dasharray="16.5 16.5"/>
<path d="M37.9398 226.266C141.809 187.338 244.753 145.922 353.281 111.553C372.987 105.312 404.5 91.5 413 98C421.5 104.5 421.542 110.798 417 117.424C412.637 123.791 400.5 121.231 396 117.424C391.5 113.618 391 107.5 392.366 104.588C405.367 76.8723 437.169 74.666 463.42 71.1529C509.183 65.0287 526.768 65.3795 572.655 59.7744" stroke="#E1A676" stroke-opacity="0.2" stroke-width="2.47573" stroke-linecap="round"/>
</g>
<defs>
<filter id="filter0_d_2019_8" x="-10.34" y="-4.36893" width="930.485" height="256.012" filterUnits="userSpaceOnUse" color-interpolation-filters="sRGB">
<feFlood flood-opacity="0" result="BackgroundImageFix"/>
<feColorMatrix in="SourceAlpha" type="matrix" values="0 0 0 0 0 0 0 0 0 0 0 0 0 0 0 0 0 0 127 0" result="hardAlpha"/>
<feMorphology radius="1.65049" operator="erode" in="SourceAlpha" result="effect1_dropShadow_2019_8"/>
<feOffset dy="5.7767"/>
<feGaussianBlur stdDeviation="10.3981"/>
<feComposite in2="hardAlpha" operator="out"/>
<feColorMatrix type="matrix" values="0 0 0 0 0.430933 0 0 0 0 0.39037 0 0 0 0 0.268679 0 0 0 0.25 0"/>
<feBlend mode="normal" in2="BackgroundImageFix" result="effect1_dropShadow_2019_8"/>
<feBlend mode="normal" in="SourceGraphic" in2="effect1_dropShadow_2019_8" result="shape"/>
</filter>
<clipPath id="clip0_2019_8">
<rect width="905.043" height="240.072" fill="white"/>
</clipPath>
</defs>
</svg>
